M48
; DRILL file {KiCad 7.0.2} date Mon May 29 21:50:55 2023
; FORMAT={-:-/ absolute / inch / decimal}
; #@! TF.CreationDate,2023-05-29T21:50:55+03:00
; #@! TF.GenerationSoftware,Kicad,Pcbnew,7.0.2
; #@! TF.FileFunction,Plated,1,2,PTH
FMAT,2
INCH
; #@! TA.AperFunction,Plated,PTH,ViaDrill
T1C0.0157
; #@! TA.AperFunction,Plated,PTH,ComponentDrill
T2C0.0236
; #@! TA.AperFunction,Plated,PTH,ComponentDrill
T3C0.0295
; #@! TA.AperFunction,Plated,PTH,ComponentDrill
T4C0.0335
; #@! TA.AperFunction,Plated,PTH,ComponentDrill
T5C0.0390
; #@! TA.AperFunction,Plated,PTH,ComponentDrill
T6C0.0394
; #@! TA.AperFunction,Plated,PTH,ComponentDrill
T7C0.0512
; #@! TA.AperFunction,Plated,PTH,ComponentDrill
T8C0.1091
%
G90
G05
T1
X2.7657Y-4.1929
X2.9331Y-3.5827
X3.0354Y-4.4173
X3.0709Y-4.3504
X3.0709Y-4.4685
X3.1102Y-4.0748
X3.1102Y-4.3504
X3.1102Y-4.3898
X3.1102Y-4.4291
X3.1102Y-4.4685
X3.1417Y-3.1772
X3.1496Y-3.7402
X3.1496Y-3.8386
X3.1496Y-3.937
X3.1496Y-4.2323
X3.1496Y-4.3504
X3.1496Y-4.4685
X3.3268Y-3.8504
X3.3465Y-4.3307
X3.4449Y-4.3307
X3.4449Y-4.4291
X3.5433Y-4.4291
X3.6417Y-4.4291
X3.6772Y-3.8031
X3.8189Y-4.0354
X3.8386Y-4.2323
X3.8386Y-4.3307
X3.937Y-4.3307
X3.937Y-4.4291
X4.0354Y-4.4291
X4.1201Y-3.7677
X4.1969Y-4.1378
X4.2323Y-4.0354
X4.252Y-3.7598
X4.252Y-3.8386
X4.252Y-3.9173
X4.2913Y-3.7992
X4.2913Y-3.878
X4.3307Y-3.7598
X4.3307Y-3.8386
X4.3307Y-3.9173
X4.3307Y-4.0354
X4.3307Y-4.1339
X4.3701Y-3.7992
X4.3701Y-3.878
X4.4094Y-3.7598
X4.4094Y-3.8386
X4.4094Y-3.9173
X4.4291Y-4.0354
X4.4291Y-4.1339
X4.5276Y-3.6811
X4.5276Y-4.1339
X4.5472Y-3.563
X4.7244Y-4.252
X4.7835Y-3.7795
X4.7835Y-4.1929
T3
X2.9528Y-3.1874
X2.9528Y-3.2374
X2.9528Y-3.2874
T4
X2.878Y-4.3189
X2.878Y-4.5157
T5
X3.5138Y-3.5634
X3.6909Y-3.5634
T6
X4.8415Y-3.5719
X4.8415Y-3.6719
X4.9415Y-3.5719
X4.9415Y-3.6719
X5.0415Y-3.5719
X5.0415Y-3.6719
T7
X3.4642Y-3.6614
X3.7402Y-3.6614
X6.1594Y-3.7008
X6.1594Y-4.5276
X6.2008Y-3.3266
X6.3071Y-4.5276
X6.3976Y-3.3266
X6.4547Y-3.8386
X6.4547Y-4.5276
T8
X3.0297Y-4.1969
X5.8998Y-4.1969
T2
G00X2.7579Y-4.2795
M15
G01X2.7854Y-4.2795
M16
G05
G00X2.7854Y-4.5551
M15
G01X2.7579Y-4.5551
M16
G05
T0
M30
