%TF.GenerationSoftware,KiCad,Pcbnew,7.0.2*%
%TF.CreationDate,2023-05-29T21:50:56+03:00*%
%TF.ProjectId,greenhouse-doc,67726565-6e68-46f7-9573-652d646f632e,rev?*%
%TF.SameCoordinates,Original*%
%TF.FileFunction,Copper,L1,Top*%
%TF.FilePolarity,Positive*%
%FSLAX46Y46*%
G04 Gerber Fmt 4.6, Leading zero omitted, Abs format (unit mm)*
G04 Created by KiCad (PCBNEW 7.0.2) date 2023-05-29 21:50:56*
%MOMM*%
%LPD*%
G01*
G04 APERTURE LIST*
G04 Aperture macros list*
%AMRoundRect*
0 Rectangle with rounded corners*
0 $1 Rounding radius*
0 $2 $3 $4 $5 $6 $7 $8 $9 X,Y pos of 4 corners*
0 Add a 4 corners polygon primitive as box body*
4,1,4,$2,$3,$4,$5,$6,$7,$8,$9,$2,$3,0*
0 Add four circle primitives for the rounded corners*
1,1,$1+$1,$2,$3*
1,1,$1+$1,$4,$5*
1,1,$1+$1,$6,$7*
1,1,$1+$1,$8,$9*
0 Add four rect primitives between the rounded corners*
20,1,$1+$1,$2,$3,$4,$5,0*
20,1,$1+$1,$4,$5,$6,$7,0*
20,1,$1+$1,$6,$7,$8,$9,0*
20,1,$1+$1,$8,$9,$2,$3,0*%
G04 Aperture macros list end*
%TA.AperFunction,ComponentPad*%
%ADD10R,1.500000X1.050000*%
%TD*%
%TA.AperFunction,ComponentPad*%
%ADD11O,1.500000X1.050000*%
%TD*%
%TA.AperFunction,SMDPad,CuDef*%
%ADD12RoundRect,0.250000X-0.262500X-0.450000X0.262500X-0.450000X0.262500X0.450000X-0.262500X0.450000X0*%
%TD*%
%TA.AperFunction,SMDPad,CuDef*%
%ADD13RoundRect,0.250000X-0.475000X0.250000X-0.475000X-0.250000X0.475000X-0.250000X0.475000X0.250000X0*%
%TD*%
%TA.AperFunction,SMDPad,CuDef*%
%ADD14R,0.800000X0.800000*%
%TD*%
%TA.AperFunction,SMDPad,CuDef*%
%ADD15R,1.000000X1.000000*%
%TD*%
%TA.AperFunction,SMDPad,CuDef*%
%ADD16RoundRect,0.150000X0.825000X0.150000X-0.825000X0.150000X-0.825000X-0.150000X0.825000X-0.150000X0*%
%TD*%
%TA.AperFunction,SMDPad,CuDef*%
%ADD17RoundRect,0.250000X-0.450000X0.262500X-0.450000X-0.262500X0.450000X-0.262500X0.450000X0.262500X0*%
%TD*%
%TA.AperFunction,SMDPad,CuDef*%
%ADD18R,0.980000X3.700000*%
%TD*%
%TA.AperFunction,SMDPad,CuDef*%
%ADD19RoundRect,0.250000X0.262500X0.450000X-0.262500X0.450000X-0.262500X-0.450000X0.262500X-0.450000X0*%
%TD*%
%TA.AperFunction,SMDPad,CuDef*%
%ADD20RoundRect,0.250000X0.250000X0.475000X-0.250000X0.475000X-0.250000X-0.475000X0.250000X-0.475000X0*%
%TD*%
%TA.AperFunction,SMDPad,CuDef*%
%ADD21RoundRect,0.250000X0.450000X-0.262500X0.450000X0.262500X-0.450000X0.262500X-0.450000X-0.262500X0*%
%TD*%
%TA.AperFunction,SMDPad,CuDef*%
%ADD22RoundRect,0.250000X0.475000X-0.250000X0.475000X0.250000X-0.475000X0.250000X-0.475000X-0.250000X0*%
%TD*%
%TA.AperFunction,SMDPad,CuDef*%
%ADD23R,0.300000X0.950000*%
%TD*%
%TA.AperFunction,SMDPad,CuDef*%
%ADD24RoundRect,0.150000X-0.150000X0.587500X-0.150000X-0.587500X0.150000X-0.587500X0.150000X0.587500X0*%
%TD*%
%TA.AperFunction,SMDPad,CuDef*%
%ADD25R,1.350000X0.400000*%
%TD*%
%TA.AperFunction,ComponentPad*%
%ADD26O,1.900000X1.200000*%
%TD*%
%TA.AperFunction,SMDPad,CuDef*%
%ADD27R,1.900000X1.200000*%
%TD*%
%TA.AperFunction,ComponentPad*%
%ADD28C,1.450000*%
%TD*%
%TA.AperFunction,SMDPad,CuDef*%
%ADD29R,1.900000X1.500000*%
%TD*%
%TA.AperFunction,SMDPad,CuDef*%
%ADD30R,2.000000X0.900000*%
%TD*%
%TA.AperFunction,SMDPad,CuDef*%
%ADD31R,0.900000X2.000000*%
%TD*%
%TA.AperFunction,SMDPad,CuDef*%
%ADD32R,5.000000X5.000000*%
%TD*%
%TA.AperFunction,SMDPad,CuDef*%
%ADD33R,0.700000X0.300000*%
%TD*%
%TA.AperFunction,SMDPad,CuDef*%
%ADD34R,0.900000X1.800000*%
%TD*%
%TA.AperFunction,SMDPad,CuDef*%
%ADD35RoundRect,0.243750X0.456250X-0.243750X0.456250X0.243750X-0.456250X0.243750X-0.456250X-0.243750X0*%
%TD*%
%TA.AperFunction,ComponentPad*%
%ADD36C,4.155000*%
%TD*%
%TA.AperFunction,ComponentPad*%
%ADD37R,2.600000X2.600000*%
%TD*%
%TA.AperFunction,ComponentPad*%
%ADD38C,2.600000*%
%TD*%
%TA.AperFunction,ComponentPad*%
%ADD39C,1.950000*%
%TD*%
%TA.AperFunction,ComponentPad*%
%ADD40C,2.100000*%
%TD*%
%TA.AperFunction,ComponentPad*%
%ADD41C,1.750000*%
%TD*%
%TA.AperFunction,ComponentPad*%
%ADD42R,1.700000X1.700000*%
%TD*%
%TA.AperFunction,ComponentPad*%
%ADD43O,1.700000X1.700000*%
%TD*%
%TA.AperFunction,ViaPad*%
%ADD44C,0.800000*%
%TD*%
%TA.AperFunction,Conductor*%
%ADD45C,0.200000*%
%TD*%
%TA.AperFunction,Conductor*%
%ADD46C,0.300000*%
%TD*%
%TA.AperFunction,Conductor*%
%ADD47C,0.500000*%
%TD*%
%TA.AperFunction,Conductor*%
%ADD48C,2.000000*%
%TD*%
G04 APERTURE END LIST*
D10*
%TO.P,U2,1,GND*%
%TO.N,GND*%
X75000000Y-80960000D03*
D11*
%TO.P,U2,2,DQ*%
%TO.N,/tempsens*%
X75000000Y-82230000D03*
%TO.P,U2,3,V_{DD}*%
%TO.N,+3V3*%
X75000000Y-83500000D03*
%TD*%
D12*
%TO.P,R6,1*%
%TO.N,GND*%
X163087500Y-107400000D03*
%TO.P,R6,2*%
%TO.N,/relay_2*%
X164912500Y-107400000D03*
%TD*%
D13*
%TO.P,C3,1*%
%TO.N,+BATT*%
X82000000Y-112050000D03*
%TO.P,C3,2*%
%TO.N,GND*%
X82000000Y-113950000D03*
%TD*%
D14*
%TO.P,S1,1,NO*%
%TO.N,+BATT*%
X72350000Y-90750000D03*
%TO.P,S1,2,COM*%
%TO.N,/pw_en*%
X72350000Y-93000000D03*
%TO.P,S1,3,NC*%
%TO.N,unconnected-(S1-NC-Pad3)*%
X72350000Y-95250000D03*
D15*
%TO.P,S1,MP1,MP1*%
%TO.N,unconnected-(S1-PadMP1)*%
X70450000Y-89250000D03*
%TO.P,S1,MP2,MP2*%
%TO.N,unconnected-(S1-PadMP2)*%
X70450000Y-96750000D03*
%TD*%
D16*
%TO.P,U3,1,NC*%
%TO.N,unconnected-(U3-NC-Pad1)*%
X77475000Y-84155000D03*
%TO.P,U3,2,NC*%
%TO.N,unconnected-(U3-NC-Pad2)*%
X77475000Y-82885000D03*
%TO.P,U3,3,V_{DD}*%
%TO.N,+3V3*%
X77475000Y-81615000D03*
%TO.P,U3,4,DQ*%
%TO.N,/tempsens*%
X77475000Y-80345000D03*
%TO.P,U3,5,GND*%
%TO.N,GND*%
X72525000Y-80345000D03*
%TO.P,U3,6,NC*%
%TO.N,unconnected-(U3-NC-Pad6)*%
X72525000Y-81615000D03*
%TO.P,U3,7,NC*%
%TO.N,unconnected-(U3-NC-Pad7)*%
X72525000Y-82885000D03*
%TO.P,U3,8,NC*%
%TO.N,unconnected-(U3-NC-Pad8)*%
X72525000Y-84155000D03*
%TD*%
D17*
%TO.P,R9,1*%
%TO.N,GND*%
X87500000Y-97837500D03*
%TO.P,R9,2*%
%TO.N,Net-(IC2-FB)*%
X87500000Y-99662500D03*
%TD*%
D18*
%TO.P,L1,1,1*%
%TO.N,+3V3*%
X92435000Y-106420000D03*
%TO.P,L1,2,2*%
%TO.N,Net-(IC2-SW)*%
X90065000Y-106420000D03*
%TD*%
D19*
%TO.P,R7,1*%
%TO.N,/esp_en*%
X99162500Y-94212500D03*
%TO.P,R7,2*%
%TO.N,+3V3*%
X97337500Y-94212500D03*
%TD*%
%TO.P,R2,1*%
%TO.N,/batt_status*%
X99162500Y-100750000D03*
%TO.P,R2,2*%
%TO.N,+BATT*%
X97337500Y-100750000D03*
%TD*%
D20*
%TO.P,C4,1*%
%TO.N,/esp_en*%
X99200000Y-96412500D03*
%TO.P,C4,2*%
%TO.N,GND*%
X97300000Y-96412500D03*
%TD*%
D21*
%TO.P,R8,1*%
%TO.N,Net-(IC2-FB)*%
X85500000Y-99662500D03*
%TO.P,R8,2*%
%TO.N,+3V3*%
X85500000Y-97837500D03*
%TD*%
D22*
%TO.P,C5,1*%
%TO.N,+BATT*%
X86200000Y-103232500D03*
%TO.P,C5,2*%
%TO.N,GND*%
X86200000Y-101332500D03*
%TD*%
D23*
%TO.P,IC2,1,VIN*%
%TO.N,+BATT*%
X88600000Y-103000000D03*
%TO.P,IC2,2,SW*%
%TO.N,Net-(IC2-SW)*%
X89100000Y-103000000D03*
%TO.P,IC2,3,GND*%
%TO.N,GND*%
X89600000Y-103000000D03*
%TO.P,IC2,4,AGND*%
X89600000Y-101500000D03*
%TO.P,IC2,5,EN*%
%TO.N,/pw_en*%
X89100000Y-101500000D03*
%TO.P,IC2,6,FB*%
%TO.N,Net-(IC2-FB)*%
X88600000Y-101500000D03*
%TD*%
D24*
%TO.P,Q1,1,G*%
%TO.N,/relay_2*%
X164950000Y-109462500D03*
%TO.P,Q1,2,S*%
%TO.N,GND*%
X163050000Y-109462500D03*
%TO.P,Q1,3,D*%
%TO.N,Net-(K1-COIL-_2)*%
X164000000Y-111337500D03*
%TD*%
D25*
%TO.P,J1,1,VBUS*%
%TO.N,+5V*%
X73100000Y-110900000D03*
%TO.P,J1,2,D-*%
%TO.N,unconnected-(J1-D--Pad2)*%
X73100000Y-111550000D03*
%TO.P,J1,3,D+*%
%TO.N,unconnected-(J1-D+-Pad3)*%
X73100000Y-112200000D03*
%TO.P,J1,4,ID*%
%TO.N,unconnected-(J1-ID-Pad4)*%
X73100000Y-112850000D03*
%TO.P,J1,5,GND*%
%TO.N,GND*%
X73100000Y-113500000D03*
D26*
%TO.P,J1,6,Shield*%
X70400000Y-108700000D03*
D27*
X70400000Y-109300000D03*
D28*
X73100000Y-109700000D03*
D29*
X70400000Y-111200000D03*
X70400000Y-113200000D03*
D28*
X73100000Y-114700000D03*
D27*
X70400000Y-115100000D03*
D26*
X70400000Y-115700000D03*
%TD*%
D24*
%TO.P,Q2,1,G*%
%TO.N,/relay_1*%
X157350000Y-109462500D03*
%TO.P,Q2,2,S*%
%TO.N,GND*%
X155450000Y-109462500D03*
%TO.P,Q2,3,D*%
%TO.N,Net-(K1-COIL-_1)*%
X156400000Y-111337500D03*
%TD*%
D22*
%TO.P,C6,1*%
%TO.N,+BATT*%
X84000000Y-103232500D03*
%TO.P,C6,2*%
%TO.N,GND*%
X84000000Y-101332500D03*
%TD*%
D30*
%TO.P,U1,1,GND*%
%TO.N,GND*%
X102500000Y-89995000D03*
%TO.P,U1,2,VDD*%
%TO.N,+3V3*%
X102500000Y-91265000D03*
%TO.P,U1,3,EN*%
%TO.N,/esp_en*%
X102500000Y-92535000D03*
%TO.P,U1,4,SENSOR_VP*%
%TO.N,/batt_status*%
X102500000Y-93805000D03*
%TO.P,U1,5,SENSOR_VN*%
%TO.N,unconnected-(U1-SENSOR_VN-Pad5)*%
X102500000Y-95075000D03*
%TO.P,U1,6,IO34*%
%TO.N,unconnected-(U1-IO34-Pad6)*%
X102500000Y-96345000D03*
%TO.P,U1,7,IO35*%
%TO.N,unconnected-(U1-IO35-Pad7)*%
X102500000Y-97615000D03*
%TO.P,U1,8,IO32*%
%TO.N,unconnected-(U1-IO32-Pad8)*%
X102500000Y-98885000D03*
%TO.P,U1,9,IO33*%
%TO.N,/tempsens*%
X102500000Y-100155000D03*
%TO.P,U1,10,IO25*%
%TO.N,unconnected-(U1-IO25-Pad10)*%
X102500000Y-101425000D03*
%TO.P,U1,11,IO26*%
%TO.N,unconnected-(U1-IO26-Pad11)*%
X102500000Y-102695000D03*
%TO.P,U1,12,IO27*%
%TO.N,unconnected-(U1-IO27-Pad12)*%
X102500000Y-103965000D03*
%TO.P,U1,13,IO14*%
%TO.N,unconnected-(U1-IO14-Pad13)*%
X102500000Y-105235000D03*
%TO.P,U1,14,IO12*%
%TO.N,unconnected-(U1-IO12-Pad14)*%
X102500000Y-106505000D03*
D31*
%TO.P,U1,15,GND*%
%TO.N,GND*%
X105285000Y-107505000D03*
%TO.P,U1,16,IO13*%
%TO.N,Net-(U1-IO13)*%
X106555000Y-107505000D03*
%TO.P,U1,17,SHD/SD2*%
%TO.N,unconnected-(U1-SHD{slash}SD2-Pad17)*%
X107825000Y-107505000D03*
%TO.P,U1,18,SWP/SD3*%
%TO.N,unconnected-(U1-SWP{slash}SD3-Pad18)*%
X109095000Y-107505000D03*
%TO.P,U1,19,SCS/CMD*%
%TO.N,unconnected-(U1-SCS{slash}CMD-Pad19)*%
X110365000Y-107505000D03*
%TO.P,U1,20,SCK/CLK*%
%TO.N,unconnected-(U1-SCK{slash}CLK-Pad20)*%
X111635000Y-107505000D03*
%TO.P,U1,21,SDO/SD0*%
%TO.N,unconnected-(U1-SDO{slash}SD0-Pad21)*%
X112905000Y-107505000D03*
%TO.P,U1,22,SDI/SD1*%
%TO.N,unconnected-(U1-SDI{slash}SD1-Pad22)*%
X114175000Y-107505000D03*
%TO.P,U1,23,IO15*%
%TO.N,unconnected-(U1-IO15-Pad23)*%
X115445000Y-107505000D03*
%TO.P,U1,24,IO2*%
%TO.N,unconnected-(U1-IO2-Pad24)*%
X116715000Y-107505000D03*
D30*
%TO.P,U1,25,IO0*%
%TO.N,/boot*%
X119500000Y-106505000D03*
%TO.P,U1,26,IO4*%
%TO.N,/relay_1*%
X119500000Y-105235000D03*
%TO.P,U1,27,IO16*%
%TO.N,/relay_2*%
X119500000Y-103965000D03*
%TO.P,U1,28,IO17*%
%TO.N,Net-(SW1-A)*%
X119500000Y-102695000D03*
%TO.P,U1,29,IO5*%
%TO.N,unconnected-(U1-IO5-Pad29)*%
X119500000Y-101425000D03*
%TO.P,U1,30,IO18*%
%TO.N,unconnected-(U1-IO18-Pad30)*%
X119500000Y-100155000D03*
%TO.P,U1,31,IO19*%
%TO.N,unconnected-(U1-IO19-Pad31)*%
X119500000Y-98885000D03*
%TO.P,U1,32,NC*%
%TO.N,unconnected-(U1-NC-Pad32)*%
X119500000Y-97615000D03*
%TO.P,U1,33,IO21*%
%TO.N,unconnected-(U1-IO21-Pad33)*%
X119500000Y-96345000D03*
%TO.P,U1,34,RXD0/IO3*%
%TO.N,/rx*%
X119500000Y-95075000D03*
%TO.P,U1,35,TXD0/IO1*%
%TO.N,/tx*%
X119500000Y-93805000D03*
%TO.P,U1,36,IO22*%
%TO.N,unconnected-(U1-IO22-Pad36)*%
X119500000Y-92535000D03*
%TO.P,U1,37,IO23*%
%TO.N,unconnected-(U1-IO23-Pad37)*%
X119500000Y-91265000D03*
%TO.P,U1,38,GND*%
%TO.N,GND*%
X119500000Y-89995000D03*
D32*
%TO.P,U1,39,GND*%
X110000000Y-97495000D03*
%TD*%
D22*
%TO.P,C2,1*%
%TO.N,+3V3*%
X99000000Y-92162500D03*
%TO.P,C2,2*%
%TO.N,GND*%
X99000000Y-90262500D03*
%TD*%
D12*
%TO.P,R10,1*%
%TO.N,GND*%
X155487500Y-107400000D03*
%TO.P,R10,2*%
%TO.N,/relay_1*%
X157312500Y-107400000D03*
%TD*%
D13*
%TO.P,C10,1*%
%TO.N,+3V3*%
X83500000Y-97800000D03*
%TO.P,C10,2*%
%TO.N,Net-(IC2-FB)*%
X83500000Y-99700000D03*
%TD*%
D33*
%TO.P,IC1,1,VIN*%
%TO.N,+5V*%
X78000000Y-111500000D03*
%TO.P,IC1,2,STATB*%
%TO.N,Net-(D2-K)*%
X78000000Y-112000000D03*
%TO.P,IC1,3,GND*%
%TO.N,GND*%
X78000000Y-112500000D03*
%TO.P,IC1,4,IPRGM*%
%TO.N,Net-(IC1-IPRGM)*%
X80000000Y-112500000D03*
%TO.P,IC1,5,BAT*%
%TO.N,+BATT*%
X80000000Y-112000000D03*
%TO.P,IC1,6,ENB*%
%TO.N,GND*%
X80000000Y-111500000D03*
D34*
%TO.P,IC1,7,EP*%
X79000000Y-112000000D03*
%TD*%
D13*
%TO.P,C1,1*%
%TO.N,+5V*%
X76000000Y-111050000D03*
%TO.P,C1,2*%
%TO.N,GND*%
X76000000Y-112950000D03*
%TD*%
D20*
%TO.P,C11,1*%
%TO.N,+3V3*%
X80350000Y-90150000D03*
%TO.P,C11,2*%
%TO.N,GND*%
X78450000Y-90150000D03*
%TD*%
D35*
%TO.P,D2,1,K*%
%TO.N,Net-(D2-K)*%
X70250000Y-104825000D03*
%TO.P,D2,2,A*%
%TO.N,Net-(D2-A)*%
X70250000Y-102950000D03*
%TD*%
D21*
%TO.P,R1,1*%
%TO.N,GND*%
X84250000Y-114912500D03*
%TO.P,R1,2*%
%TO.N,Net-(IC1-IPRGM)*%
X84250000Y-113087500D03*
%TD*%
D20*
%TO.P,C8,1*%
%TO.N,+3V3*%
X93450000Y-102500000D03*
%TO.P,C8,2*%
%TO.N,GND*%
X91550000Y-102500000D03*
%TD*%
D35*
%TO.P,D1,1,K*%
%TO.N,GND*%
X70250000Y-100787500D03*
%TO.P,D1,2,A*%
%TO.N,Net-(D1-A)*%
X70250000Y-98912500D03*
%TD*%
D20*
%TO.P,C9,1*%
%TO.N,+3V3*%
X93450000Y-100250000D03*
%TO.P,C9,2*%
%TO.N,GND*%
X91550000Y-100250000D03*
%TD*%
D17*
%TO.P,R5,1*%
%TO.N,Net-(D1-A)*%
X72400000Y-98975000D03*
%TO.P,R5,2*%
%TO.N,Net-(U1-IO13)*%
X72400000Y-100800000D03*
%TD*%
D21*
%TO.P,R11,1*%
%TO.N,/pw_en*%
X89500000Y-99662500D03*
%TO.P,R11,2*%
%TO.N,GND*%
X89500000Y-97837500D03*
%TD*%
D17*
%TO.P,R4,1*%
%TO.N,Net-(D2-A)*%
X72400000Y-102975000D03*
%TO.P,R4,2*%
%TO.N,+5V*%
X72400000Y-104800000D03*
%TD*%
D20*
%TO.P,C7,1*%
%TO.N,+3V3*%
X93450000Y-98000000D03*
%TO.P,C7,2*%
%TO.N,GND*%
X91550000Y-98000000D03*
%TD*%
D12*
%TO.P,R3,1*%
%TO.N,GND*%
X97337500Y-98612500D03*
%TO.P,R3,2*%
%TO.N,/batt_status*%
X99162500Y-98612500D03*
%TD*%
D36*
%TO.P,BT1,1,-*%
%TO.N,GND*%
X149855000Y-106600000D03*
%TO.P,BT1,2,+*%
%TO.N,+BATT*%
X76955000Y-106600000D03*
%TD*%
D37*
%TO.P,J3,1,Pin_1*%
%TO.N,Net-(J3-Pin_1)*%
X157500000Y-84495000D03*
D38*
%TO.P,J3,2,Pin_2*%
%TO.N,Net-(J3-Pin_2)*%
X162500000Y-84495000D03*
%TD*%
D39*
%TO.P,K1,1,COIL-_1*%
%TO.N,Net-(K1-COIL-_1)*%
X156450000Y-115000000D03*
%TO.P,K1,3,NO*%
%TO.N,Net-(J3-Pin_1)*%
X156450000Y-94000000D03*
%TO.P,K1,5,COM*%
%TO.N,Net-(J3-Pin_2)*%
X163950000Y-97500000D03*
%TO.P,K1,6,COIL-_2*%
%TO.N,Net-(K1-COIL-_2)*%
X163950000Y-115000000D03*
%TO.P,K1,7,COIL+*%
%TO.N,+3V3*%
X160200000Y-115000000D03*
%TD*%
D40*
%TO.P,SW1,*%
%TO.N,*%
X95000000Y-93000000D03*
X87990000Y-93000000D03*
D41*
%TO.P,SW1,1,A*%
%TO.N,Net-(SW1-A)*%
X93750000Y-90510000D03*
%TO.P,SW1,2,B*%
%TO.N,GND*%
X89250000Y-90510000D03*
%TD*%
D42*
%TO.P,J2,1,Pin_1*%
%TO.N,+3V3*%
X122975000Y-90725000D03*
D43*
%TO.P,J2,2,Pin_2*%
%TO.N,/rx*%
X122975000Y-93265000D03*
%TO.P,J2,3,Pin_3*%
%TO.N,/tx*%
X125515000Y-90725000D03*
%TO.P,J2,4,Pin_4*%
%TO.N,/boot*%
X125515000Y-93265000D03*
%TO.P,J2,5,Pin_5*%
%TO.N,GND*%
X128055000Y-90725000D03*
%TO.P,J2,6,Pin_6*%
%TO.N,/esp_en*%
X128055000Y-93265000D03*
%TD*%
D44*
%TO.N,GND*%
X100000000Y-112500000D03*
X97500000Y-107500000D03*
X80000000Y-107500000D03*
X115000000Y-105000000D03*
X92500000Y-112500000D03*
X108000000Y-95500000D03*
X80000000Y-110500000D03*
X108000000Y-97500000D03*
X111000000Y-96500000D03*
X112000000Y-97500000D03*
X110000000Y-95500000D03*
X79000000Y-110500000D03*
X78000000Y-110500000D03*
X87500000Y-112500000D03*
X80000000Y-95000000D03*
X112500000Y-102500000D03*
X110000000Y-99500000D03*
X87500000Y-110000000D03*
X107500000Y-102500000D03*
X85000000Y-110000000D03*
X80000000Y-100000000D03*
X109000000Y-98500000D03*
X108000000Y-99500000D03*
X80000000Y-113500000D03*
X112500000Y-105000000D03*
X79000000Y-111500000D03*
X78000000Y-113500000D03*
X110000000Y-102500000D03*
X90000000Y-112500000D03*
X97500000Y-110000000D03*
X109000000Y-96500000D03*
X100000000Y-110000000D03*
X80000000Y-97500000D03*
X79000000Y-112500000D03*
X112000000Y-95500000D03*
X79000000Y-113500000D03*
X102500000Y-112500000D03*
X111000000Y-98500000D03*
X110000000Y-105000000D03*
X110000000Y-97500000D03*
X112000000Y-99500000D03*
%TO.N,+3V3*%
X93400000Y-96600000D03*
X120000000Y-108000000D03*
X84500000Y-97800000D03*
%TO.N,+BATT*%
X74500000Y-91000000D03*
X97000000Y-102500000D03*
%TO.N,/esp_en*%
X115500000Y-90500000D03*
X121500000Y-96000000D03*
%TO.N,/boot*%
X121500000Y-106500000D03*
%TO.N,Net-(U1-IO13)*%
X79000000Y-103500000D03*
X106600000Y-105100000D03*
%TO.N,/tempsens*%
X104650000Y-95700000D03*
X79800000Y-80700000D03*
%TO.N,Net-(D2-K)*%
X70250000Y-106500000D03*
X77098459Y-112199500D03*
%TO.N,Net-(SW1-A)*%
X115000000Y-93500000D03*
%TD*%
D45*
%TO.N,GND*%
X74385000Y-80345000D02*
X72525000Y-80345000D01*
X75000000Y-80960000D02*
X74385000Y-80345000D01*
%TO.N,/tempsens*%
X76555000Y-80345000D02*
X77475000Y-80345000D01*
X76100000Y-81600000D02*
X76100000Y-80800000D01*
X75000000Y-82230000D02*
X75470000Y-82230000D01*
X75470000Y-82230000D02*
X76100000Y-81600000D01*
X76100000Y-80800000D02*
X76555000Y-80345000D01*
%TO.N,+3V3*%
X76785000Y-81615000D02*
X77475000Y-81615000D01*
X76200000Y-82200000D02*
X76785000Y-81615000D01*
X76200000Y-83200000D02*
X76200000Y-82200000D01*
X75900000Y-83500000D02*
X76200000Y-83200000D01*
X75000000Y-83500000D02*
X75900000Y-83500000D01*
D46*
%TO.N,GND*%
X70405000Y-80345000D02*
X69500000Y-81250000D01*
X69500000Y-81250000D02*
X69500000Y-88500000D01*
X72525000Y-80345000D02*
X70405000Y-80345000D01*
D47*
%TO.N,+3V3*%
X93450000Y-106050000D02*
X93450000Y-102500000D01*
X80350000Y-92850000D02*
X80350000Y-90150000D01*
X93450000Y-102500000D02*
X93450000Y-100250000D01*
D46*
X121500000Y-117500000D02*
X159500000Y-117500000D01*
X94600000Y-96600000D02*
X95500000Y-97500000D01*
D47*
X78815000Y-81615000D02*
X77475000Y-81615000D01*
D46*
X120000000Y-116500000D02*
X119000000Y-117500000D01*
D47*
X100087500Y-92162500D02*
X100985000Y-91265000D01*
D46*
X102000000Y-117500000D02*
X119000000Y-117500000D01*
D47*
X80350000Y-90150000D02*
X80350000Y-83150000D01*
X97337500Y-94212500D02*
X97337500Y-92562500D01*
D46*
X159500000Y-117500000D02*
X160200000Y-116800000D01*
X95500000Y-111000000D02*
X102000000Y-117500000D01*
D47*
X93450000Y-98000000D02*
X93450000Y-96650000D01*
X85462500Y-97800000D02*
X85500000Y-97837500D01*
D46*
X93400000Y-96600000D02*
X94600000Y-96600000D01*
D47*
X93080000Y-106420000D02*
X93450000Y-106050000D01*
D46*
X120000000Y-108000000D02*
X120000000Y-116500000D01*
D47*
X92500000Y-95540000D02*
X83040000Y-95540000D01*
X93450000Y-100250000D02*
X93450000Y-98000000D01*
X93400000Y-96600000D02*
X93400000Y-96440000D01*
X97737500Y-92162500D02*
X99000000Y-92162500D01*
X99000000Y-92162500D02*
X100087500Y-92162500D01*
X97337500Y-92562500D02*
X97737500Y-92162500D01*
X92435000Y-106420000D02*
X93080000Y-106420000D01*
X94950000Y-96600000D02*
X97337500Y-94212500D01*
X93450000Y-96650000D02*
X93400000Y-96600000D01*
X83500000Y-97800000D02*
X85462500Y-97800000D01*
X80350000Y-83150000D02*
X78815000Y-81615000D01*
X83040000Y-95540000D02*
X80350000Y-92850000D01*
X100985000Y-91265000D02*
X102500000Y-91265000D01*
X93400000Y-96440000D02*
X92500000Y-95540000D01*
D46*
X160200000Y-115000000D02*
X160200000Y-116800000D01*
X119000000Y-117500000D02*
X121500000Y-117500000D01*
X95500000Y-97500000D02*
X95500000Y-111000000D01*
D47*
X93400000Y-96600000D02*
X94950000Y-96600000D01*
%TO.N,+BATT*%
X82000000Y-108000000D02*
X80600000Y-106600000D01*
D46*
X80000000Y-112000000D02*
X81962500Y-112000000D01*
X74250000Y-90750000D02*
X72350000Y-90750000D01*
X87750000Y-103000000D02*
X87517500Y-103232500D01*
X97337500Y-102162500D02*
X97337500Y-100750000D01*
X74500000Y-91000000D02*
X74250000Y-90750000D01*
D47*
X84200000Y-103145000D02*
X86112500Y-103145000D01*
X82000000Y-104250000D02*
X83105000Y-103145000D01*
D46*
X81962500Y-112000000D02*
X82000000Y-111962500D01*
X88600000Y-103000000D02*
X87750000Y-103000000D01*
X97000000Y-102500000D02*
X97337500Y-102162500D01*
X87517500Y-103232500D02*
X86200000Y-103232500D01*
D47*
X82000000Y-108000000D02*
X82000000Y-104250000D01*
X83105000Y-103145000D02*
X84200000Y-103145000D01*
X82000000Y-111962500D02*
X82000000Y-108000000D01*
X86112500Y-103145000D02*
X86200000Y-103232500D01*
X80600000Y-106600000D02*
X76955000Y-106600000D01*
D46*
%TO.N,/esp_en*%
X99200000Y-94250000D02*
X99162500Y-94212500D01*
X125320000Y-96000000D02*
X121500000Y-96000000D01*
X102500000Y-92535000D02*
X113465000Y-92535000D01*
X99200000Y-96412500D02*
X99200000Y-94250000D01*
X99162500Y-94212500D02*
X99687500Y-94212500D01*
X113465000Y-92535000D02*
X115500000Y-90500000D01*
X99687500Y-94212500D02*
X101365000Y-92535000D01*
X128055000Y-93265000D02*
X125320000Y-96000000D01*
X101365000Y-92535000D02*
X102500000Y-92535000D01*
%TO.N,Net-(IC2-FB)*%
X87800000Y-100600000D02*
X87500000Y-100300000D01*
X87500000Y-99662500D02*
X85500000Y-99662500D01*
X88600000Y-101000000D02*
X88200000Y-100600000D01*
X88200000Y-100600000D02*
X87800000Y-100600000D01*
X85500000Y-99662500D02*
X83537500Y-99662500D01*
X88600000Y-101500000D02*
X88600000Y-101000000D01*
X87500000Y-100300000D02*
X87500000Y-99662500D01*
X83537500Y-99662500D02*
X83500000Y-99700000D01*
%TO.N,Net-(D1-A)*%
X72337500Y-98912500D02*
X72400000Y-98975000D01*
X70250000Y-98912500D02*
X72337500Y-98912500D01*
%TO.N,/batt_status*%
X100137500Y-98612500D02*
X100600000Y-98150000D01*
X100600000Y-94405000D02*
X101200000Y-93805000D01*
X100600000Y-98150000D02*
X100600000Y-94405000D01*
X99162500Y-98612500D02*
X99162500Y-100750000D01*
X99162500Y-98612500D02*
X100137500Y-98612500D01*
X101200000Y-93805000D02*
X102500000Y-93805000D01*
%TO.N,Net-(IC1-IPRGM)*%
X81087500Y-113087500D02*
X84250000Y-113087500D01*
X80000000Y-112500000D02*
X80500000Y-112500000D01*
X80500000Y-112500000D02*
X81087500Y-113087500D01*
%TO.N,Net-(IC2-SW)*%
X89100000Y-106100000D02*
X89420000Y-106420000D01*
X89420000Y-106420000D02*
X90065000Y-106420000D01*
X89100000Y-103000000D02*
X89100000Y-106100000D01*
%TO.N,/rx*%
X121165000Y-95075000D02*
X122975000Y-93265000D01*
X119500000Y-95075000D02*
X121165000Y-95075000D01*
%TO.N,/tx*%
X120695000Y-93805000D02*
X122500000Y-92000000D01*
X122500000Y-92000000D02*
X124240000Y-92000000D01*
X119500000Y-93805000D02*
X120695000Y-93805000D01*
X124240000Y-92000000D02*
X125515000Y-90725000D01*
%TO.N,/boot*%
X119505000Y-106500000D02*
X119500000Y-106505000D01*
X121500000Y-106500000D02*
X119505000Y-106500000D01*
D48*
%TO.N,Net-(J3-Pin_1)*%
X155105000Y-84495000D02*
X157500000Y-84495000D01*
X153200000Y-86400000D02*
X155105000Y-84495000D01*
X153200000Y-92600000D02*
X153200000Y-86400000D01*
X156450000Y-94000000D02*
X154600000Y-94000000D01*
X154600000Y-94000000D02*
X153200000Y-92600000D01*
%TO.N,Net-(J3-Pin_2)*%
X166800000Y-86400000D02*
X164895000Y-84495000D01*
X164895000Y-84495000D02*
X162500000Y-84495000D01*
X163950000Y-97500000D02*
X165500000Y-97500000D01*
X165500000Y-97500000D02*
X166800000Y-96200000D01*
X166800000Y-96200000D02*
X166800000Y-86400000D01*
D46*
%TO.N,Net-(K1-COIL-_1)*%
X156400000Y-111337500D02*
X156450000Y-111387500D01*
X156450000Y-111387500D02*
X156450000Y-115000000D01*
%TO.N,Net-(K1-COIL-_2)*%
X163950000Y-111387500D02*
X163950000Y-115000000D01*
X164000000Y-111337500D02*
X163950000Y-111387500D01*
%TO.N,Net-(U1-IO13)*%
X76500000Y-103500000D02*
X73800000Y-100800000D01*
X106600000Y-105100000D02*
X106600000Y-107460000D01*
X106600000Y-107460000D02*
X106555000Y-107505000D01*
X79000000Y-103500000D02*
X76500000Y-103500000D01*
X73800000Y-100800000D02*
X72400000Y-100800000D01*
%TO.N,/tempsens*%
X104650000Y-95700000D02*
X104650000Y-99750000D01*
X77475000Y-80345000D02*
X79445000Y-80345000D01*
X104650000Y-99750000D02*
X104245000Y-100155000D01*
X104245000Y-100155000D02*
X102500000Y-100155000D01*
X79445000Y-80345000D02*
X79800000Y-80700000D01*
%TO.N,/relay_2*%
X119500000Y-103965000D02*
X136035000Y-103965000D01*
X136035000Y-103965000D02*
X137000000Y-103000000D01*
X164912500Y-106412500D02*
X164912500Y-107400000D01*
X164950000Y-107437500D02*
X164912500Y-107400000D01*
X137000000Y-103000000D02*
X161500000Y-103000000D01*
X161500000Y-103000000D02*
X164912500Y-106412500D01*
X164950000Y-109462500D02*
X164950000Y-107437500D01*
%TO.N,/relay_1*%
X137500000Y-103500000D02*
X156000000Y-103500000D01*
X135765000Y-105235000D02*
X137500000Y-103500000D01*
X119500000Y-105235000D02*
X135765000Y-105235000D01*
X157350000Y-107437500D02*
X157350000Y-109462500D01*
X156000000Y-103500000D02*
X157312500Y-104812500D01*
X157312500Y-107400000D02*
X157350000Y-107437500D01*
X157312500Y-104812500D02*
X157312500Y-107400000D01*
%TO.N,+5V*%
X72400000Y-104800000D02*
X72400000Y-106650000D01*
X76537500Y-111500000D02*
X76000000Y-110962500D01*
X78000000Y-111500000D02*
X76537500Y-111500000D01*
X72400000Y-106650000D02*
X76000000Y-110250000D01*
X76000000Y-110250000D02*
X76000000Y-110962500D01*
D47*
X73100000Y-110900000D02*
X75937500Y-110900000D01*
X75937500Y-110900000D02*
X76000000Y-110962500D01*
D46*
%TO.N,Net-(D2-K)*%
X78000000Y-112000000D02*
X77297959Y-112000000D01*
X70250000Y-106500000D02*
X70250000Y-104825000D01*
X77297959Y-112000000D02*
X77098459Y-112199500D01*
%TO.N,Net-(D2-A)*%
X72375000Y-102950000D02*
X72400000Y-102975000D01*
X70250000Y-102950000D02*
X72375000Y-102950000D01*
%TO.N,/pw_en*%
X89500000Y-99662500D02*
X89500000Y-99000000D01*
X74150000Y-96250000D02*
X74150000Y-93450000D01*
X89500000Y-99000000D02*
X89250000Y-98750000D01*
X89500000Y-100400000D02*
X89500000Y-99662500D01*
X73700000Y-93000000D02*
X72350000Y-93000000D01*
X89250000Y-98750000D02*
X76650000Y-98750000D01*
X89100000Y-101500000D02*
X89100000Y-100800000D01*
X76650000Y-98750000D02*
X74150000Y-96250000D01*
X74150000Y-93450000D02*
X73700000Y-93000000D01*
X89100000Y-100800000D02*
X89500000Y-100400000D01*
%TO.N,Net-(SW1-A)*%
X116000000Y-101500000D02*
X117195000Y-102695000D01*
X117195000Y-102695000D02*
X119500000Y-102695000D01*
X115000000Y-93500000D02*
X116000000Y-94500000D01*
X116000000Y-94500000D02*
X116000000Y-101500000D01*
%TD*%
%TA.AperFunction,Conductor*%
%TO.N,GND*%
G36*
X70632080Y-87906407D02*
G01*
X70646721Y-87919444D01*
X70649681Y-87922659D01*
X70651101Y-87925757D01*
X70672675Y-87940863D01*
X70676697Y-87943834D01*
X70699342Y-87961459D01*
X70699611Y-87961696D01*
X70699787Y-87961804D01*
X70813697Y-88050465D01*
X70995958Y-88149100D01*
X71091207Y-88181799D01*
X71191967Y-88216390D01*
X71288260Y-88232458D01*
X71396381Y-88250500D01*
X71396382Y-88250500D01*
X78603618Y-88250500D01*
X78603619Y-88250500D01*
X78808032Y-88216390D01*
X79004042Y-88149100D01*
X79186303Y-88050465D01*
X79300200Y-87961814D01*
X79300283Y-87961784D01*
X79300610Y-87961495D01*
X79323337Y-87943806D01*
X79327336Y-87940853D01*
X79346721Y-87927279D01*
X79350323Y-87922653D01*
X79353289Y-87919432D01*
X79406619Y-87889438D01*
X79426111Y-87887500D01*
X79800500Y-87887500D01*
X79858691Y-87906407D01*
X79894655Y-87955907D01*
X79899500Y-87986500D01*
X79899500Y-89213091D01*
X79880593Y-89271282D01*
X79859288Y-89292746D01*
X79777850Y-89352850D01*
X79697207Y-89462118D01*
X79652354Y-89590301D01*
X79652353Y-89590304D01*
X79649716Y-89618422D01*
X79649715Y-89618439D01*
X79649500Y-89620734D01*
X79649500Y-90679266D01*
X79649715Y-90681561D01*
X79649716Y-90681577D01*
X79652353Y-90709695D01*
X79652353Y-90709697D01*
X79652354Y-90709699D01*
X79697207Y-90837882D01*
X79777850Y-90947150D01*
X79823641Y-90980945D01*
X79859288Y-91007254D01*
X79894881Y-91057022D01*
X79899500Y-91086909D01*
X79899500Y-92819136D01*
X79898878Y-92830219D01*
X79894730Y-92867037D01*
X79905444Y-92923664D01*
X79906064Y-92927312D01*
X79915168Y-92987710D01*
X79918363Y-92997420D01*
X79946905Y-93051424D01*
X79948574Y-93054728D01*
X79975075Y-93109757D01*
X79980993Y-93118097D01*
X80024200Y-93161305D01*
X80026769Y-93163972D01*
X80068299Y-93208731D01*
X80082601Y-93219705D01*
X82699632Y-95836736D01*
X82707029Y-95845014D01*
X82730120Y-95873970D01*
X82747098Y-95885545D01*
X82777750Y-95906443D01*
X82780753Y-95908574D01*
X82829904Y-95944849D01*
X82839024Y-95949453D01*
X82842326Y-95950471D01*
X82842327Y-95950472D01*
X82897441Y-95967472D01*
X82900881Y-95968603D01*
X82955300Y-95987646D01*
X82955303Y-95987646D01*
X82958570Y-95988789D01*
X82968637Y-95990500D01*
X82972098Y-95990500D01*
X83029715Y-95990500D01*
X83033417Y-95990569D01*
X83091010Y-95992724D01*
X83091011Y-95992723D01*
X83094467Y-95992853D01*
X83112345Y-95990500D01*
X92272388Y-95990500D01*
X92330579Y-96009407D01*
X92342391Y-96019496D01*
X92774753Y-96451857D01*
X92802531Y-96506374D01*
X92802903Y-96534782D01*
X92796287Y-96585044D01*
X92794318Y-96600000D01*
X92798995Y-96635528D01*
X92814955Y-96756761D01*
X92875464Y-96902841D01*
X92961894Y-97015479D01*
X92982318Y-97073155D01*
X92964940Y-97131820D01*
X92942141Y-97155401D01*
X92905381Y-97182531D01*
X92883601Y-97198606D01*
X92877849Y-97202851D01*
X92810936Y-97293516D01*
X92797207Y-97312118D01*
X92771838Y-97384619D01*
X92752353Y-97440304D01*
X92749716Y-97468422D01*
X92749715Y-97468439D01*
X92749500Y-97470734D01*
X92749500Y-98529266D01*
X92749715Y-98531561D01*
X92749716Y-98531577D01*
X92752353Y-98559695D01*
X92752353Y-98559697D01*
X92752354Y-98559699D01*
X92797207Y-98687882D01*
X92877850Y-98797150D01*
X92932836Y-98837731D01*
X92959288Y-98857254D01*
X92994881Y-98907022D01*
X92999500Y-98936909D01*
X92999500Y-99313091D01*
X92980593Y-99371282D01*
X92959288Y-99392746D01*
X92877850Y-99452850D01*
X92798440Y-99560448D01*
X92797207Y-99562118D01*
X92765148Y-99653737D01*
X92752353Y-99690304D01*
X92749716Y-99718422D01*
X92749715Y-99718439D01*
X92749500Y-99720734D01*
X92749500Y-100779266D01*
X92749715Y-100781561D01*
X92749716Y-100781577D01*
X92752353Y-100809695D01*
X92752353Y-100809697D01*
X92752354Y-100809699D01*
X92797207Y-100937882D01*
X92877850Y-101047150D01*
X92937770Y-101091373D01*
X92959288Y-101107254D01*
X92994881Y-101157022D01*
X92999500Y-101186909D01*
X92999500Y-101563091D01*
X92980593Y-101621282D01*
X92959288Y-101642746D01*
X92877850Y-101702850D01*
X92799355Y-101809208D01*
X92797207Y-101812118D01*
X92765279Y-101903363D01*
X92752353Y-101940304D01*
X92749716Y-101968422D01*
X92749715Y-101968439D01*
X92749500Y-101970734D01*
X92749500Y-103029266D01*
X92749715Y-103031561D01*
X92749716Y-103031577D01*
X92752353Y-103059695D01*
X92752353Y-103059697D01*
X92752354Y-103059699D01*
X92797207Y-103187882D01*
X92877850Y-103297150D01*
X92927627Y-103333887D01*
X92959288Y-103357254D01*
X92994881Y-103407022D01*
X92999500Y-103436909D01*
X92999500Y-104270500D01*
X92980593Y-104328691D01*
X92931093Y-104364655D01*
X92900500Y-104369500D01*
X91925252Y-104369500D01*
X91896010Y-104375316D01*
X91866768Y-104381133D01*
X91800447Y-104425447D01*
X91756133Y-104491768D01*
X91755842Y-104493231D01*
X91744500Y-104550252D01*
X91744500Y-108289748D01*
X91751209Y-108323476D01*
X91756133Y-108348231D01*
X91800447Y-108414552D01*
X91820996Y-108428282D01*
X91866769Y-108458867D01*
X91925252Y-108470500D01*
X91925253Y-108470500D01*
X92944747Y-108470500D01*
X92944748Y-108470500D01*
X93003231Y-108458867D01*
X93069552Y-108414552D01*
X93113867Y-108348231D01*
X93125500Y-108289748D01*
X93125499Y-106953926D01*
X93144407Y-106895735D01*
X93193907Y-106859771D01*
X93209743Y-106856032D01*
X93214287Y-106855348D01*
X93214289Y-106855346D01*
X93217724Y-106854829D01*
X93227404Y-106851644D01*
X93230470Y-106850023D01*
X93230472Y-106850023D01*
X93281444Y-106823082D01*
X93284728Y-106821424D01*
X93336642Y-106796425D01*
X93336643Y-106796423D01*
X93339762Y-106794922D01*
X93348088Y-106789014D01*
X93350533Y-106786568D01*
X93350538Y-106786566D01*
X93391315Y-106745787D01*
X93393926Y-106743272D01*
X93436194Y-106704055D01*
X93436195Y-106704052D01*
X93438730Y-106701701D01*
X93449704Y-106687398D01*
X93746738Y-106390363D01*
X93754988Y-106382990D01*
X93783970Y-106359879D01*
X93787706Y-106354399D01*
X93816442Y-106312251D01*
X93818559Y-106309265D01*
X93852793Y-106262882D01*
X93852793Y-106262879D01*
X93854857Y-106260084D01*
X93859450Y-106250985D01*
X93860471Y-106247674D01*
X93860472Y-106247673D01*
X93877482Y-106192522D01*
X93878590Y-106189154D01*
X93897646Y-106134699D01*
X93897646Y-106134693D01*
X93898790Y-106131425D01*
X93900500Y-106121364D01*
X93900500Y-106060284D01*
X93900569Y-106056582D01*
X93902344Y-106009145D01*
X93902724Y-105998990D01*
X93902723Y-105998989D01*
X93902853Y-105995534D01*
X93900500Y-105977657D01*
X93900500Y-103436909D01*
X93919407Y-103378718D01*
X93940712Y-103357254D01*
X93954656Y-103346962D01*
X94022150Y-103297150D01*
X94102793Y-103187882D01*
X94147646Y-103059699D01*
X94150500Y-103029266D01*
X94150500Y-101970734D01*
X94147646Y-101940301D01*
X94102793Y-101812118D01*
X94022150Y-101702850D01*
X93947351Y-101647646D01*
X93940712Y-101642746D01*
X93905119Y-101592978D01*
X93900500Y-101563091D01*
X93900500Y-101186909D01*
X93919407Y-101128718D01*
X93940712Y-101107254D01*
X93954656Y-101096962D01*
X94022150Y-101047150D01*
X94102793Y-100937882D01*
X94147646Y-100809699D01*
X94150500Y-100779266D01*
X94150500Y-99720734D01*
X94147646Y-99690301D01*
X94102793Y-99562118D01*
X94022150Y-99452850D01*
X93952028Y-99401098D01*
X93940712Y-99392746D01*
X93905119Y-99342978D01*
X93900500Y-99313091D01*
X93900500Y-98936909D01*
X93919407Y-98878718D01*
X93940712Y-98857254D01*
X93954656Y-98846962D01*
X94022150Y-98797150D01*
X94102793Y-98687882D01*
X94147646Y-98559699D01*
X94150500Y-98529266D01*
X94150500Y-97470734D01*
X94147646Y-97440301D01*
X94102793Y-97312118D01*
X94026162Y-97208287D01*
X94006821Y-97150241D01*
X94025292Y-97091910D01*
X94074522Y-97055577D01*
X94105818Y-97050500D01*
X94513810Y-97050500D01*
X94572001Y-97069407D01*
X94583814Y-97079496D01*
X95120504Y-97616185D01*
X95148281Y-97670702D01*
X95149500Y-97686189D01*
X95149500Y-110953381D01*
X95147393Y-110973696D01*
X95144957Y-110985313D01*
X95148740Y-111015661D01*
X95149500Y-111027907D01*
X95149500Y-111029041D01*
X95152751Y-111048528D01*
X95153340Y-111052572D01*
X95160101Y-111106804D01*
X95161312Y-111110585D01*
X95187322Y-111158646D01*
X95189195Y-111162285D01*
X95213198Y-111211385D01*
X95215568Y-111214564D01*
X95255764Y-111251567D01*
X95258717Y-111254399D01*
X101719198Y-117714880D01*
X101732070Y-117730732D01*
X101738563Y-117740669D01*
X101757800Y-117755641D01*
X101762689Y-117759447D01*
X101771880Y-117767563D01*
X101772688Y-117768371D01*
X101772691Y-117768373D01*
X101772693Y-117768375D01*
X101788768Y-117779852D01*
X101792038Y-117782290D01*
X101801938Y-117789995D01*
X101829829Y-117811704D01*
X101835186Y-117815873D01*
X101838697Y-117817680D01*
X101843932Y-117819238D01*
X101843934Y-117819240D01*
X101891067Y-117833272D01*
X101894963Y-117834520D01*
X101910624Y-117839896D01*
X101941512Y-117850500D01*
X101941514Y-117850500D01*
X101946673Y-117852271D01*
X101950591Y-117852842D01*
X101956044Y-117852616D01*
X101956046Y-117852617D01*
X102005176Y-117850584D01*
X102009267Y-117850500D01*
X118941512Y-117850500D01*
X118953381Y-117850500D01*
X118973697Y-117852607D01*
X118985315Y-117855043D01*
X119013393Y-117851542D01*
X119015663Y-117851260D01*
X119027908Y-117850500D01*
X121441512Y-117850500D01*
X159453381Y-117850500D01*
X159473697Y-117852607D01*
X159485315Y-117855043D01*
X159513393Y-117851542D01*
X159515663Y-117851260D01*
X159527908Y-117850500D01*
X159529042Y-117850500D01*
X159548521Y-117847249D01*
X159552545Y-117846661D01*
X159601393Y-117840573D01*
X159601393Y-117840572D01*
X159606822Y-117839896D01*
X159610572Y-117838694D01*
X159615379Y-117836092D01*
X159615381Y-117836092D01*
X159658655Y-117812671D01*
X159662259Y-117810816D01*
X159706484Y-117789198D01*
X159706485Y-117789196D01*
X159711398Y-117786795D01*
X159714550Y-117784444D01*
X159718254Y-117780420D01*
X159718258Y-117780418D01*
X159751602Y-117744195D01*
X159754364Y-117741316D01*
X160414884Y-117080796D01*
X160430734Y-117067926D01*
X160440669Y-117061437D01*
X160459450Y-117037305D01*
X160467570Y-117028111D01*
X160468375Y-117027307D01*
X160479874Y-117011200D01*
X160482291Y-117007960D01*
X160515880Y-116964805D01*
X160517675Y-116961318D01*
X160519237Y-116956068D01*
X160519239Y-116956067D01*
X160533286Y-116908882D01*
X160534512Y-116905055D01*
X160550500Y-116858488D01*
X160550500Y-116858484D01*
X160552272Y-116853323D01*
X160552842Y-116849412D01*
X160552616Y-116843955D01*
X160552617Y-116843954D01*
X160550585Y-116794823D01*
X160550500Y-116790732D01*
X160550500Y-116192659D01*
X160569407Y-116134468D01*
X160613735Y-116100345D01*
X160726210Y-116056772D01*
X160911432Y-115942088D01*
X161072427Y-115795322D01*
X161203712Y-115621472D01*
X161300817Y-115426459D01*
X161360435Y-115216923D01*
X161380536Y-115000000D01*
X162769464Y-115000000D01*
X162789565Y-115216922D01*
X162849184Y-115426461D01*
X162946286Y-115621469D01*
X162946287Y-115621470D01*
X162946288Y-115621472D01*
X163077573Y-115795322D01*
X163238568Y-115942088D01*
X163423790Y-116056772D01*
X163599500Y-116124843D01*
X163626934Y-116135471D01*
X163841072Y-116175500D01*
X163841074Y-116175500D01*
X164058928Y-116175500D01*
X164273065Y-116135471D01*
X164273066Y-116135470D01*
X164273069Y-116135470D01*
X164476210Y-116056772D01*
X164661432Y-115942088D01*
X164822427Y-115795322D01*
X164953712Y-115621472D01*
X165050817Y-115426459D01*
X165110435Y-115216923D01*
X165130536Y-115000000D01*
X165110435Y-114783077D01*
X165050817Y-114573541D01*
X164953712Y-114378528D01*
X164822427Y-114204678D01*
X164661432Y-114057912D01*
X164476210Y-113943228D01*
X164363734Y-113899653D01*
X164316306Y-113861003D01*
X164300500Y-113807340D01*
X164300500Y-112303365D01*
X164319407Y-112245174D01*
X164356019Y-112214424D01*
X164356483Y-112214198D01*
X164439198Y-112131483D01*
X164490573Y-112026393D01*
X164500500Y-111958260D01*
X164500500Y-110716740D01*
X164490573Y-110648607D01*
X164439198Y-110543517D01*
X164356483Y-110460802D01*
X164251393Y-110409427D01*
X164183260Y-110399500D01*
X163816740Y-110399500D01*
X163765640Y-110406945D01*
X163748606Y-110409427D01*
X163643518Y-110460801D01*
X163560801Y-110543518D01*
X163522547Y-110621769D01*
X163509427Y-110648607D01*
X163499500Y-110716740D01*
X163499500Y-111958260D01*
X163509427Y-112026393D01*
X163560802Y-112131483D01*
X163570505Y-112141186D01*
X163598281Y-112195701D01*
X163599500Y-112211188D01*
X163599500Y-113807340D01*
X163580593Y-113865531D01*
X163536265Y-113899653D01*
X163423789Y-113943227D01*
X163423790Y-113943228D01*
X163238566Y-114057913D01*
X163077574Y-114204677D01*
X162946286Y-114378530D01*
X162849184Y-114573538D01*
X162789565Y-114783077D01*
X162769464Y-115000000D01*
X161380536Y-115000000D01*
X161360435Y-114783077D01*
X161300817Y-114573541D01*
X161203712Y-114378528D01*
X161072427Y-114204678D01*
X160911432Y-114057912D01*
X160726210Y-113943228D01*
X160726208Y-113943227D01*
X160523065Y-113864528D01*
X160308928Y-113824500D01*
X160308926Y-113824500D01*
X160091074Y-113824500D01*
X160091072Y-113824500D01*
X159876934Y-113864528D01*
X159673791Y-113943227D01*
X159488566Y-114057913D01*
X159327574Y-114204677D01*
X159196286Y-114378530D01*
X159099184Y-114573538D01*
X159039565Y-114783077D01*
X159019464Y-114999999D01*
X159039565Y-115216922D01*
X159099184Y-115426461D01*
X159196286Y-115621469D01*
X159196287Y-115621470D01*
X159196288Y-115621472D01*
X159327573Y-115795322D01*
X159488568Y-115942088D01*
X159673790Y-116056772D01*
X159786264Y-116100345D01*
X159833694Y-116138996D01*
X159849500Y-116192659D01*
X159849500Y-116613809D01*
X159830593Y-116672000D01*
X159820504Y-116683812D01*
X159383814Y-117120503D01*
X159329297Y-117148281D01*
X159313810Y-117149500D01*
X120085189Y-117149500D01*
X120026998Y-117130593D01*
X119991034Y-117081093D01*
X119991034Y-117019907D01*
X120015185Y-116980497D01*
X120151727Y-116843954D01*
X120214881Y-116780799D01*
X120230732Y-116767928D01*
X120240669Y-116761437D01*
X120259444Y-116737313D01*
X120267576Y-116728106D01*
X120268375Y-116727307D01*
X120268376Y-116727306D01*
X120279887Y-116711182D01*
X120282280Y-116707973D01*
X120312517Y-116669126D01*
X120312518Y-116669122D01*
X120315878Y-116664806D01*
X120317679Y-116661306D01*
X120319238Y-116656068D01*
X120319240Y-116656066D01*
X120333285Y-116608884D01*
X120334512Y-116605054D01*
X120350500Y-116558488D01*
X120350500Y-116558484D01*
X120352272Y-116553323D01*
X120352843Y-116549410D01*
X120350585Y-116494813D01*
X120350500Y-116490722D01*
X120350500Y-115000000D01*
X155269464Y-115000000D01*
X155289565Y-115216922D01*
X155349184Y-115426461D01*
X155446286Y-115621469D01*
X155446287Y-115621470D01*
X155446288Y-115621472D01*
X155577573Y-115795322D01*
X155738568Y-115942088D01*
X155923790Y-116056772D01*
X156099500Y-116124843D01*
X156126934Y-116135471D01*
X156341072Y-116175500D01*
X156341074Y-116175500D01*
X156558928Y-116175500D01*
X156773065Y-116135471D01*
X156773066Y-116135470D01*
X156773069Y-116135470D01*
X156976210Y-116056772D01*
X157161432Y-115942088D01*
X157322427Y-115795322D01*
X157453712Y-115621472D01*
X157550817Y-115426459D01*
X157610435Y-115216923D01*
X157630536Y-115000000D01*
X157610435Y-114783077D01*
X157550817Y-114573541D01*
X157453712Y-114378528D01*
X157322427Y-114204678D01*
X157161432Y-114057912D01*
X156976210Y-113943228D01*
X156863734Y-113899653D01*
X156816306Y-113861003D01*
X156800500Y-113807340D01*
X156800500Y-112211188D01*
X156819407Y-112152997D01*
X156829490Y-112141190D01*
X156839198Y-112131483D01*
X156890573Y-112026393D01*
X156900500Y-111958260D01*
X156900500Y-110716740D01*
X156890573Y-110648607D01*
X156839198Y-110543517D01*
X156756483Y-110460802D01*
X156651393Y-110409427D01*
X156583260Y-110399500D01*
X156216740Y-110399500D01*
X156165640Y-110406945D01*
X156148606Y-110409427D01*
X156043518Y-110460801D01*
X155960801Y-110543518D01*
X155922547Y-110621769D01*
X155909427Y-110648607D01*
X155899500Y-110716740D01*
X155899500Y-111958260D01*
X155909427Y-112026393D01*
X155960802Y-112131483D01*
X156043517Y-112214198D01*
X156043980Y-112214424D01*
X156087954Y-112256967D01*
X156099500Y-112303365D01*
X156099500Y-113807340D01*
X156080593Y-113865531D01*
X156036265Y-113899653D01*
X155923790Y-113943227D01*
X155923790Y-113943228D01*
X155738566Y-114057913D01*
X155577574Y-114204677D01*
X155446286Y-114378530D01*
X155349184Y-114573538D01*
X155289565Y-114783077D01*
X155269464Y-115000000D01*
X120350500Y-115000000D01*
X120350500Y-108536787D01*
X120369407Y-108478596D01*
X120389232Y-108458245D01*
X120428282Y-108428282D01*
X120524536Y-108302841D01*
X120585044Y-108156762D01*
X120605682Y-108000000D01*
X120585044Y-107843238D01*
X120524536Y-107697159D01*
X120502139Y-107667970D01*
X120428282Y-107571717D01*
X120302841Y-107475464D01*
X120156761Y-107414955D01*
X120000000Y-107394318D01*
X119843238Y-107414955D01*
X119697158Y-107475464D01*
X119571717Y-107571717D01*
X119475464Y-107697158D01*
X119414955Y-107843238D01*
X119394318Y-108000000D01*
X119414955Y-108156761D01*
X119475464Y-108302841D01*
X119571716Y-108428281D01*
X119581355Y-108435677D01*
X119610766Y-108458244D01*
X119645423Y-108508668D01*
X119649500Y-108536787D01*
X119649500Y-116313810D01*
X119630593Y-116372001D01*
X119620504Y-116383814D01*
X118883814Y-117120504D01*
X118829297Y-117148281D01*
X118813810Y-117149500D01*
X102186190Y-117149500D01*
X102127999Y-117130593D01*
X102116186Y-117120504D01*
X95879496Y-110883813D01*
X95851719Y-110829296D01*
X95850500Y-110813809D01*
X95850500Y-108524748D01*
X105904500Y-108524748D01*
X105907298Y-108538812D01*
X105916133Y-108583231D01*
X105960447Y-108649552D01*
X105988832Y-108668518D01*
X106026769Y-108693867D01*
X106085252Y-108705500D01*
X106085253Y-108705500D01*
X107024747Y-108705500D01*
X107024748Y-108705500D01*
X107083231Y-108693867D01*
X107134997Y-108659277D01*
X107193886Y-108642668D01*
X107245002Y-108659277D01*
X107296769Y-108693867D01*
X107355252Y-108705500D01*
X107355253Y-108705500D01*
X108294747Y-108705500D01*
X108294748Y-108705500D01*
X108353231Y-108693867D01*
X108404997Y-108659277D01*
X108463886Y-108642668D01*
X108515002Y-108659277D01*
X108566769Y-108693867D01*
X108625252Y-108705500D01*
X108625253Y-108705500D01*
X109564747Y-108705500D01*
X109564748Y-108705500D01*
X109623231Y-108693867D01*
X109674997Y-108659277D01*
X109733886Y-108642668D01*
X109785002Y-108659277D01*
X109836769Y-108693867D01*
X109895252Y-108705500D01*
X109895253Y-108705500D01*
X110834747Y-108705500D01*
X110834748Y-108705500D01*
X110893231Y-108693867D01*
X110944997Y-108659277D01*
X111003886Y-108642668D01*
X111055002Y-108659277D01*
X111106769Y-108693867D01*
X111165252Y-108705500D01*
X111165253Y-108705500D01*
X112104747Y-108705500D01*
X112104748Y-108705500D01*
X112163231Y-108693867D01*
X112214997Y-108659277D01*
X112273886Y-108642668D01*
X112325002Y-108659277D01*
X112376769Y-108693867D01*
X112435252Y-108705500D01*
X112435253Y-108705500D01*
X113374747Y-108705500D01*
X113374748Y-108705500D01*
X113433231Y-108693867D01*
X113484997Y-108659277D01*
X113543886Y-108642668D01*
X113595002Y-108659277D01*
X113646769Y-108693867D01*
X113705252Y-108705500D01*
X113705253Y-108705500D01*
X114644747Y-108705500D01*
X114644748Y-108705500D01*
X114703231Y-108693867D01*
X114754997Y-108659277D01*
X114813886Y-108642668D01*
X114865002Y-108659277D01*
X114916769Y-108693867D01*
X114975252Y-108705500D01*
X114975253Y-108705500D01*
X115914747Y-108705500D01*
X115914748Y-108705500D01*
X115973231Y-108693867D01*
X116024997Y-108659277D01*
X116083886Y-108642668D01*
X116135002Y-108659277D01*
X116186769Y-108693867D01*
X116245252Y-108705500D01*
X116245253Y-108705500D01*
X117184747Y-108705500D01*
X117184748Y-108705500D01*
X117243231Y-108693867D01*
X117309552Y-108649552D01*
X117353867Y-108583231D01*
X117365500Y-108524748D01*
X117365500Y-106485252D01*
X117353867Y-106426769D01*
X117339162Y-106404761D01*
X117309552Y-106360447D01*
X117243231Y-106316133D01*
X117223715Y-106312251D01*
X117184748Y-106304500D01*
X116245252Y-106304500D01*
X116239310Y-106305682D01*
X116186768Y-106316133D01*
X116135001Y-106350723D01*
X116076113Y-106367331D01*
X116024999Y-106350723D01*
X115973231Y-106316133D01*
X115953715Y-106312251D01*
X115914748Y-106304500D01*
X114975252Y-106304500D01*
X114969310Y-106305682D01*
X114916768Y-106316133D01*
X114865001Y-106350723D01*
X114806113Y-106367331D01*
X114754999Y-106350723D01*
X114703231Y-106316133D01*
X114683715Y-106312251D01*
X114644748Y-106304500D01*
X113705252Y-106304500D01*
X113699310Y-106305682D01*
X113646768Y-106316133D01*
X113595001Y-106350723D01*
X113536113Y-106367331D01*
X113484999Y-106350723D01*
X113433231Y-106316133D01*
X113413715Y-106312251D01*
X113374748Y-106304500D01*
X112435252Y-106304500D01*
X112429310Y-106305682D01*
X112376768Y-106316133D01*
X112325001Y-106350723D01*
X112266113Y-106367331D01*
X112214999Y-106350723D01*
X112163231Y-106316133D01*
X112143715Y-106312251D01*
X112104748Y-106304500D01*
X111165252Y-106304500D01*
X111159310Y-106305682D01*
X111106768Y-106316133D01*
X111055001Y-106350723D01*
X110996113Y-106367331D01*
X110944999Y-106350723D01*
X110893231Y-106316133D01*
X110873715Y-106312251D01*
X110834748Y-106304500D01*
X109895252Y-106304500D01*
X109889310Y-106305682D01*
X109836768Y-106316133D01*
X109785001Y-106350723D01*
X109726113Y-106367331D01*
X109674999Y-106350723D01*
X109623231Y-106316133D01*
X109603715Y-106312251D01*
X109564748Y-106304500D01*
X108625252Y-106304500D01*
X108619310Y-106305682D01*
X108566768Y-106316133D01*
X108515002Y-106350723D01*
X108456114Y-106367332D01*
X108404998Y-106350723D01*
X108353231Y-106316133D01*
X108333715Y-106312251D01*
X108294748Y-106304500D01*
X107355252Y-106304500D01*
X107349310Y-106305682D01*
X107296768Y-106316133D01*
X107245001Y-106350723D01*
X107186113Y-106367331D01*
X107134999Y-106350723D01*
X107083231Y-106316133D01*
X107030184Y-106305581D01*
X106976800Y-106275684D01*
X106951185Y-106220118D01*
X106950500Y-106208499D01*
X106950500Y-105636786D01*
X106969407Y-105578596D01*
X106989232Y-105558245D01*
X107028282Y-105528282D01*
X107035444Y-105518949D01*
X107076615Y-105465293D01*
X107124536Y-105402841D01*
X107185044Y-105256762D01*
X107205682Y-105100000D01*
X107185044Y-104943238D01*
X107124536Y-104797159D01*
X107099080Y-104763984D01*
X107028282Y-104671717D01*
X106902841Y-104575464D01*
X106756761Y-104514955D01*
X106600000Y-104494318D01*
X106443238Y-104514955D01*
X106297158Y-104575464D01*
X106171717Y-104671717D01*
X106075464Y-104797158D01*
X106014955Y-104943238D01*
X105994318Y-105100000D01*
X106014955Y-105256761D01*
X106075464Y-105402841D01*
X106171716Y-105528281D01*
X106176442Y-105531907D01*
X106210766Y-105558244D01*
X106245423Y-105608668D01*
X106249500Y-105636787D01*
X106249500Y-106205500D01*
X106230593Y-106263691D01*
X106181093Y-106299655D01*
X106150500Y-106304500D01*
X106085252Y-106304500D01*
X106079310Y-106305682D01*
X106026768Y-106316133D01*
X105960447Y-106360447D01*
X105916133Y-106426768D01*
X105916132Y-106426769D01*
X105916133Y-106426769D01*
X105904500Y-106485252D01*
X105904500Y-108524748D01*
X95850500Y-108524748D01*
X95850500Y-104182098D01*
X95850500Y-102500000D01*
X96394318Y-102500000D01*
X96414955Y-102656761D01*
X96475464Y-102802841D01*
X96571717Y-102928282D01*
X96617452Y-102963375D01*
X96697159Y-103024536D01*
X96843238Y-103085044D01*
X97000000Y-103105682D01*
X97156762Y-103085044D01*
X97302841Y-103024536D01*
X97428282Y-102928282D01*
X97524536Y-102802841D01*
X97585044Y-102656762D01*
X97605682Y-102500000D01*
X97598556Y-102445876D01*
X97609706Y-102385718D01*
X97616133Y-102375438D01*
X97617374Y-102373699D01*
X97619788Y-102370462D01*
X97650017Y-102331626D01*
X97650017Y-102331625D01*
X97653376Y-102327310D01*
X97655178Y-102323809D01*
X97656738Y-102318568D01*
X97656740Y-102318566D01*
X97670782Y-102271396D01*
X97672020Y-102267534D01*
X97672940Y-102264854D01*
X97688000Y-102220988D01*
X97688000Y-102220983D01*
X97689772Y-102215822D01*
X97690342Y-102211912D01*
X97690116Y-102206455D01*
X97690117Y-102206454D01*
X97688085Y-102157323D01*
X97688000Y-102153232D01*
X97688000Y-101716734D01*
X97706907Y-101658543D01*
X97754301Y-101623290D01*
X97812882Y-101602793D01*
X97922150Y-101522150D01*
X98002793Y-101412882D01*
X98047646Y-101284699D01*
X98050500Y-101254266D01*
X98050500Y-100245734D01*
X98047646Y-100215301D01*
X98002793Y-100087118D01*
X97922150Y-99977850D01*
X97812882Y-99897207D01*
X97684699Y-99852354D01*
X97684697Y-99852353D01*
X97684695Y-99852353D01*
X97656577Y-99849716D01*
X97656561Y-99849715D01*
X97654266Y-99849500D01*
X97020734Y-99849500D01*
X97018439Y-99849715D01*
X97018422Y-99849716D01*
X96990304Y-99852353D01*
X96990301Y-99852353D01*
X96990301Y-99852354D01*
X96862118Y-99897207D01*
X96862117Y-99897207D01*
X96862116Y-99897208D01*
X96752850Y-99977850D01*
X96677975Y-100079303D01*
X96672207Y-100087118D01*
X96645696Y-100162882D01*
X96627353Y-100215304D01*
X96624716Y-100243422D01*
X96624715Y-100243439D01*
X96624500Y-100245734D01*
X96624500Y-101254266D01*
X96624715Y-101256561D01*
X96624716Y-101256577D01*
X96627353Y-101284695D01*
X96627353Y-101284697D01*
X96627354Y-101284699D01*
X96672207Y-101412882D01*
X96752850Y-101522150D01*
X96862118Y-101602793D01*
X96920697Y-101623290D01*
X96969377Y-101660354D01*
X96986999Y-101716734D01*
X96986999Y-101809208D01*
X96968092Y-101867399D01*
X96918592Y-101903363D01*
X96900922Y-101907361D01*
X96843238Y-101914955D01*
X96697158Y-101975464D01*
X96571717Y-102071717D01*
X96475464Y-102197158D01*
X96414955Y-102343238D01*
X96394318Y-102500000D01*
X95850500Y-102500000D01*
X95850500Y-97546604D01*
X95852606Y-97526300D01*
X95855042Y-97514685D01*
X95851260Y-97484343D01*
X95850500Y-97472098D01*
X95850500Y-97470961D01*
X95849556Y-97465304D01*
X95847244Y-97451454D01*
X95846658Y-97447430D01*
X95845770Y-97440304D01*
X95840573Y-97398607D01*
X95840571Y-97398604D01*
X95839896Y-97393182D01*
X95838693Y-97389426D01*
X95823914Y-97362118D01*
X95812681Y-97341360D01*
X95810813Y-97337731D01*
X95798978Y-97313523D01*
X95789198Y-97293516D01*
X95789196Y-97293514D01*
X95786801Y-97288614D01*
X95784436Y-97285441D01*
X95767389Y-97269748D01*
X95744221Y-97248420D01*
X95741294Y-97245612D01*
X95411396Y-96915714D01*
X95383619Y-96861197D01*
X95393190Y-96800765D01*
X95411396Y-96775706D01*
X96212435Y-95974668D01*
X97045106Y-95141996D01*
X97099624Y-95114219D01*
X97115111Y-95113000D01*
X97651955Y-95113000D01*
X97654266Y-95113000D01*
X97684699Y-95110146D01*
X97812882Y-95065293D01*
X97922150Y-94984650D01*
X98002793Y-94875382D01*
X98047646Y-94747199D01*
X98050500Y-94716766D01*
X98050500Y-93708234D01*
X98047646Y-93677801D01*
X98002793Y-93549618D01*
X97922150Y-93440350D01*
X97828211Y-93371020D01*
X97792619Y-93321252D01*
X97788000Y-93291365D01*
X97788000Y-92790110D01*
X97806907Y-92731919D01*
X97816997Y-92720106D01*
X97895108Y-92641996D01*
X97949625Y-92614219D01*
X97965111Y-92613000D01*
X98063091Y-92613000D01*
X98121282Y-92631907D01*
X98142746Y-92653212D01*
X98161446Y-92678549D01*
X98202850Y-92734650D01*
X98312118Y-92815293D01*
X98440301Y-92860146D01*
X98470734Y-92863000D01*
X98473045Y-92863000D01*
X99526955Y-92863000D01*
X99529266Y-92863000D01*
X99559699Y-92860146D01*
X99687882Y-92815293D01*
X99797150Y-92734650D01*
X99849737Y-92663397D01*
X99857254Y-92653212D01*
X99907022Y-92617619D01*
X99936909Y-92613000D01*
X100056636Y-92613000D01*
X100067719Y-92613622D01*
X100070095Y-92613889D01*
X100104535Y-92617770D01*
X100161193Y-92607048D01*
X100164767Y-92606441D01*
X100221787Y-92597848D01*
X100221790Y-92597846D01*
X100225224Y-92597329D01*
X100234904Y-92594144D01*
X100237970Y-92592523D01*
X100237972Y-92592523D01*
X100288944Y-92565582D01*
X100292228Y-92563924D01*
X100344142Y-92538925D01*
X100344143Y-92538923D01*
X100347262Y-92537422D01*
X100355588Y-92531514D01*
X100358033Y-92529068D01*
X100358038Y-92529066D01*
X100398816Y-92488286D01*
X100401427Y-92485771D01*
X100443694Y-92446555D01*
X100443695Y-92446552D01*
X100446232Y-92444199D01*
X100457203Y-92429899D01*
X101142607Y-91744495D01*
X101197124Y-91716719D01*
X101212611Y-91715500D01*
X101214424Y-91715500D01*
X101272615Y-91734407D01*
X101308579Y-91783907D01*
X101310934Y-91792933D01*
X101345723Y-91844999D01*
X101362331Y-91903887D01*
X101345723Y-91955001D01*
X101311133Y-92006768D01*
X101299500Y-92065253D01*
X101299500Y-92112922D01*
X101280593Y-92171113D01*
X101247619Y-92199990D01*
X101206362Y-92222317D01*
X101202724Y-92224189D01*
X101153625Y-92248192D01*
X101150430Y-92250574D01*
X101113432Y-92290764D01*
X101110601Y-92293715D01*
X99920563Y-93483753D01*
X99866046Y-93511530D01*
X99805614Y-93501959D01*
X99770906Y-93472538D01*
X99747150Y-93440350D01*
X99637882Y-93359707D01*
X99509699Y-93314854D01*
X99509697Y-93314853D01*
X99509695Y-93314853D01*
X99481577Y-93312216D01*
X99481561Y-93312215D01*
X99479266Y-93312000D01*
X98845734Y-93312000D01*
X98843439Y-93312215D01*
X98843422Y-93312216D01*
X98815304Y-93314853D01*
X98815301Y-93314853D01*
X98815301Y-93314854D01*
X98687118Y-93359707D01*
X98687117Y-93359707D01*
X98687116Y-93359708D01*
X98577850Y-93440350D01*
X98497813Y-93548797D01*
X98497207Y-93549618D01*
X98468477Y-93631724D01*
X98452353Y-93677804D01*
X98449716Y-93705922D01*
X98449715Y-93705939D01*
X98449500Y-93708234D01*
X98449500Y-94716766D01*
X98449715Y-94719061D01*
X98449716Y-94719077D01*
X98452353Y-94747195D01*
X98452353Y-94747197D01*
X98452354Y-94747199D01*
X98497207Y-94875382D01*
X98577850Y-94984650D01*
X98687118Y-95065293D01*
X98783200Y-95098913D01*
X98831878Y-95135976D01*
X98849500Y-95192356D01*
X98849500Y-95425138D01*
X98830593Y-95483329D01*
X98783199Y-95518582D01*
X98737117Y-95534707D01*
X98627850Y-95615350D01*
X98555127Y-95713887D01*
X98547207Y-95724618D01*
X98514962Y-95816769D01*
X98502353Y-95852804D01*
X98499716Y-95880922D01*
X98499715Y-95880939D01*
X98499500Y-95883234D01*
X98499500Y-96941766D01*
X98499715Y-96944061D01*
X98499716Y-96944077D01*
X98502353Y-96972195D01*
X98502353Y-96972197D01*
X98502354Y-96972199D01*
X98547207Y-97100382D01*
X98627850Y-97209650D01*
X98737118Y-97290293D01*
X98865301Y-97335146D01*
X98895734Y-97338000D01*
X98898045Y-97338000D01*
X99501955Y-97338000D01*
X99504266Y-97338000D01*
X99534699Y-97335146D01*
X99662882Y-97290293D01*
X99772150Y-97209650D01*
X99852793Y-97100382D01*
X99897646Y-96972199D01*
X99900500Y-96941766D01*
X99900500Y-95883234D01*
X99897646Y-95852801D01*
X99852793Y-95724618D01*
X99772150Y-95615350D01*
X99662882Y-95534707D01*
X99633713Y-95524500D01*
X99616801Y-95518582D01*
X99568121Y-95481516D01*
X99550500Y-95425138D01*
X99550500Y-95166113D01*
X99569407Y-95107922D01*
X99616800Y-95072669D01*
X99637882Y-95065293D01*
X99747150Y-94984650D01*
X99827793Y-94875382D01*
X99872646Y-94747199D01*
X99875500Y-94716766D01*
X99875500Y-94564417D01*
X99894407Y-94506226D01*
X99901661Y-94497368D01*
X99905756Y-94492918D01*
X99905758Y-94492918D01*
X99939102Y-94456695D01*
X99941864Y-94453816D01*
X100079342Y-94316338D01*
X100133857Y-94288563D01*
X100194289Y-94298134D01*
X100237554Y-94341399D01*
X100248259Y-94382249D01*
X100249415Y-94410172D01*
X100249500Y-94414267D01*
X100249500Y-97963809D01*
X100230593Y-98022000D01*
X100220504Y-98033812D01*
X100044504Y-98209813D01*
X99989987Y-98237591D01*
X99929555Y-98228020D01*
X99886290Y-98184755D01*
X99875500Y-98139810D01*
X99875500Y-98110545D01*
X99875500Y-98108234D01*
X99872646Y-98077801D01*
X99827793Y-97949618D01*
X99747150Y-97840350D01*
X99637882Y-97759707D01*
X99509699Y-97714854D01*
X99509697Y-97714853D01*
X99509695Y-97714853D01*
X99481577Y-97712216D01*
X99481561Y-97712215D01*
X99479266Y-97712000D01*
X98845734Y-97712000D01*
X98843439Y-97712215D01*
X98843422Y-97712216D01*
X98815304Y-97714853D01*
X98815301Y-97714853D01*
X98815301Y-97714854D01*
X98687118Y-97759707D01*
X98687117Y-97759707D01*
X98687116Y-97759708D01*
X98591955Y-97829940D01*
X98577850Y-97840350D01*
X98497207Y-97949618D01*
X98477892Y-98004818D01*
X98452353Y-98077804D01*
X98449716Y-98105922D01*
X98449715Y-98105939D01*
X98449500Y-98108234D01*
X98449500Y-99116766D01*
X98449715Y-99119061D01*
X98449716Y-99119077D01*
X98452353Y-99147195D01*
X98452353Y-99147197D01*
X98452354Y-99147199D01*
X98497207Y-99275382D01*
X98577850Y-99384650D01*
X98651875Y-99439282D01*
X98687116Y-99465292D01*
X98687117Y-99465292D01*
X98687118Y-99465293D01*
X98745697Y-99485790D01*
X98794377Y-99522854D01*
X98812000Y-99579234D01*
X98812000Y-99783264D01*
X98793093Y-99841455D01*
X98745699Y-99876708D01*
X98687117Y-99897207D01*
X98577850Y-99977850D01*
X98502975Y-100079303D01*
X98497207Y-100087118D01*
X98470696Y-100162882D01*
X98452353Y-100215304D01*
X98449716Y-100243422D01*
X98449715Y-100243439D01*
X98449500Y-100245734D01*
X98449500Y-101254266D01*
X98449715Y-101256561D01*
X98449716Y-101256577D01*
X98452353Y-101284695D01*
X98452353Y-101284697D01*
X98452354Y-101284699D01*
X98497207Y-101412882D01*
X98577850Y-101522150D01*
X98687118Y-101602793D01*
X98815301Y-101647646D01*
X98845734Y-101650500D01*
X98848045Y-101650500D01*
X99476955Y-101650500D01*
X99479266Y-101650500D01*
X99509699Y-101647646D01*
X99637882Y-101602793D01*
X99747150Y-101522150D01*
X99827793Y-101412882D01*
X99872646Y-101284699D01*
X99875500Y-101254266D01*
X99875500Y-100245734D01*
X99872646Y-100215301D01*
X99827793Y-100087118D01*
X99747150Y-99977850D01*
X99637882Y-99897207D01*
X99637881Y-99897206D01*
X99579301Y-99876708D01*
X99530621Y-99839642D01*
X99513000Y-99783264D01*
X99513000Y-99579234D01*
X99531907Y-99521043D01*
X99579301Y-99485790D01*
X99637882Y-99465293D01*
X99747150Y-99384650D01*
X99827793Y-99275382D01*
X99872646Y-99147199D01*
X99875500Y-99116766D01*
X99875499Y-99062000D01*
X99894407Y-99003809D01*
X99943907Y-98967845D01*
X99974500Y-98963000D01*
X100090881Y-98963000D01*
X100111197Y-98965107D01*
X100122815Y-98967543D01*
X100150893Y-98964042D01*
X100153163Y-98963760D01*
X100165408Y-98963000D01*
X100166542Y-98963000D01*
X100186021Y-98959749D01*
X100190045Y-98959161D01*
X100238893Y-98953073D01*
X100238893Y-98953072D01*
X100244322Y-98952396D01*
X100248072Y-98951194D01*
X100252879Y-98948592D01*
X100252881Y-98948592D01*
X100296155Y-98925171D01*
X100299759Y-98923316D01*
X100343984Y-98901698D01*
X100343986Y-98901695D01*
X100348897Y-98899295D01*
X100352052Y-98896943D01*
X100355756Y-98892918D01*
X100355758Y-98892918D01*
X100389092Y-98856706D01*
X100391876Y-98853804D01*
X100814878Y-98430801D01*
X100830726Y-98417932D01*
X100840669Y-98411437D01*
X100859462Y-98387290D01*
X100867576Y-98378104D01*
X100868375Y-98377306D01*
X100879856Y-98361224D01*
X100882301Y-98357946D01*
X100903202Y-98331093D01*
X100912517Y-98319126D01*
X100912517Y-98319124D01*
X100915875Y-98314811D01*
X100917678Y-98311309D01*
X100919238Y-98306068D01*
X100919240Y-98306066D01*
X100933282Y-98258896D01*
X100934520Y-98255034D01*
X100936248Y-98250000D01*
X100950500Y-98208488D01*
X100950500Y-98208483D01*
X100952272Y-98203322D01*
X100952843Y-98199411D01*
X100950585Y-98144814D01*
X100950500Y-98140723D01*
X100950500Y-94591190D01*
X100969407Y-94532999D01*
X100979496Y-94521187D01*
X101168282Y-94332400D01*
X101222799Y-94304622D01*
X101283231Y-94314193D01*
X101320602Y-94347402D01*
X101345723Y-94384999D01*
X101362331Y-94443888D01*
X101345723Y-94495001D01*
X101311133Y-94546768D01*
X101310454Y-94550182D01*
X101299500Y-94605252D01*
X101299500Y-95544748D01*
X101307460Y-95584767D01*
X101311133Y-95603231D01*
X101345723Y-95654999D01*
X101362331Y-95713887D01*
X101345723Y-95765001D01*
X101311133Y-95816768D01*
X101311132Y-95816769D01*
X101311133Y-95816769D01*
X101304424Y-95850500D01*
X101299500Y-95875253D01*
X101299500Y-96814746D01*
X101311133Y-96873231D01*
X101345723Y-96924998D01*
X101362332Y-96983886D01*
X101345723Y-97035002D01*
X101311133Y-97086768D01*
X101311132Y-97086769D01*
X101311133Y-97086769D01*
X101299500Y-97145252D01*
X101299500Y-98084748D01*
X101309435Y-98134695D01*
X101311133Y-98143231D01*
X101345723Y-98194999D01*
X101362331Y-98253887D01*
X101345723Y-98305001D01*
X101311133Y-98356768D01*
X101299500Y-98415253D01*
X101299500Y-99354746D01*
X101311133Y-99413231D01*
X101345723Y-99464999D01*
X101362331Y-99523887D01*
X101345723Y-99575001D01*
X101311133Y-99626768D01*
X101311132Y-99626769D01*
X101311133Y-99626769D01*
X101299500Y-99685252D01*
X101299500Y-100624748D01*
X101306798Y-100661436D01*
X101311133Y-100683231D01*
X101345723Y-100734999D01*
X101362331Y-100793887D01*
X101345723Y-100845001D01*
X101311133Y-100896768D01*
X101306663Y-100919240D01*
X101299500Y-100955252D01*
X101299500Y-101894748D01*
X101303520Y-101914956D01*
X101311133Y-101953231D01*
X101345723Y-102004998D01*
X101362332Y-102063886D01*
X101345723Y-102115002D01*
X101311133Y-102166768D01*
X101311132Y-102166769D01*
X101311133Y-102166769D01*
X101302154Y-102211912D01*
X101299500Y-102225253D01*
X101299500Y-103164746D01*
X101311133Y-103223231D01*
X101345723Y-103274999D01*
X101362331Y-103333887D01*
X101345723Y-103385001D01*
X101311133Y-103436768D01*
X101311132Y-103436769D01*
X101311133Y-103436769D01*
X101299500Y-103495252D01*
X101299500Y-104434748D01*
X101309397Y-104484504D01*
X101311133Y-104493231D01*
X101345723Y-104544999D01*
X101362331Y-104603887D01*
X101345723Y-104655001D01*
X101311133Y-104706768D01*
X101311132Y-104706769D01*
X101311133Y-104706769D01*
X101299500Y-104765252D01*
X101299500Y-105704748D01*
X101308822Y-105751611D01*
X101311133Y-105763231D01*
X101345723Y-105814999D01*
X101362331Y-105873887D01*
X101345723Y-105925001D01*
X101311133Y-105976768D01*
X101311132Y-105976769D01*
X101311133Y-105976769D01*
X101299500Y-106035252D01*
X101299500Y-106974748D01*
X101311132Y-107033231D01*
X101311133Y-107033231D01*
X101355447Y-107099552D01*
X101399761Y-107129162D01*
X101421769Y-107143867D01*
X101480252Y-107155500D01*
X101480253Y-107155500D01*
X103519747Y-107155500D01*
X103519748Y-107155500D01*
X103578231Y-107143867D01*
X103644552Y-107099552D01*
X103688867Y-107033231D01*
X103700500Y-106974748D01*
X103700500Y-106035252D01*
X103688867Y-105976769D01*
X103654277Y-105925002D01*
X103637668Y-105866114D01*
X103654277Y-105814998D01*
X103659280Y-105807510D01*
X103688867Y-105763231D01*
X103700500Y-105704748D01*
X103700500Y-104765252D01*
X103688867Y-104706769D01*
X103654277Y-104655002D01*
X103637668Y-104596114D01*
X103654277Y-104544998D01*
X103667346Y-104525439D01*
X103688867Y-104493231D01*
X103700500Y-104434748D01*
X103700500Y-103495252D01*
X103688867Y-103436769D01*
X103654277Y-103385002D01*
X103637668Y-103326114D01*
X103654277Y-103274998D01*
X103674353Y-103244952D01*
X103688867Y-103223231D01*
X103700500Y-103164748D01*
X103700500Y-102225252D01*
X103688867Y-102166769D01*
X103654277Y-102115002D01*
X103637668Y-102056114D01*
X103654277Y-102004998D01*
X103675627Y-101973045D01*
X103688867Y-101953231D01*
X103700500Y-101894748D01*
X103700500Y-100955252D01*
X103688867Y-100896769D01*
X103654277Y-100845002D01*
X103637668Y-100786114D01*
X103654277Y-100734998D01*
X103673298Y-100706531D01*
X103688867Y-100683231D01*
X103700500Y-100624748D01*
X103700500Y-100604499D01*
X103719407Y-100546309D01*
X103768907Y-100510345D01*
X103799500Y-100505500D01*
X104198381Y-100505500D01*
X104218697Y-100507607D01*
X104230315Y-100510043D01*
X104258865Y-100506484D01*
X104260663Y-100506260D01*
X104272908Y-100505500D01*
X104274042Y-100505500D01*
X104293521Y-100502249D01*
X104297545Y-100501661D01*
X104346393Y-100495573D01*
X104346393Y-100495572D01*
X104351822Y-100494896D01*
X104355572Y-100493694D01*
X104360379Y-100491092D01*
X104360381Y-100491092D01*
X104403655Y-100467671D01*
X104407259Y-100465816D01*
X104451484Y-100444198D01*
X104451485Y-100444196D01*
X104456398Y-100441795D01*
X104459550Y-100439444D01*
X104463254Y-100435420D01*
X104463258Y-100435418D01*
X104496602Y-100399195D01*
X104499364Y-100396316D01*
X104864884Y-100030796D01*
X104880734Y-100017926D01*
X104890669Y-100011437D01*
X104909450Y-99987305D01*
X104917570Y-99978111D01*
X104918375Y-99977307D01*
X104929874Y-99961200D01*
X104932291Y-99957960D01*
X104965880Y-99914805D01*
X104967675Y-99911318D01*
X104969237Y-99906068D01*
X104969239Y-99906067D01*
X104983286Y-99858882D01*
X104984512Y-99855055D01*
X105000500Y-99808488D01*
X105000500Y-99808484D01*
X105002272Y-99803323D01*
X105002842Y-99799412D01*
X105002616Y-99793955D01*
X105002617Y-99793954D01*
X105000585Y-99744823D01*
X105000500Y-99740732D01*
X105000500Y-96236787D01*
X105019407Y-96178596D01*
X105039232Y-96158245D01*
X105078282Y-96128282D01*
X105174536Y-96002841D01*
X105235044Y-95856762D01*
X105255682Y-95700000D01*
X105235044Y-95543238D01*
X105174536Y-95397159D01*
X105142507Y-95355418D01*
X105078282Y-95271717D01*
X104952841Y-95175464D01*
X104806761Y-95114955D01*
X104650000Y-95094318D01*
X104493238Y-95114955D01*
X104347158Y-95175464D01*
X104221717Y-95271717D01*
X104125464Y-95397158D01*
X104064955Y-95543238D01*
X104044318Y-95700000D01*
X104064955Y-95856761D01*
X104125464Y-96002841D01*
X104221716Y-96128281D01*
X104228926Y-96133813D01*
X104260766Y-96158244D01*
X104295423Y-96208668D01*
X104299500Y-96236787D01*
X104299500Y-99563810D01*
X104280593Y-99622001D01*
X104270504Y-99633813D01*
X104128815Y-99775503D01*
X104074298Y-99803281D01*
X104058811Y-99804500D01*
X103799500Y-99804500D01*
X103741309Y-99785593D01*
X103705345Y-99736093D01*
X103700500Y-99705500D01*
X103700500Y-99685253D01*
X103694231Y-99653737D01*
X103688867Y-99626769D01*
X103654277Y-99575002D01*
X103637668Y-99516114D01*
X103654277Y-99464998D01*
X103664609Y-99449535D01*
X103688867Y-99413231D01*
X103700500Y-99354748D01*
X103700500Y-98415252D01*
X103688867Y-98356769D01*
X103654277Y-98305002D01*
X103637668Y-98246114D01*
X103654277Y-98194998D01*
X103661121Y-98184755D01*
X103688867Y-98143231D01*
X103700500Y-98084748D01*
X103700500Y-97145252D01*
X103688867Y-97086769D01*
X103654277Y-97035002D01*
X103637668Y-96976114D01*
X103654277Y-96924998D01*
X103669082Y-96902841D01*
X103688867Y-96873231D01*
X103700500Y-96814748D01*
X103700500Y-95875252D01*
X103688867Y-95816769D01*
X103654277Y-95765002D01*
X103637668Y-95706114D01*
X103654277Y-95654998D01*
X103670110Y-95631302D01*
X103688867Y-95603231D01*
X103700500Y-95544748D01*
X103700500Y-94605252D01*
X103688867Y-94546769D01*
X103654277Y-94495002D01*
X103637668Y-94436114D01*
X103654277Y-94384998D01*
X103659280Y-94377510D01*
X103688867Y-94333231D01*
X103700500Y-94274748D01*
X103700500Y-93335252D01*
X103688867Y-93276769D01*
X103665953Y-93242477D01*
X103654277Y-93225002D01*
X103637668Y-93166114D01*
X103654277Y-93114998D01*
X103659860Y-93106642D01*
X103688867Y-93063231D01*
X103700500Y-93004748D01*
X103700500Y-92984499D01*
X103719407Y-92926309D01*
X103768907Y-92890345D01*
X103799500Y-92885500D01*
X113418381Y-92885500D01*
X113438697Y-92887607D01*
X113450315Y-92890043D01*
X113478393Y-92886542D01*
X113480663Y-92886260D01*
X113492908Y-92885500D01*
X113494042Y-92885500D01*
X113513521Y-92882249D01*
X113517545Y-92881661D01*
X113566393Y-92875573D01*
X113566393Y-92875572D01*
X113571822Y-92874896D01*
X113575572Y-92873694D01*
X113580379Y-92871092D01*
X113580381Y-92871092D01*
X113623655Y-92847671D01*
X113627259Y-92845816D01*
X113671484Y-92824198D01*
X113671485Y-92824196D01*
X113676398Y-92821795D01*
X113679550Y-92819444D01*
X113683254Y-92815420D01*
X113683258Y-92815418D01*
X113716602Y-92779195D01*
X113719364Y-92776316D01*
X115368276Y-91127404D01*
X115422791Y-91099629D01*
X115451197Y-91099257D01*
X115500000Y-91105682D01*
X115656762Y-91085044D01*
X115802841Y-91024536D01*
X115928282Y-90928282D01*
X116024536Y-90802841D01*
X116085044Y-90656762D01*
X116105682Y-90500000D01*
X116085044Y-90343238D01*
X116024536Y-90197159D01*
X115965192Y-90119820D01*
X115928282Y-90071717D01*
X115802841Y-89975464D01*
X115656761Y-89914955D01*
X115500000Y-89894318D01*
X115343238Y-89914955D01*
X115197158Y-89975464D01*
X115071717Y-90071717D01*
X114975464Y-90197158D01*
X114914955Y-90343238D01*
X114894318Y-90500000D01*
X114900742Y-90548799D01*
X114889591Y-90608960D01*
X114872593Y-90631724D01*
X113348814Y-92155504D01*
X113294297Y-92183281D01*
X113278810Y-92184500D01*
X103799500Y-92184500D01*
X103741309Y-92165593D01*
X103705345Y-92116093D01*
X103700500Y-92085500D01*
X103700500Y-92065253D01*
X103695159Y-92038402D01*
X103688867Y-92006769D01*
X103654277Y-91955002D01*
X103637668Y-91896114D01*
X103654277Y-91844998D01*
X103669327Y-91822474D01*
X103688867Y-91793231D01*
X103700500Y-91734748D01*
X103700500Y-90795252D01*
X103688867Y-90736769D01*
X103670779Y-90709699D01*
X103644552Y-90670447D01*
X103578231Y-90626133D01*
X103558438Y-90622196D01*
X103519748Y-90614500D01*
X101480252Y-90614500D01*
X101451010Y-90620316D01*
X101421768Y-90626133D01*
X101355447Y-90670447D01*
X101306772Y-90743294D01*
X101281625Y-90788198D01*
X101226060Y-90813814D01*
X101214424Y-90814500D01*
X101015864Y-90814500D01*
X101004781Y-90813878D01*
X100996914Y-90812991D01*
X100967965Y-90809730D01*
X100967964Y-90809730D01*
X100967963Y-90809730D01*
X100911339Y-90820443D01*
X100907691Y-90821063D01*
X100847297Y-90830166D01*
X100837574Y-90833366D01*
X100783551Y-90861917D01*
X100780249Y-90863584D01*
X100725254Y-90890069D01*
X100716897Y-90895999D01*
X100673732Y-90939163D01*
X100671069Y-90941729D01*
X100626270Y-90983298D01*
X100615295Y-90997600D01*
X99974207Y-91638689D01*
X99919690Y-91666466D01*
X99859258Y-91656895D01*
X99824548Y-91627473D01*
X99808465Y-91605682D01*
X99797150Y-91590350D01*
X99687882Y-91509707D01*
X99559699Y-91464854D01*
X99559697Y-91464853D01*
X99559695Y-91464853D01*
X99531577Y-91462216D01*
X99531561Y-91462215D01*
X99529266Y-91462000D01*
X98470734Y-91462000D01*
X98468439Y-91462215D01*
X98468422Y-91462216D01*
X98440304Y-91464853D01*
X98440301Y-91464853D01*
X98440301Y-91464854D01*
X98312118Y-91509707D01*
X98312117Y-91509707D01*
X98312116Y-91509708D01*
X98202850Y-91590350D01*
X98142746Y-91671788D01*
X98092978Y-91707381D01*
X98063091Y-91712000D01*
X97768364Y-91712000D01*
X97757281Y-91711378D01*
X97720462Y-91707229D01*
X97663836Y-91717943D01*
X97660190Y-91718563D01*
X97599793Y-91727667D01*
X97590080Y-91730863D01*
X97536083Y-91759402D01*
X97532779Y-91761070D01*
X97477747Y-91787572D01*
X97469402Y-91793493D01*
X97426232Y-91836663D01*
X97423569Y-91839229D01*
X97378770Y-91880798D01*
X97367795Y-91895100D01*
X97040765Y-92222130D01*
X97032489Y-92229525D01*
X97003530Y-92252620D01*
X96971056Y-92300249D01*
X96968916Y-92303265D01*
X96932656Y-92352396D01*
X96928043Y-92361534D01*
X96910036Y-92419910D01*
X96908880Y-92423423D01*
X96888714Y-92481057D01*
X96887000Y-92491148D01*
X96887000Y-92552215D01*
X96886931Y-92555917D01*
X96884646Y-92616969D01*
X96887000Y-92634844D01*
X96887000Y-93291365D01*
X96868093Y-93349556D01*
X96846789Y-93371020D01*
X96811005Y-93397430D01*
X96752852Y-93440349D01*
X96752849Y-93440351D01*
X96672813Y-93548797D01*
X96672207Y-93549618D01*
X96643477Y-93631724D01*
X96627353Y-93677804D01*
X96624716Y-93705922D01*
X96624715Y-93705939D01*
X96624500Y-93708234D01*
X96624500Y-93710544D01*
X96624500Y-94247388D01*
X96605593Y-94305579D01*
X96595504Y-94317392D01*
X94792393Y-96120504D01*
X94737876Y-96148281D01*
X94722389Y-96149500D01*
X93832932Y-96149500D01*
X93774741Y-96130593D01*
X93772684Y-96129056D01*
X93702841Y-96075464D01*
X93702840Y-96075463D01*
X93669351Y-96061591D01*
X93637235Y-96040132D01*
X92840366Y-95243263D01*
X92832968Y-95234983D01*
X92809878Y-95206028D01*
X92762259Y-95173562D01*
X92759241Y-95171421D01*
X92726265Y-95147084D01*
X92712882Y-95137207D01*
X92712880Y-95137206D01*
X92710094Y-95135150D01*
X92700976Y-95130547D01*
X92642596Y-95112539D01*
X92639081Y-95111382D01*
X92581439Y-95091213D01*
X92571353Y-95089500D01*
X92567902Y-95089500D01*
X92510284Y-95089500D01*
X92506582Y-95089431D01*
X92445532Y-95087146D01*
X92427655Y-95089500D01*
X83267611Y-95089500D01*
X83209420Y-95070593D01*
X83197607Y-95060504D01*
X81137102Y-93000000D01*
X86734722Y-93000000D01*
X86753792Y-93217973D01*
X86753792Y-93217976D01*
X86753793Y-93217977D01*
X86759230Y-93238267D01*
X86810426Y-93429334D01*
X86902896Y-93627636D01*
X86902897Y-93627638D01*
X86902898Y-93627639D01*
X86923290Y-93656762D01*
X87001818Y-93768912D01*
X87028402Y-93806877D01*
X87183123Y-93961598D01*
X87362361Y-94087102D01*
X87362362Y-94087102D01*
X87362363Y-94087103D01*
X87560665Y-94179573D01*
X87560666Y-94179573D01*
X87560670Y-94179575D01*
X87772023Y-94236207D01*
X87990000Y-94255277D01*
X88207977Y-94236207D01*
X88419330Y-94179575D01*
X88617639Y-94087102D01*
X88796877Y-93961598D01*
X88951598Y-93806877D01*
X89077102Y-93627639D01*
X89169575Y-93429330D01*
X89226207Y-93217977D01*
X89245277Y-93000000D01*
X93744722Y-93000000D01*
X93763792Y-93217973D01*
X93763792Y-93217976D01*
X93763793Y-93217977D01*
X93769230Y-93238267D01*
X93820426Y-93429334D01*
X93912896Y-93627636D01*
X93912897Y-93627638D01*
X93912898Y-93627639D01*
X93933290Y-93656762D01*
X94011818Y-93768912D01*
X94038402Y-93806877D01*
X94193123Y-93961598D01*
X94372361Y-94087102D01*
X94372362Y-94087102D01*
X94372363Y-94087103D01*
X94570665Y-94179573D01*
X94570666Y-94179573D01*
X94570670Y-94179575D01*
X94782023Y-94236207D01*
X95000000Y-94255277D01*
X95217977Y-94236207D01*
X95429330Y-94179575D01*
X95627639Y-94087102D01*
X95806877Y-93961598D01*
X95961598Y-93806877D01*
X96087102Y-93627639D01*
X96179575Y-93429330D01*
X96236207Y-93217977D01*
X96255277Y-93000000D01*
X96236207Y-92782023D01*
X96179575Y-92570670D01*
X96179176Y-92569815D01*
X96087103Y-92372364D01*
X96076562Y-92357310D01*
X95961598Y-92193123D01*
X95806877Y-92038402D01*
X95761700Y-92006769D01*
X95627636Y-91912896D01*
X95429334Y-91820426D01*
X95217973Y-91763792D01*
X95000000Y-91744722D01*
X94782026Y-91763792D01*
X94570665Y-91820426D01*
X94372364Y-91912896D01*
X94193126Y-92038399D01*
X94038399Y-92193126D01*
X93912896Y-92372364D01*
X93820426Y-92570665D01*
X93763792Y-92782026D01*
X93744722Y-93000000D01*
X89245277Y-93000000D01*
X89226207Y-92782023D01*
X89169575Y-92570670D01*
X89169176Y-92569815D01*
X89077103Y-92372364D01*
X89066562Y-92357310D01*
X88951598Y-92193123D01*
X88796877Y-92038402D01*
X88751700Y-92006769D01*
X88617636Y-91912896D01*
X88419334Y-91820426D01*
X88207973Y-91763792D01*
X87989999Y-91744722D01*
X87772026Y-91763792D01*
X87560665Y-91820426D01*
X87362364Y-91912896D01*
X87183126Y-92038399D01*
X87028399Y-92193126D01*
X86902896Y-92372364D01*
X86810426Y-92570665D01*
X86753792Y-92782026D01*
X86734722Y-93000000D01*
X81137102Y-93000000D01*
X80829495Y-92692393D01*
X80801718Y-92637876D01*
X80800499Y-92622389D01*
X80800499Y-91859552D01*
X80800499Y-91086906D01*
X80819406Y-91028718D01*
X80840709Y-91007255D01*
X80922150Y-90947150D01*
X81002793Y-90837882D01*
X81047646Y-90709699D01*
X81050500Y-90679266D01*
X81050500Y-90510000D01*
X92669892Y-90510000D01*
X92688283Y-90708470D01*
X92742829Y-90900181D01*
X92831672Y-91078601D01*
X92831673Y-91078602D01*
X92831674Y-91078604D01*
X92951791Y-91237664D01*
X93062804Y-91338866D01*
X93099091Y-91371946D01*
X93190077Y-91428282D01*
X93268554Y-91476873D01*
X93391583Y-91524535D01*
X93454416Y-91548877D01*
X93650338Y-91585500D01*
X93650340Y-91585500D01*
X93849662Y-91585500D01*
X94045583Y-91548877D01*
X94045586Y-91548876D01*
X94231446Y-91476873D01*
X94400910Y-91371945D01*
X94548209Y-91237664D01*
X94668326Y-91078604D01*
X94757171Y-90900180D01*
X94811717Y-90708469D01*
X94830108Y-90510000D01*
X94811717Y-90311531D01*
X94757171Y-90119820D01*
X94668326Y-89941396D01*
X94548209Y-89782336D01*
X94400910Y-89648055D01*
X94400908Y-89648053D01*
X94231448Y-89543128D01*
X94231446Y-89543127D01*
X94192072Y-89527873D01*
X94045583Y-89471122D01*
X93849662Y-89434500D01*
X93849660Y-89434500D01*
X93650340Y-89434500D01*
X93650338Y-89434500D01*
X93454416Y-89471122D01*
X93268551Y-89543128D01*
X93099091Y-89648053D01*
X92965599Y-89769748D01*
X92951791Y-89782336D01*
X92940892Y-89796769D01*
X92831672Y-89941398D01*
X92742829Y-90119818D01*
X92688283Y-90311529D01*
X92669892Y-90510000D01*
X81050500Y-90510000D01*
X81050500Y-89620734D01*
X81047646Y-89590301D01*
X81002793Y-89462118D01*
X80922150Y-89352850D01*
X80840712Y-89292746D01*
X80805119Y-89242978D01*
X80800500Y-89213091D01*
X80800500Y-87986500D01*
X80819407Y-87928309D01*
X80868907Y-87892345D01*
X80899500Y-87887500D01*
X81148864Y-87887500D01*
X81207055Y-87906407D01*
X81234599Y-87936999D01*
X81248927Y-87961815D01*
X81335048Y-88110985D01*
X81335053Y-88110992D01*
X81336667Y-88113788D01*
X81496303Y-88321835D01*
X81681730Y-88507266D01*
X81889773Y-88666907D01*
X82116873Y-88798029D01*
X82119874Y-88799272D01*
X82120756Y-88799707D01*
X82121010Y-88799954D01*
X82124505Y-88801258D01*
X82127782Y-88802548D01*
X82359145Y-88898386D01*
X82369365Y-88901124D01*
X82375068Y-88904827D01*
X82415909Y-88913713D01*
X82420489Y-88914824D01*
X82612444Y-88966262D01*
X82635594Y-88969310D01*
X82646358Y-88974444D01*
X82705222Y-88978655D01*
X82711064Y-88979248D01*
X82872435Y-89000497D01*
X82983761Y-89000498D01*
X82983767Y-89000500D01*
X83007022Y-89000500D01*
X83010789Y-89000634D01*
X83011882Y-89000500D01*
X137901000Y-89000500D01*
X137959191Y-89019407D01*
X137995155Y-89068907D01*
X138000000Y-89099500D01*
X138000000Y-102550500D01*
X137981093Y-102608691D01*
X137931593Y-102644655D01*
X137901000Y-102649500D01*
X137046614Y-102649500D01*
X137026298Y-102647393D01*
X137014685Y-102644958D01*
X136984344Y-102648740D01*
X136972099Y-102649500D01*
X136970960Y-102649500D01*
X136965332Y-102650439D01*
X136951479Y-102652750D01*
X136947437Y-102653338D01*
X136893204Y-102660099D01*
X136889412Y-102661314D01*
X136841360Y-102687318D01*
X136837724Y-102689189D01*
X136788625Y-102713192D01*
X136785430Y-102715574D01*
X136748432Y-102755764D01*
X136745601Y-102758714D01*
X135918814Y-103585503D01*
X135864297Y-103613281D01*
X135848810Y-103614500D01*
X120799500Y-103614500D01*
X120741309Y-103595593D01*
X120705345Y-103546093D01*
X120700500Y-103515500D01*
X120700500Y-103495253D01*
X120696229Y-103473780D01*
X120688867Y-103436769D01*
X120654277Y-103385002D01*
X120637668Y-103326114D01*
X120654277Y-103274998D01*
X120674353Y-103244952D01*
X120688867Y-103223231D01*
X120700500Y-103164748D01*
X120700500Y-102225252D01*
X120688867Y-102166769D01*
X120654277Y-102115002D01*
X120637668Y-102056114D01*
X120654277Y-102004998D01*
X120675627Y-101973045D01*
X120688867Y-101953231D01*
X120700500Y-101894748D01*
X120700500Y-100955252D01*
X120688867Y-100896769D01*
X120654277Y-100845002D01*
X120637668Y-100786114D01*
X120654277Y-100734998D01*
X120673298Y-100706531D01*
X120688867Y-100683231D01*
X120700500Y-100624748D01*
X120700500Y-99685252D01*
X120688867Y-99626769D01*
X120654277Y-99575002D01*
X120637668Y-99516114D01*
X120654277Y-99464998D01*
X120664609Y-99449535D01*
X120688867Y-99413231D01*
X120700500Y-99354748D01*
X120700500Y-98415252D01*
X120688867Y-98356769D01*
X120654277Y-98305002D01*
X120637668Y-98246114D01*
X120654277Y-98194998D01*
X120661121Y-98184755D01*
X120688867Y-98143231D01*
X120700500Y-98084748D01*
X120700500Y-97145252D01*
X120688867Y-97086769D01*
X120654277Y-97035002D01*
X120637668Y-96976114D01*
X120654277Y-96924998D01*
X120669082Y-96902841D01*
X120688867Y-96873231D01*
X120700500Y-96814748D01*
X120700500Y-96038253D01*
X120711405Y-96004687D01*
X120700500Y-95961746D01*
X120700500Y-95875253D01*
X120696822Y-95856761D01*
X120688867Y-95816769D01*
X120654277Y-95765002D01*
X120637668Y-95706114D01*
X120654277Y-95654998D01*
X120670110Y-95631302D01*
X120688867Y-95603231D01*
X120700500Y-95544748D01*
X120700500Y-95524499D01*
X120719407Y-95466309D01*
X120768907Y-95430345D01*
X120799500Y-95425500D01*
X120983162Y-95425500D01*
X121041353Y-95444407D01*
X121077317Y-95493907D01*
X121077317Y-95555093D01*
X121061704Y-95584767D01*
X120975464Y-95697157D01*
X120914955Y-95843238D01*
X120897653Y-95974668D01*
X120886646Y-95997742D01*
X120897653Y-96025331D01*
X120914955Y-96156761D01*
X120975464Y-96302841D01*
X121071717Y-96428282D01*
X121167225Y-96501567D01*
X121197159Y-96524536D01*
X121343238Y-96585044D01*
X121500000Y-96605682D01*
X121656762Y-96585044D01*
X121802841Y-96524536D01*
X121928282Y-96428282D01*
X121941970Y-96410444D01*
X121958246Y-96389233D01*
X122008670Y-96354577D01*
X122036788Y-96350500D01*
X125273381Y-96350500D01*
X125293697Y-96352607D01*
X125305315Y-96355043D01*
X125333393Y-96351542D01*
X125335663Y-96351260D01*
X125347908Y-96350500D01*
X125349042Y-96350500D01*
X125368521Y-96347249D01*
X125372545Y-96346661D01*
X125421393Y-96340573D01*
X125421393Y-96340572D01*
X125426822Y-96339896D01*
X125430572Y-96338694D01*
X125435379Y-96336092D01*
X125435381Y-96336092D01*
X125478655Y-96312671D01*
X125482259Y-96310816D01*
X125526484Y-96289198D01*
X125526485Y-96289196D01*
X125531398Y-96286795D01*
X125534550Y-96284444D01*
X125538254Y-96280420D01*
X125538258Y-96280418D01*
X125571602Y-96244195D01*
X125574364Y-96241316D01*
X127551087Y-94264593D01*
X127605602Y-94236818D01*
X127649827Y-94239862D01*
X127651045Y-94240231D01*
X127651046Y-94240232D01*
X127849066Y-94300300D01*
X128055000Y-94320583D01*
X128260934Y-94300300D01*
X128458954Y-94240232D01*
X128641450Y-94142685D01*
X128801410Y-94011410D01*
X128932685Y-93851450D01*
X129030232Y-93668954D01*
X129090300Y-93470934D01*
X129110583Y-93265000D01*
X129090300Y-93059066D01*
X129030232Y-92861046D01*
X128932685Y-92678550D01*
X128801410Y-92518590D01*
X128641450Y-92387315D01*
X128458954Y-92289768D01*
X128458953Y-92289767D01*
X128458952Y-92289767D01*
X128260933Y-92229699D01*
X128055000Y-92209416D01*
X127849066Y-92229699D01*
X127651047Y-92289767D01*
X127468549Y-92387315D01*
X127308590Y-92518590D01*
X127177315Y-92678549D01*
X127079767Y-92861047D01*
X127019699Y-93059066D01*
X126999416Y-93265000D01*
X127019699Y-93470933D01*
X127080136Y-93670171D01*
X127078935Y-93731345D01*
X127055403Y-93768913D01*
X125203814Y-95620504D01*
X125149297Y-95648281D01*
X125133810Y-95649500D01*
X122036788Y-95649500D01*
X121978597Y-95630593D01*
X121958246Y-95610767D01*
X121928282Y-95571717D01*
X121802841Y-95475464D01*
X121656761Y-95414955D01*
X121558853Y-95402066D01*
X121503628Y-95375725D01*
X121474433Y-95321954D01*
X121482419Y-95261293D01*
X121501768Y-95233912D01*
X122471087Y-94264593D01*
X122525602Y-94236818D01*
X122569827Y-94239862D01*
X122571045Y-94240231D01*
X122571046Y-94240232D01*
X122707888Y-94281742D01*
X122769066Y-94300300D01*
X122974999Y-94320583D01*
X122974999Y-94320582D01*
X122975000Y-94320583D01*
X123180934Y-94300300D01*
X123378954Y-94240232D01*
X123561450Y-94142685D01*
X123721410Y-94011410D01*
X123852685Y-93851450D01*
X123950232Y-93668954D01*
X124010300Y-93470934D01*
X124030583Y-93265000D01*
X124459416Y-93265000D01*
X124479699Y-93470933D01*
X124539767Y-93668952D01*
X124539768Y-93668954D01*
X124637315Y-93851450D01*
X124768590Y-94011410D01*
X124928550Y-94142685D01*
X125111046Y-94240232D01*
X125309066Y-94300300D01*
X125515000Y-94320583D01*
X125720934Y-94300300D01*
X125918954Y-94240232D01*
X126101450Y-94142685D01*
X126261410Y-94011410D01*
X126392685Y-93851450D01*
X126490232Y-93668954D01*
X126550300Y-93470934D01*
X126570583Y-93265000D01*
X126568238Y-93241196D01*
X126550300Y-93059066D01*
X126524940Y-92975464D01*
X126490232Y-92861046D01*
X126392685Y-92678550D01*
X126261410Y-92518590D01*
X126101450Y-92387315D01*
X125918954Y-92289768D01*
X125918953Y-92289767D01*
X125918952Y-92289767D01*
X125720933Y-92229699D01*
X125514999Y-92209416D01*
X125309066Y-92229699D01*
X125111047Y-92289767D01*
X124928549Y-92387315D01*
X124768590Y-92518590D01*
X124637315Y-92678549D01*
X124539767Y-92861047D01*
X124479699Y-93059066D01*
X124459416Y-93265000D01*
X124030583Y-93265000D01*
X124028238Y-93241196D01*
X124010300Y-93059066D01*
X123984940Y-92975464D01*
X123950232Y-92861046D01*
X123852685Y-92678550D01*
X123721410Y-92518590D01*
X123721406Y-92518587D01*
X123716251Y-92512305D01*
X123693951Y-92455328D01*
X123709399Y-92396126D01*
X123756696Y-92357310D01*
X123792779Y-92350500D01*
X124193381Y-92350500D01*
X124213697Y-92352607D01*
X124225315Y-92355043D01*
X124253393Y-92351542D01*
X124255663Y-92351260D01*
X124267908Y-92350500D01*
X124269042Y-92350500D01*
X124288521Y-92347249D01*
X124292545Y-92346661D01*
X124341393Y-92340573D01*
X124341393Y-92340572D01*
X124346822Y-92339896D01*
X124350572Y-92338694D01*
X124355379Y-92336092D01*
X124355381Y-92336092D01*
X124398655Y-92312671D01*
X124402259Y-92310816D01*
X124446484Y-92289198D01*
X124446485Y-92289196D01*
X124451398Y-92286795D01*
X124454550Y-92284444D01*
X124458254Y-92280420D01*
X124458258Y-92280418D01*
X124491602Y-92244195D01*
X124494364Y-92241316D01*
X125011087Y-91724593D01*
X125065602Y-91696818D01*
X125109827Y-91699862D01*
X125111045Y-91700231D01*
X125111046Y-91700232D01*
X125309066Y-91760300D01*
X125515000Y-91780583D01*
X125720934Y-91760300D01*
X125918954Y-91700232D01*
X126101450Y-91602685D01*
X126261410Y-91471410D01*
X126392685Y-91311450D01*
X126490232Y-91128954D01*
X126550300Y-90930934D01*
X126570583Y-90725000D01*
X126550300Y-90519066D01*
X126490232Y-90321046D01*
X126392685Y-90138550D01*
X126261410Y-89978590D01*
X126101450Y-89847315D01*
X125918954Y-89749768D01*
X125918953Y-89749767D01*
X125918952Y-89749767D01*
X125720933Y-89689699D01*
X125515000Y-89669416D01*
X125309066Y-89689699D01*
X125111047Y-89749767D01*
X124928549Y-89847315D01*
X124768590Y-89978590D01*
X124637315Y-90138549D01*
X124539767Y-90321047D01*
X124479699Y-90519066D01*
X124459416Y-90724999D01*
X124479699Y-90930933D01*
X124540137Y-91130172D01*
X124538936Y-91191346D01*
X124515405Y-91228911D01*
X124316036Y-91428282D01*
X124194504Y-91549814D01*
X124139987Y-91577591D01*
X124079555Y-91568020D01*
X124036290Y-91524755D01*
X124025500Y-91479810D01*
X124025500Y-89855253D01*
X124020125Y-89828231D01*
X124013867Y-89796769D01*
X123995811Y-89769746D01*
X123969552Y-89730447D01*
X123903231Y-89686133D01*
X123903230Y-89686133D01*
X123844748Y-89674500D01*
X122105252Y-89674500D01*
X122076010Y-89680316D01*
X122046768Y-89686133D01*
X121980447Y-89730447D01*
X121936133Y-89796768D01*
X121936132Y-89796769D01*
X121936133Y-89796769D01*
X121924500Y-89855252D01*
X121924500Y-91594748D01*
X121935391Y-91649500D01*
X121936133Y-91653231D01*
X121980448Y-91719553D01*
X122062570Y-91774425D01*
X122100450Y-91822474D01*
X122102852Y-91883613D01*
X122077573Y-91926744D01*
X120857011Y-93147305D01*
X120802494Y-93175082D01*
X120742062Y-93165511D01*
X120698797Y-93122246D01*
X120689226Y-93061814D01*
X120689910Y-93057986D01*
X120691216Y-93051424D01*
X120700500Y-93004748D01*
X120700500Y-92065252D01*
X120688867Y-92006769D01*
X120654277Y-91955002D01*
X120637668Y-91896114D01*
X120654277Y-91844998D01*
X120669327Y-91822474D01*
X120688867Y-91793231D01*
X120700500Y-91734748D01*
X120700500Y-90795252D01*
X120688867Y-90736769D01*
X120670779Y-90709699D01*
X120644552Y-90670447D01*
X120578231Y-90626133D01*
X120558438Y-90622196D01*
X120519748Y-90614500D01*
X118480252Y-90614500D01*
X118451010Y-90620316D01*
X118421768Y-90626133D01*
X118355447Y-90670447D01*
X118311133Y-90736768D01*
X118311132Y-90736769D01*
X118311133Y-90736769D01*
X118299500Y-90795252D01*
X118299500Y-91734748D01*
X118305292Y-91763867D01*
X118311133Y-91793231D01*
X118345723Y-91844999D01*
X118362331Y-91903887D01*
X118345723Y-91955001D01*
X118311133Y-92006768D01*
X118311132Y-92006769D01*
X118311133Y-92006769D01*
X118299500Y-92065252D01*
X118299500Y-93004748D01*
X118309112Y-93053072D01*
X118311133Y-93063231D01*
X118345723Y-93114999D01*
X118362331Y-93173887D01*
X118345723Y-93225001D01*
X118311133Y-93276768D01*
X118308590Y-93289555D01*
X118299500Y-93335252D01*
X118299500Y-94274748D01*
X118308617Y-94320583D01*
X118311133Y-94333231D01*
X118345723Y-94384999D01*
X118362331Y-94443887D01*
X118345723Y-94495001D01*
X118311133Y-94546768D01*
X118310454Y-94550182D01*
X118299500Y-94605252D01*
X118299500Y-95544748D01*
X118307460Y-95584767D01*
X118311133Y-95603231D01*
X118345723Y-95654999D01*
X118362331Y-95713887D01*
X118345723Y-95765001D01*
X118311133Y-95816768D01*
X118311132Y-95816769D01*
X118311133Y-95816769D01*
X118304424Y-95850500D01*
X118299500Y-95875253D01*
X118299500Y-96814746D01*
X118311133Y-96873231D01*
X118345723Y-96924999D01*
X118362331Y-96983887D01*
X118345723Y-97035001D01*
X118311133Y-97086768D01*
X118311132Y-97086769D01*
X118311133Y-97086769D01*
X118299500Y-97145252D01*
X118299500Y-98084748D01*
X118309435Y-98134695D01*
X118311133Y-98143231D01*
X118345723Y-98194999D01*
X118362331Y-98253887D01*
X118345723Y-98305001D01*
X118311133Y-98356768D01*
X118299500Y-98415253D01*
X118299500Y-99354746D01*
X118311133Y-99413231D01*
X118345723Y-99464999D01*
X118362331Y-99523887D01*
X118345723Y-99575001D01*
X118311133Y-99626768D01*
X118311132Y-99626769D01*
X118311133Y-99626769D01*
X118299500Y-99685252D01*
X118299500Y-100624748D01*
X118306798Y-100661436D01*
X118311133Y-100683231D01*
X118345723Y-100734999D01*
X118362331Y-100793887D01*
X118345723Y-100845001D01*
X118311133Y-100896768D01*
X118306663Y-100919240D01*
X118299500Y-100955252D01*
X118299500Y-101894748D01*
X118303520Y-101914956D01*
X118311133Y-101953231D01*
X118345723Y-102004998D01*
X118362332Y-102063886D01*
X118345723Y-102115002D01*
X118311133Y-102166768D01*
X118299499Y-102225253D01*
X118299500Y-102245500D01*
X118280593Y-102303691D01*
X118231093Y-102339655D01*
X118200500Y-102344500D01*
X117381190Y-102344500D01*
X117322999Y-102325593D01*
X117311186Y-102315504D01*
X116379496Y-101383814D01*
X116351719Y-101329297D01*
X116350500Y-101313810D01*
X116350500Y-94546620D01*
X116352607Y-94526304D01*
X116353036Y-94524256D01*
X116355043Y-94514686D01*
X116351260Y-94484338D01*
X116350500Y-94472093D01*
X116350500Y-94470963D01*
X116350500Y-94470960D01*
X116347240Y-94451427D01*
X116346662Y-94447466D01*
X116340573Y-94398608D01*
X116340572Y-94398607D01*
X116339896Y-94393179D01*
X116338694Y-94389429D01*
X116336092Y-94384621D01*
X116336092Y-94384619D01*
X116312676Y-94341351D01*
X116310808Y-94337721D01*
X116286802Y-94288616D01*
X116284435Y-94285440D01*
X116280418Y-94281742D01*
X116244209Y-94248409D01*
X116241282Y-94245601D01*
X115627406Y-93631724D01*
X115599629Y-93577207D01*
X115599257Y-93548802D01*
X115605682Y-93500000D01*
X115585044Y-93343238D01*
X115524536Y-93197159D01*
X115486282Y-93147305D01*
X115428282Y-93071717D01*
X115302841Y-92975464D01*
X115156761Y-92914955D01*
X115000000Y-92894318D01*
X114843238Y-92914955D01*
X114697158Y-92975464D01*
X114571717Y-93071717D01*
X114475464Y-93197158D01*
X114414955Y-93343238D01*
X114394318Y-93500000D01*
X114414955Y-93656761D01*
X114475464Y-93802841D01*
X114571717Y-93928282D01*
X114667971Y-94002139D01*
X114697159Y-94024536D01*
X114843238Y-94085044D01*
X115000000Y-94105682D01*
X115048799Y-94099257D01*
X115108958Y-94110407D01*
X115131724Y-94127406D01*
X115620504Y-94616186D01*
X115648281Y-94670703D01*
X115649500Y-94686190D01*
X115649500Y-101453381D01*
X115647393Y-101473696D01*
X115644957Y-101485315D01*
X115648381Y-101512783D01*
X115648740Y-101515661D01*
X115649500Y-101527907D01*
X115649500Y-101529041D01*
X115652751Y-101548528D01*
X115653340Y-101552572D01*
X115660101Y-101606804D01*
X115661312Y-101610585D01*
X115687322Y-101658646D01*
X115689194Y-101662284D01*
X115709025Y-101702850D01*
X115713198Y-101711385D01*
X115715568Y-101714564D01*
X115755764Y-101751567D01*
X115758717Y-101754399D01*
X116914198Y-102909880D01*
X116927070Y-102925732D01*
X116933563Y-102935669D01*
X116952800Y-102950641D01*
X116957689Y-102954447D01*
X116966880Y-102962563D01*
X116967690Y-102963373D01*
X116983768Y-102974852D01*
X116987050Y-102977299D01*
X117030182Y-103010870D01*
X117033701Y-103012681D01*
X117086089Y-103028278D01*
X117089965Y-103029519D01*
X117136512Y-103045500D01*
X117136515Y-103045500D01*
X117141673Y-103047271D01*
X117145591Y-103047842D01*
X117151044Y-103047616D01*
X117151046Y-103047617D01*
X117200176Y-103045584D01*
X117204267Y-103045500D01*
X118200500Y-103045500D01*
X118258691Y-103064407D01*
X118294655Y-103113907D01*
X118299500Y-103144500D01*
X118299499Y-103164746D01*
X118311133Y-103223231D01*
X118345723Y-103274999D01*
X118362331Y-103333887D01*
X118345723Y-103385001D01*
X118311133Y-103436768D01*
X118311132Y-103436769D01*
X118311133Y-103436769D01*
X118299500Y-103495252D01*
X118299500Y-104434748D01*
X118309397Y-104484504D01*
X118311133Y-104493231D01*
X118345723Y-104544999D01*
X118362331Y-104603887D01*
X118345723Y-104655001D01*
X118311133Y-104706768D01*
X118311132Y-104706769D01*
X118311133Y-104706769D01*
X118299500Y-104765252D01*
X118299500Y-105704748D01*
X118308822Y-105751611D01*
X118311133Y-105763231D01*
X118345723Y-105814999D01*
X118362331Y-105873887D01*
X118345723Y-105925001D01*
X118311133Y-105976768D01*
X118311132Y-105976769D01*
X118311133Y-105976769D01*
X118299500Y-106035252D01*
X118299500Y-106974748D01*
X118311132Y-107033231D01*
X118311133Y-107033231D01*
X118355447Y-107099552D01*
X118399761Y-107129162D01*
X118421769Y-107143867D01*
X118480252Y-107155500D01*
X118480253Y-107155500D01*
X120519747Y-107155500D01*
X120519748Y-107155500D01*
X120578231Y-107143867D01*
X120644552Y-107099552D01*
X120688867Y-107033231D01*
X120700500Y-106974748D01*
X120700500Y-106949500D01*
X120719407Y-106891309D01*
X120768907Y-106855345D01*
X120799500Y-106850500D01*
X120963212Y-106850500D01*
X121021403Y-106869407D01*
X121041754Y-106889233D01*
X121071717Y-106928282D01*
X121167970Y-107002139D01*
X121197159Y-107024536D01*
X121343238Y-107085044D01*
X121500000Y-107105682D01*
X121656762Y-107085044D01*
X121802841Y-107024536D01*
X121928282Y-106928282D01*
X122024536Y-106802841D01*
X122080486Y-106667765D01*
X139355787Y-106667765D01*
X139385413Y-106937015D01*
X139453928Y-107199089D01*
X139545662Y-107414956D01*
X139559870Y-107448390D01*
X139700982Y-107679610D01*
X139874255Y-107887820D01*
X139941946Y-107948471D01*
X140075996Y-108068581D01*
X140301913Y-108218046D01*
X140547175Y-108333020D01*
X140743112Y-108391968D01*
X140806569Y-108411060D01*
X141018668Y-108442274D01*
X141074560Y-108450500D01*
X141074561Y-108450500D01*
X141275824Y-108450500D01*
X141277631Y-108450500D01*
X141480156Y-108435677D01*
X141744553Y-108376780D01*
X141997558Y-108280014D01*
X142233777Y-108147441D01*
X142448177Y-107981888D01*
X142636186Y-107786881D01*
X142793799Y-107566579D01*
X142917656Y-107325675D01*
X143005118Y-107069305D01*
X143054319Y-106802933D01*
X143064212Y-106532235D01*
X143059525Y-106489642D01*
X143046068Y-106367332D01*
X143034586Y-106262982D01*
X142966072Y-106000912D01*
X142860130Y-105751610D01*
X142719018Y-105520390D01*
X142545745Y-105312180D01*
X142429280Y-105207827D01*
X142344003Y-105131418D01*
X142118086Y-104981953D01*
X141872824Y-104866979D01*
X141613433Y-104788940D01*
X141345440Y-104749500D01*
X141345439Y-104749500D01*
X141142369Y-104749500D01*
X141140590Y-104749630D01*
X141140568Y-104749631D01*
X140939847Y-104764322D01*
X140675446Y-104823220D01*
X140422438Y-104919987D01*
X140186222Y-105052559D01*
X139971825Y-105218109D01*
X139783814Y-105413118D01*
X139626200Y-105633421D01*
X139502341Y-105874329D01*
X139414882Y-106130692D01*
X139365681Y-106397064D01*
X139355787Y-106667765D01*
X122080486Y-106667765D01*
X122085044Y-106656762D01*
X122105682Y-106500000D01*
X122085044Y-106343238D01*
X122024536Y-106197159D01*
X121989909Y-106152032D01*
X121928282Y-106071717D01*
X121802841Y-105975464D01*
X121656761Y-105914955D01*
X121500000Y-105894318D01*
X121343238Y-105914955D01*
X121197158Y-105975464D01*
X121071717Y-106071717D01*
X121041754Y-106110767D01*
X120991330Y-106145423D01*
X120963212Y-106149500D01*
X120799500Y-106149500D01*
X120741309Y-106130593D01*
X120705345Y-106081093D01*
X120700500Y-106050500D01*
X120700500Y-106035253D01*
X120693669Y-106000912D01*
X120688867Y-105976769D01*
X120654277Y-105925002D01*
X120637668Y-105866114D01*
X120654277Y-105814998D01*
X120659280Y-105807510D01*
X120688867Y-105763231D01*
X120700500Y-105704748D01*
X120700500Y-105684499D01*
X120719407Y-105626309D01*
X120768907Y-105590345D01*
X120799500Y-105585500D01*
X135718381Y-105585500D01*
X135738697Y-105587607D01*
X135750315Y-105590043D01*
X135778393Y-105586542D01*
X135780663Y-105586260D01*
X135792908Y-105585500D01*
X135794042Y-105585500D01*
X135813521Y-105582249D01*
X135817545Y-105581661D01*
X135866393Y-105575573D01*
X135866393Y-105575572D01*
X135871822Y-105574896D01*
X135875572Y-105573694D01*
X135880379Y-105571092D01*
X135880381Y-105571092D01*
X135923655Y-105547671D01*
X135927259Y-105545816D01*
X135971484Y-105524198D01*
X135971485Y-105524196D01*
X135976398Y-105521795D01*
X135979550Y-105519444D01*
X135983254Y-105515420D01*
X135983258Y-105515418D01*
X136016602Y-105479195D01*
X136019364Y-105476316D01*
X137616185Y-103879496D01*
X137670703Y-103851719D01*
X137686190Y-103850500D01*
X137901000Y-103850500D01*
X137959191Y-103869407D01*
X137995155Y-103918907D01*
X138000000Y-103949500D01*
X138000000Y-104000000D01*
X155963310Y-104000000D01*
X156021501Y-104018907D01*
X156033314Y-104028996D01*
X156933004Y-104928686D01*
X156960781Y-104983203D01*
X156962000Y-104998690D01*
X156962000Y-106433264D01*
X156943093Y-106491455D01*
X156895699Y-106526708D01*
X156837117Y-106547207D01*
X156727850Y-106627850D01*
X156650603Y-106732517D01*
X156647207Y-106737118D01*
X156609116Y-106845976D01*
X156602353Y-106865304D01*
X156599716Y-106893422D01*
X156599715Y-106893439D01*
X156599500Y-106895734D01*
X156599500Y-107904266D01*
X156599715Y-107906561D01*
X156599716Y-107906577D01*
X156602353Y-107934695D01*
X156602353Y-107934697D01*
X156602354Y-107934699D01*
X156647207Y-108062882D01*
X156727850Y-108172150D01*
X156837118Y-108252793D01*
X156933200Y-108286413D01*
X156981878Y-108323476D01*
X156999500Y-108379856D01*
X156999500Y-108538812D01*
X156980593Y-108597003D01*
X156970509Y-108608809D01*
X156936651Y-108642668D01*
X156910801Y-108668518D01*
X156859427Y-108773606D01*
X156859427Y-108773607D01*
X156849500Y-108841740D01*
X156849500Y-110083260D01*
X156859427Y-110151393D01*
X156910802Y-110256483D01*
X156993517Y-110339198D01*
X157098607Y-110390573D01*
X157166740Y-110400500D01*
X157166743Y-110400500D01*
X157533257Y-110400500D01*
X157533260Y-110400500D01*
X157601393Y-110390573D01*
X157706483Y-110339198D01*
X157789198Y-110256483D01*
X157840573Y-110151393D01*
X157850500Y-110083260D01*
X157850500Y-108841740D01*
X157840573Y-108773607D01*
X157789198Y-108668517D01*
X157763349Y-108642668D01*
X157729496Y-108608814D01*
X157701719Y-108554297D01*
X157700500Y-108538811D01*
X157700500Y-108353613D01*
X157719407Y-108295422D01*
X157766800Y-108260169D01*
X157787882Y-108252793D01*
X157897150Y-108172150D01*
X157977793Y-108062882D01*
X158022646Y-107934699D01*
X158025500Y-107904266D01*
X158025500Y-106895734D01*
X158022646Y-106865301D01*
X157977793Y-106737118D01*
X157897150Y-106627850D01*
X157787882Y-106547207D01*
X157787881Y-106547206D01*
X157729301Y-106526708D01*
X157680621Y-106489642D01*
X157663000Y-106433264D01*
X157663000Y-104859114D01*
X157665107Y-104838798D01*
X157665285Y-104837947D01*
X157667542Y-104827185D01*
X157663760Y-104796843D01*
X157663000Y-104784598D01*
X157663000Y-104783461D01*
X157659806Y-104764323D01*
X157659744Y-104763954D01*
X157659158Y-104759930D01*
X157653073Y-104711107D01*
X157653071Y-104711104D01*
X157652396Y-104705682D01*
X157651193Y-104701926D01*
X157634844Y-104671717D01*
X157625181Y-104653860D01*
X157623313Y-104650231D01*
X157610861Y-104624761D01*
X157601698Y-104606016D01*
X157601696Y-104606014D01*
X157599301Y-104601114D01*
X157596936Y-104597941D01*
X157592918Y-104594242D01*
X157556721Y-104560920D01*
X157553794Y-104558112D01*
X157164686Y-104169004D01*
X157136909Y-104114487D01*
X157146480Y-104054055D01*
X157189745Y-104010790D01*
X157234690Y-104000000D01*
X161963310Y-104000000D01*
X162021501Y-104018907D01*
X162033314Y-104028996D01*
X164421598Y-106417279D01*
X164449375Y-106471796D01*
X164439804Y-106532228D01*
X164410383Y-106566938D01*
X164327849Y-106627851D01*
X164250603Y-106732517D01*
X164247207Y-106737118D01*
X164209116Y-106845976D01*
X164202353Y-106865304D01*
X164199716Y-106893422D01*
X164199715Y-106893439D01*
X164199500Y-106895734D01*
X164199500Y-107904266D01*
X164199715Y-107906561D01*
X164199716Y-107906577D01*
X164202353Y-107934695D01*
X164202353Y-107934697D01*
X164202354Y-107934699D01*
X164247207Y-108062882D01*
X164327850Y-108172150D01*
X164437118Y-108252793D01*
X164533200Y-108286413D01*
X164581878Y-108323476D01*
X164599500Y-108379856D01*
X164599500Y-108538811D01*
X164580593Y-108597002D01*
X164570504Y-108608814D01*
X164510802Y-108668516D01*
X164490447Y-108710155D01*
X164459427Y-108773607D01*
X164449500Y-108841740D01*
X164449500Y-110083260D01*
X164459427Y-110151393D01*
X164510802Y-110256483D01*
X164593517Y-110339198D01*
X164698607Y-110390573D01*
X164766740Y-110400500D01*
X164766743Y-110400500D01*
X165133257Y-110400500D01*
X165133260Y-110400500D01*
X165201393Y-110390573D01*
X165306483Y-110339198D01*
X165389198Y-110256483D01*
X165440573Y-110151393D01*
X165450500Y-110083260D01*
X165450500Y-108841740D01*
X165440573Y-108773607D01*
X165389198Y-108668517D01*
X165363349Y-108642668D01*
X165329496Y-108608814D01*
X165301719Y-108554297D01*
X165300500Y-108538812D01*
X165300500Y-108450368D01*
X165300500Y-108353610D01*
X165319406Y-108295423D01*
X165366800Y-108260169D01*
X165387882Y-108252793D01*
X165497150Y-108172150D01*
X165577793Y-108062882D01*
X165622646Y-107934699D01*
X165625500Y-107904266D01*
X165625500Y-106895734D01*
X165622646Y-106865301D01*
X165577793Y-106737118D01*
X165497150Y-106627850D01*
X165387882Y-106547207D01*
X165334351Y-106528475D01*
X165285672Y-106491411D01*
X165271246Y-106443371D01*
X165269586Y-106443578D01*
X165268363Y-106433772D01*
X165268075Y-106432811D01*
X165268156Y-106432106D01*
X165266769Y-106420981D01*
X165263760Y-106396837D01*
X165263000Y-106384592D01*
X165263000Y-106383459D01*
X165259749Y-106363977D01*
X165259159Y-106359930D01*
X165259152Y-106359875D01*
X165253073Y-106311107D01*
X165253072Y-106311105D01*
X165252396Y-106305682D01*
X165251193Y-106301926D01*
X165236991Y-106275684D01*
X165225181Y-106253860D01*
X165223313Y-106250231D01*
X165206276Y-106215381D01*
X165201698Y-106206016D01*
X165201696Y-106206014D01*
X165199301Y-106201114D01*
X165196936Y-106197941D01*
X165169342Y-106172539D01*
X165156721Y-106160920D01*
X165153794Y-106158112D01*
X163164686Y-104169004D01*
X163136909Y-104114487D01*
X163146480Y-104054055D01*
X163189745Y-104010790D01*
X163234690Y-104000000D01*
X168900499Y-104000000D01*
X168958690Y-104018907D01*
X168994654Y-104068407D01*
X168999498Y-104098998D01*
X168999498Y-110555447D01*
X168999498Y-116996757D01*
X168999286Y-117003233D01*
X168994008Y-117083746D01*
X168981180Y-117263115D01*
X168979530Y-117275365D01*
X168956822Y-117389530D01*
X168925919Y-117531591D01*
X168922930Y-117542360D01*
X168883639Y-117658106D01*
X168882651Y-117660880D01*
X168834506Y-117789963D01*
X168830538Y-117799153D01*
X168775308Y-117911147D01*
X168773408Y-117914805D01*
X168708628Y-118033442D01*
X168704053Y-118040999D01*
X168633993Y-118145850D01*
X168630932Y-118150177D01*
X168550614Y-118257469D01*
X168545792Y-118263415D01*
X168462310Y-118358608D01*
X168457882Y-118363337D01*
X168363337Y-118457882D01*
X168358608Y-118462310D01*
X168263409Y-118545797D01*
X168257462Y-118550619D01*
X168150183Y-118630927D01*
X168145857Y-118633988D01*
X168040992Y-118704057D01*
X168033435Y-118708632D01*
X167914817Y-118773402D01*
X167911158Y-118775302D01*
X167799146Y-118830540D01*
X167789957Y-118834508D01*
X167660874Y-118882653D01*
X167658100Y-118883641D01*
X167542366Y-118922928D01*
X167531587Y-118925920D01*
X167389528Y-118956823D01*
X167275359Y-118979532D01*
X167263121Y-118981180D01*
X167083980Y-118993993D01*
X167037821Y-118997018D01*
X167003195Y-118999288D01*
X166996734Y-118999500D01*
X71003241Y-118999500D01*
X70996766Y-118999288D01*
X70916351Y-118994017D01*
X70736867Y-118981179D01*
X70724618Y-118979529D01*
X70610581Y-118956847D01*
X70468385Y-118925914D01*
X70457618Y-118922925D01*
X70341967Y-118883667D01*
X70339192Y-118882679D01*
X70210013Y-118834497D01*
X70200824Y-118830529D01*
X70088889Y-118775329D01*
X70085229Y-118773429D01*
X69966543Y-118708621D01*
X69958988Y-118704047D01*
X69854189Y-118634023D01*
X69849861Y-118630960D01*
X69742500Y-118550590D01*
X69736554Y-118545769D01*
X69641420Y-118462339D01*
X69636691Y-118457911D01*
X69542087Y-118363307D01*
X69537659Y-118358578D01*
X69454229Y-118263444D01*
X69449408Y-118257498D01*
X69369038Y-118150137D01*
X69365990Y-118145830D01*
X69295944Y-118040999D01*
X69291382Y-118033463D01*
X69226547Y-117914727D01*
X69224669Y-117911109D01*
X69169469Y-117799174D01*
X69165505Y-117789995D01*
X69117291Y-117660727D01*
X69116357Y-117658106D01*
X69077066Y-117542359D01*
X69074088Y-117531630D01*
X69043161Y-117389462D01*
X69020465Y-117275360D01*
X69018820Y-117263147D01*
X69005986Y-117083708D01*
X69000712Y-117003233D01*
X69000500Y-116996761D01*
X69000500Y-105122264D01*
X69349500Y-105122264D01*
X69349714Y-105124553D01*
X69349715Y-105124560D01*
X69352314Y-105152276D01*
X69396543Y-105278676D01*
X69396544Y-105278678D01*
X69396545Y-105278679D01*
X69476070Y-105386430D01*
X69583821Y-105465955D01*
X69583822Y-105465955D01*
X69583823Y-105465956D01*
X69621807Y-105479247D01*
X69710226Y-105510186D01*
X69740236Y-105513000D01*
X69800500Y-105513000D01*
X69858691Y-105531907D01*
X69894655Y-105581407D01*
X69899500Y-105612000D01*
X69899500Y-105963211D01*
X69880593Y-106021402D01*
X69860769Y-106041752D01*
X69821717Y-106071718D01*
X69725464Y-106197158D01*
X69664955Y-106343238D01*
X69644318Y-106500000D01*
X69664955Y-106656761D01*
X69725464Y-106802841D01*
X69821717Y-106928282D01*
X69917970Y-107002139D01*
X69947159Y-107024536D01*
X70093238Y-107085044D01*
X70250000Y-107105682D01*
X70406762Y-107085044D01*
X70552841Y-107024536D01*
X70678282Y-106928282D01*
X70774536Y-106802841D01*
X70835044Y-106656762D01*
X70855682Y-106500000D01*
X70835044Y-106343238D01*
X70774536Y-106197159D01*
X70678282Y-106071718D01*
X70675801Y-106069814D01*
X70639231Y-106041752D01*
X70604576Y-105991326D01*
X70600500Y-105963211D01*
X70600500Y-105612000D01*
X70619407Y-105553809D01*
X70668907Y-105517845D01*
X70699500Y-105513000D01*
X70757453Y-105513000D01*
X70759764Y-105513000D01*
X70789774Y-105510186D01*
X70916179Y-105465955D01*
X71023930Y-105386430D01*
X71103455Y-105278679D01*
X71147686Y-105152274D01*
X71150500Y-105122264D01*
X71150500Y-105116766D01*
X71499500Y-105116766D01*
X71499715Y-105119061D01*
X71499716Y-105119077D01*
X71502353Y-105147195D01*
X71502353Y-105147197D01*
X71502354Y-105147199D01*
X71547207Y-105275382D01*
X71627850Y-105384650D01*
X71737118Y-105465293D01*
X71865301Y-105510146D01*
X71895734Y-105513000D01*
X71950500Y-105513000D01*
X72008691Y-105531907D01*
X72044655Y-105581407D01*
X72049500Y-105612000D01*
X72049500Y-106603381D01*
X72047393Y-106623696D01*
X72044957Y-106635315D01*
X72047631Y-106656762D01*
X72048740Y-106665661D01*
X72049500Y-106677907D01*
X72049500Y-106679041D01*
X72052751Y-106698528D01*
X72053340Y-106702572D01*
X72060101Y-106756804D01*
X72061312Y-106760585D01*
X72087322Y-106808646D01*
X72089194Y-106812284D01*
X72107643Y-106850023D01*
X72113198Y-106861385D01*
X72115568Y-106864564D01*
X72155764Y-106901567D01*
X72158717Y-106904399D01*
X73863134Y-108608816D01*
X75452137Y-110197818D01*
X75479914Y-110252335D01*
X75470343Y-110312767D01*
X75427078Y-110356032D01*
X75414831Y-110361266D01*
X75312118Y-110397206D01*
X75267475Y-110430155D01*
X75209428Y-110449497D01*
X75208687Y-110449500D01*
X73066237Y-110449500D01*
X72965713Y-110464652D01*
X72913708Y-110489696D01*
X72870754Y-110499500D01*
X72405252Y-110499500D01*
X72376010Y-110505316D01*
X72346768Y-110511133D01*
X72280447Y-110555447D01*
X72236133Y-110621768D01*
X72236132Y-110621769D01*
X72236133Y-110621769D01*
X72224500Y-110680252D01*
X72224500Y-111119748D01*
X72232595Y-111160444D01*
X72239975Y-111197545D01*
X72238484Y-111197841D01*
X72247240Y-111228886D01*
X72239607Y-111252381D01*
X72239975Y-111252455D01*
X72236133Y-111271768D01*
X72236133Y-111271769D01*
X72224500Y-111330252D01*
X72224500Y-111769748D01*
X72234345Y-111819240D01*
X72239975Y-111847545D01*
X72238483Y-111847841D01*
X72247239Y-111878892D01*
X72239606Y-111902381D01*
X72239975Y-111902455D01*
X72236133Y-111921768D01*
X72236133Y-111921769D01*
X72224500Y-111980252D01*
X72224500Y-112419748D01*
X72236133Y-112478231D01*
X72239975Y-112497545D01*
X72238483Y-112497841D01*
X72247239Y-112528892D01*
X72239607Y-112552382D01*
X72239975Y-112552456D01*
X72236133Y-112571768D01*
X72236133Y-112571769D01*
X72224500Y-112630252D01*
X72224500Y-112630253D01*
X72224500Y-113069746D01*
X72236133Y-113128231D01*
X72280447Y-113194552D01*
X72324762Y-113224162D01*
X72346769Y-113238867D01*
X72405252Y-113250500D01*
X72405253Y-113250500D01*
X73794747Y-113250500D01*
X73794748Y-113250500D01*
X73853231Y-113238867D01*
X73919552Y-113194552D01*
X73963867Y-113128231D01*
X73975500Y-113069748D01*
X73975500Y-112630252D01*
X73963867Y-112571769D01*
X73963866Y-112571768D01*
X73960025Y-112552455D01*
X73961514Y-112552158D01*
X73952759Y-112521116D01*
X73960394Y-112497619D01*
X73960025Y-112497546D01*
X73963867Y-112478231D01*
X73975500Y-112419748D01*
X73975500Y-111980252D01*
X73963867Y-111921769D01*
X73963866Y-111921768D01*
X73960025Y-111902454D01*
X73961514Y-111902157D01*
X73952759Y-111871122D01*
X73960395Y-111847619D01*
X73960025Y-111847546D01*
X73966325Y-111815875D01*
X73975500Y-111769748D01*
X73975500Y-111449500D01*
X73994407Y-111391309D01*
X74043907Y-111355345D01*
X74074500Y-111350500D01*
X74995143Y-111350500D01*
X75053334Y-111369407D01*
X75088587Y-111416802D01*
X75122206Y-111512881D01*
X75122207Y-111512882D01*
X75202850Y-111622150D01*
X75312118Y-111702793D01*
X75440301Y-111747646D01*
X75470734Y-111750500D01*
X76253442Y-111750500D01*
X76310966Y-111768927D01*
X76326270Y-111779853D01*
X76329523Y-111782277D01*
X76368374Y-111812517D01*
X76368375Y-111812517D01*
X76372689Y-111815875D01*
X76376197Y-111817680D01*
X76381432Y-111819238D01*
X76381434Y-111819240D01*
X76428567Y-111833272D01*
X76432463Y-111834520D01*
X76479216Y-111850570D01*
X76528115Y-111887347D01*
X76546057Y-111945842D01*
X76538535Y-111982091D01*
X76513414Y-112042736D01*
X76492777Y-112199499D01*
X76513414Y-112356261D01*
X76573923Y-112502341D01*
X76670176Y-112627782D01*
X76724868Y-112669748D01*
X76795618Y-112724036D01*
X76941697Y-112784544D01*
X77098459Y-112805182D01*
X77255221Y-112784544D01*
X77401300Y-112724036D01*
X77526741Y-112627782D01*
X77622995Y-112502341D01*
X77660575Y-112411613D01*
X77700312Y-112365089D01*
X77752039Y-112350500D01*
X78369747Y-112350500D01*
X78369748Y-112350500D01*
X78428231Y-112338867D01*
X78494552Y-112294552D01*
X78538867Y-112228231D01*
X78550500Y-112169748D01*
X78550500Y-111830252D01*
X78538867Y-111771769D01*
X78538866Y-111771768D01*
X78538378Y-111769313D01*
X78538378Y-111730684D01*
X78538865Y-111728233D01*
X78538867Y-111728231D01*
X78550500Y-111669748D01*
X78550500Y-111330252D01*
X78538867Y-111271769D01*
X78510213Y-111228886D01*
X78494552Y-111205447D01*
X78428231Y-111161133D01*
X78415728Y-111158646D01*
X78369748Y-111149500D01*
X78369747Y-111149500D01*
X77024500Y-111149500D01*
X76966309Y-111130593D01*
X76930345Y-111081093D01*
X76925500Y-111050500D01*
X76925500Y-110748045D01*
X76925500Y-110745734D01*
X76922646Y-110715301D01*
X76877793Y-110587118D01*
X76797150Y-110477850D01*
X76687882Y-110397207D01*
X76559699Y-110352354D01*
X76559697Y-110352353D01*
X76559695Y-110352353D01*
X76531577Y-110349716D01*
X76531561Y-110349715D01*
X76529266Y-110349500D01*
X76526955Y-110349500D01*
X76453041Y-110349500D01*
X76394850Y-110330593D01*
X76358886Y-110281093D01*
X76354801Y-110262745D01*
X76354020Y-110256483D01*
X76351260Y-110234337D01*
X76350500Y-110222092D01*
X76350500Y-110220959D01*
X76347249Y-110201477D01*
X76346659Y-110197430D01*
X76340920Y-110151393D01*
X76340573Y-110148607D01*
X76340572Y-110148605D01*
X76339896Y-110143182D01*
X76338693Y-110139426D01*
X76312686Y-110091370D01*
X76310813Y-110087731D01*
X76298978Y-110063523D01*
X76289198Y-110043516D01*
X76289196Y-110043514D01*
X76286801Y-110038614D01*
X76284436Y-110035441D01*
X76280418Y-110031742D01*
X76244221Y-109998420D01*
X76241294Y-109995612D01*
X72779496Y-106533814D01*
X72751719Y-106479297D01*
X72750500Y-106463810D01*
X72750500Y-105612000D01*
X72769407Y-105553809D01*
X72818907Y-105517845D01*
X72849500Y-105513000D01*
X72901955Y-105513000D01*
X72904266Y-105513000D01*
X72934699Y-105510146D01*
X73062882Y-105465293D01*
X73172150Y-105384650D01*
X73252793Y-105275382D01*
X73297646Y-105147199D01*
X73300500Y-105116766D01*
X73300500Y-104483234D01*
X73297646Y-104452801D01*
X73252793Y-104324618D01*
X73172150Y-104215350D01*
X73062882Y-104134707D01*
X72934699Y-104089854D01*
X72934697Y-104089853D01*
X72934695Y-104089853D01*
X72906577Y-104087216D01*
X72906561Y-104087215D01*
X72904266Y-104087000D01*
X71895734Y-104087000D01*
X71893439Y-104087215D01*
X71893422Y-104087216D01*
X71865304Y-104089853D01*
X71865301Y-104089853D01*
X71865301Y-104089854D01*
X71737118Y-104134707D01*
X71737117Y-104134707D01*
X71737116Y-104134708D01*
X71627850Y-104215350D01*
X71550361Y-104320345D01*
X71547207Y-104324618D01*
X71511926Y-104425447D01*
X71502353Y-104452804D01*
X71499716Y-104480922D01*
X71499715Y-104480939D01*
X71499500Y-104483234D01*
X71499500Y-105116766D01*
X71150500Y-105116766D01*
X71150500Y-104527736D01*
X71147686Y-104497726D01*
X71147685Y-104497723D01*
X71103456Y-104371323D01*
X71092375Y-104356309D01*
X71023930Y-104263570D01*
X70916179Y-104184045D01*
X70916178Y-104184044D01*
X70916176Y-104184043D01*
X70789776Y-104139814D01*
X70762060Y-104137215D01*
X70762053Y-104137214D01*
X70759764Y-104137000D01*
X69740236Y-104137000D01*
X69737947Y-104137214D01*
X69737939Y-104137215D01*
X69710223Y-104139814D01*
X69583823Y-104184043D01*
X69476070Y-104263570D01*
X69396543Y-104371323D01*
X69352314Y-104497723D01*
X69352314Y-104497726D01*
X69349500Y-104527736D01*
X69349500Y-105122264D01*
X69000500Y-105122264D01*
X69000500Y-103247264D01*
X69349500Y-103247264D01*
X69349714Y-103249553D01*
X69349715Y-103249560D01*
X69352314Y-103277276D01*
X69396543Y-103403676D01*
X69396544Y-103403678D01*
X69396545Y-103403679D01*
X69476070Y-103511430D01*
X69583821Y-103590955D01*
X69583822Y-103590955D01*
X69583823Y-103590956D01*
X69710223Y-103635185D01*
X69710226Y-103635186D01*
X69740236Y-103638000D01*
X69742547Y-103638000D01*
X70757453Y-103638000D01*
X70759764Y-103638000D01*
X70789774Y-103635186D01*
X70916179Y-103590955D01*
X71023930Y-103511430D01*
X71103455Y-103403679D01*
X71116358Y-103366802D01*
X71153424Y-103318122D01*
X71209803Y-103300500D01*
X71424517Y-103300500D01*
X71482708Y-103319407D01*
X71517961Y-103366802D01*
X71547206Y-103450381D01*
X71564475Y-103473780D01*
X71627850Y-103559650D01*
X71737118Y-103640293D01*
X71865301Y-103685146D01*
X71895734Y-103688000D01*
X71898045Y-103688000D01*
X72901955Y-103688000D01*
X72904266Y-103688000D01*
X72934699Y-103685146D01*
X73062882Y-103640293D01*
X73172150Y-103559650D01*
X73252793Y-103450382D01*
X73297646Y-103322199D01*
X73300500Y-103291766D01*
X73300500Y-102658234D01*
X73297646Y-102627801D01*
X73252793Y-102499618D01*
X73172150Y-102390350D01*
X73062882Y-102309707D01*
X72934699Y-102264854D01*
X72934697Y-102264853D01*
X72934695Y-102264853D01*
X72906577Y-102262216D01*
X72906561Y-102262215D01*
X72904266Y-102262000D01*
X71895734Y-102262000D01*
X71893439Y-102262215D01*
X71893422Y-102262216D01*
X71865304Y-102264853D01*
X71865301Y-102264853D01*
X71865301Y-102264854D01*
X71737118Y-102309707D01*
X71737117Y-102309707D01*
X71737116Y-102309708D01*
X71627850Y-102390350D01*
X71549639Y-102496323D01*
X71547207Y-102499618D01*
X71535456Y-102533198D01*
X71498393Y-102581878D01*
X71442013Y-102599500D01*
X71209803Y-102599500D01*
X71151612Y-102580593D01*
X71116359Y-102533198D01*
X71103456Y-102496323D01*
X71066883Y-102446769D01*
X71023930Y-102388570D01*
X70916179Y-102309045D01*
X70916178Y-102309044D01*
X70916176Y-102309043D01*
X70789776Y-102264814D01*
X70762060Y-102262215D01*
X70762053Y-102262214D01*
X70759764Y-102262000D01*
X69740236Y-102262000D01*
X69737947Y-102262214D01*
X69737939Y-102262215D01*
X69710223Y-102264814D01*
X69583823Y-102309043D01*
X69476070Y-102388570D01*
X69396543Y-102496323D01*
X69352314Y-102622723D01*
X69349875Y-102648740D01*
X69349500Y-102652736D01*
X69349500Y-103247264D01*
X69000500Y-103247264D01*
X69000500Y-101116766D01*
X71499500Y-101116766D01*
X71499715Y-101119061D01*
X71499716Y-101119077D01*
X71502353Y-101147195D01*
X71502353Y-101147197D01*
X71502354Y-101147199D01*
X71547207Y-101275382D01*
X71627850Y-101384650D01*
X71737118Y-101465293D01*
X71865301Y-101510146D01*
X71895734Y-101513000D01*
X71898045Y-101513000D01*
X72901955Y-101513000D01*
X72904266Y-101513000D01*
X72934699Y-101510146D01*
X73062882Y-101465293D01*
X73172150Y-101384650D01*
X73252793Y-101275382D01*
X73273291Y-101216801D01*
X73310356Y-101168122D01*
X73366735Y-101150500D01*
X73613810Y-101150500D01*
X73672001Y-101169407D01*
X73683814Y-101179496D01*
X76219198Y-103714880D01*
X76232070Y-103730732D01*
X76238563Y-103740669D01*
X76257800Y-103755641D01*
X76262689Y-103759447D01*
X76271880Y-103767563D01*
X76272691Y-103768374D01*
X76288767Y-103779852D01*
X76292048Y-103782298D01*
X76335186Y-103815873D01*
X76338698Y-103817681D01*
X76343933Y-103819239D01*
X76343934Y-103819240D01*
X76391085Y-103833277D01*
X76394967Y-103834520D01*
X76441512Y-103850500D01*
X76441514Y-103850500D01*
X76446673Y-103852271D01*
X76450593Y-103852842D01*
X76456045Y-103852616D01*
X76456047Y-103852617D01*
X76505186Y-103850584D01*
X76509277Y-103850500D01*
X78463212Y-103850500D01*
X78521403Y-103869407D01*
X78541754Y-103889233D01*
X78571717Y-103928282D01*
X78653148Y-103990765D01*
X78697159Y-104024536D01*
X78843238Y-104085044D01*
X79000000Y-104105682D01*
X79156762Y-104085044D01*
X79302841Y-104024536D01*
X79428282Y-103928282D01*
X79524536Y-103802841D01*
X79585044Y-103656762D01*
X79605682Y-103500000D01*
X79585044Y-103343238D01*
X79524536Y-103197159D01*
X79484838Y-103145423D01*
X79428282Y-103071717D01*
X79302841Y-102975464D01*
X79156761Y-102914955D01*
X79000000Y-102894318D01*
X78843238Y-102914955D01*
X78697158Y-102975464D01*
X78571717Y-103071717D01*
X78541754Y-103110767D01*
X78491330Y-103145423D01*
X78463212Y-103149500D01*
X76686189Y-103149500D01*
X76627998Y-103130593D01*
X76616185Y-103120504D01*
X74080801Y-100585119D01*
X74067925Y-100569262D01*
X74061436Y-100559330D01*
X74037309Y-100540551D01*
X74028118Y-100532435D01*
X74027310Y-100531627D01*
X74011228Y-100520145D01*
X74007949Y-100517700D01*
X73993538Y-100506484D01*
X73969126Y-100487483D01*
X73969124Y-100487482D01*
X73964822Y-100484134D01*
X73961292Y-100482316D01*
X73908909Y-100466720D01*
X73905016Y-100465472D01*
X73853328Y-100447728D01*
X73849408Y-100447157D01*
X73799065Y-100449239D01*
X73794823Y-100449415D01*
X73790733Y-100449500D01*
X73366735Y-100449500D01*
X73308544Y-100430593D01*
X73273291Y-100383198D01*
X73252793Y-100324618D01*
X73172150Y-100215350D01*
X73062882Y-100134707D01*
X72934699Y-100089854D01*
X72934697Y-100089853D01*
X72934695Y-100089853D01*
X72906577Y-100087216D01*
X72906561Y-100087215D01*
X72904266Y-100087000D01*
X71895734Y-100087000D01*
X71893439Y-100087215D01*
X71893422Y-100087216D01*
X71865304Y-100089853D01*
X71865301Y-100089853D01*
X71865301Y-100089854D01*
X71737118Y-100134707D01*
X71737117Y-100134707D01*
X71737116Y-100134708D01*
X71627850Y-100215350D01*
X71552313Y-100317700D01*
X71547207Y-100324618D01*
X71515448Y-100415381D01*
X71502353Y-100452804D01*
X71499716Y-100480922D01*
X71499715Y-100480939D01*
X71499500Y-100483234D01*
X71499500Y-101116766D01*
X69000500Y-101116766D01*
X69000500Y-99209764D01*
X69349500Y-99209764D01*
X69349714Y-99212053D01*
X69349715Y-99212060D01*
X69352314Y-99239776D01*
X69396543Y-99366176D01*
X69396544Y-99366178D01*
X69396545Y-99366179D01*
X69476070Y-99473930D01*
X69583821Y-99553455D01*
X69583822Y-99553455D01*
X69583823Y-99553456D01*
X69657493Y-99579234D01*
X69710226Y-99597686D01*
X69740236Y-99600500D01*
X69742547Y-99600500D01*
X70757453Y-99600500D01*
X70759764Y-99600500D01*
X70789774Y-99597686D01*
X70916179Y-99553455D01*
X71023930Y-99473930D01*
X71103455Y-99366179D01*
X71116358Y-99329302D01*
X71153424Y-99280622D01*
X71209803Y-99263000D01*
X71411396Y-99263000D01*
X71469587Y-99281907D01*
X71504838Y-99329299D01*
X71547207Y-99450382D01*
X71627850Y-99559650D01*
X71737118Y-99640293D01*
X71865301Y-99685146D01*
X71895734Y-99688000D01*
X71898045Y-99688000D01*
X72901955Y-99688000D01*
X72904266Y-99688000D01*
X72934699Y-99685146D01*
X73062882Y-99640293D01*
X73172150Y-99559650D01*
X73252793Y-99450382D01*
X73297646Y-99322199D01*
X73300500Y-99291766D01*
X73300500Y-98658234D01*
X73297646Y-98627801D01*
X73252793Y-98499618D01*
X73172150Y-98390350D01*
X73062882Y-98309707D01*
X72934699Y-98264854D01*
X72934697Y-98264853D01*
X72934695Y-98264853D01*
X72906577Y-98262216D01*
X72906561Y-98262215D01*
X72904266Y-98262000D01*
X71895734Y-98262000D01*
X71893439Y-98262215D01*
X71893422Y-98262216D01*
X71865304Y-98264853D01*
X71865301Y-98264853D01*
X71865301Y-98264854D01*
X71737118Y-98309707D01*
X71737117Y-98309707D01*
X71737116Y-98309708D01*
X71627850Y-98390350D01*
X71538346Y-98511624D01*
X71537133Y-98510729D01*
X71511510Y-98544380D01*
X71455134Y-98562000D01*
X71209803Y-98562000D01*
X71151612Y-98543093D01*
X71116359Y-98495698D01*
X71103456Y-98458823D01*
X71090525Y-98441302D01*
X71023930Y-98351070D01*
X70916179Y-98271545D01*
X70916178Y-98271544D01*
X70916176Y-98271543D01*
X70789776Y-98227314D01*
X70762060Y-98224715D01*
X70762053Y-98224714D01*
X70759764Y-98224500D01*
X69740236Y-98224500D01*
X69737947Y-98224714D01*
X69737939Y-98224715D01*
X69710223Y-98227314D01*
X69583823Y-98271543D01*
X69476070Y-98351070D01*
X69396543Y-98458823D01*
X69352314Y-98585223D01*
X69349824Y-98611786D01*
X69349500Y-98615236D01*
X69349500Y-99209764D01*
X69000500Y-99209764D01*
X69000500Y-97269748D01*
X69749500Y-97269748D01*
X69753587Y-97290293D01*
X69761133Y-97328231D01*
X69805447Y-97394552D01*
X69849761Y-97424162D01*
X69871769Y-97438867D01*
X69930252Y-97450500D01*
X69930253Y-97450500D01*
X70969747Y-97450500D01*
X70969748Y-97450500D01*
X71028231Y-97438867D01*
X71094552Y-97394552D01*
X71138867Y-97328231D01*
X71150500Y-97269748D01*
X71150500Y-96230252D01*
X71138867Y-96171769D01*
X71111354Y-96130593D01*
X71094552Y-96105447D01*
X71028231Y-96061133D01*
X70969748Y-96049500D01*
X69930252Y-96049500D01*
X69901010Y-96055316D01*
X69871768Y-96061133D01*
X69805447Y-96105447D01*
X69761133Y-96171768D01*
X69761132Y-96171769D01*
X69761133Y-96171769D01*
X69749500Y-96230252D01*
X69749500Y-97269748D01*
X69000500Y-97269748D01*
X69000500Y-95043937D01*
X69515669Y-95043937D01*
X69546134Y-95216712D01*
X69607490Y-95358949D01*
X69615623Y-95377804D01*
X69720390Y-95518530D01*
X69763964Y-95555093D01*
X69854783Y-95631300D01*
X69854784Y-95631300D01*
X69854786Y-95631302D01*
X70003750Y-95706114D01*
X70011569Y-95710041D01*
X70182277Y-95750500D01*
X70182279Y-95750500D01*
X70310825Y-95750500D01*
X70313709Y-95750500D01*
X70444255Y-95735241D01*
X70609117Y-95675237D01*
X70617463Y-95669748D01*
X71749500Y-95669748D01*
X71755518Y-95700000D01*
X71761133Y-95728231D01*
X71805447Y-95794552D01*
X71849761Y-95824162D01*
X71871769Y-95838867D01*
X71930252Y-95850500D01*
X71930253Y-95850500D01*
X72769747Y-95850500D01*
X72769748Y-95850500D01*
X72828231Y-95838867D01*
X72894552Y-95794552D01*
X72938867Y-95728231D01*
X72950500Y-95669748D01*
X72950500Y-94830252D01*
X72938867Y-94771769D01*
X72922447Y-94747195D01*
X72894552Y-94705447D01*
X72828231Y-94661133D01*
X72802893Y-94656093D01*
X72769748Y-94649500D01*
X71930252Y-94649500D01*
X71901010Y-94655316D01*
X71871768Y-94661133D01*
X71805447Y-94705447D01*
X71761133Y-94771768D01*
X71755316Y-94801010D01*
X71749500Y-94830252D01*
X71749500Y-95669748D01*
X70617463Y-95669748D01*
X70755696Y-95578830D01*
X70876092Y-95451218D01*
X70963812Y-95299281D01*
X71014130Y-95131210D01*
X71024331Y-94956065D01*
X70993865Y-94783289D01*
X70993865Y-94783287D01*
X70945301Y-94670703D01*
X70924377Y-94622196D01*
X70819610Y-94481470D01*
X70752411Y-94425084D01*
X70685216Y-94368699D01*
X70528430Y-94289958D01*
X70357723Y-94249500D01*
X70357721Y-94249500D01*
X70226291Y-94249500D01*
X70223435Y-94249833D01*
X70223432Y-94249834D01*
X70095743Y-94264759D01*
X69930882Y-94324763D01*
X69784304Y-94421169D01*
X69663909Y-94548780D01*
X69576188Y-94700719D01*
X69525870Y-94868789D01*
X69522469Y-94927171D01*
X69516769Y-95025058D01*
X69515669Y-95043937D01*
X69000500Y-95043937D01*
X69000500Y-93419748D01*
X71749500Y-93419748D01*
X71759196Y-93468494D01*
X71761133Y-93478231D01*
X71805447Y-93544552D01*
X71849762Y-93574162D01*
X71871769Y-93588867D01*
X71930252Y-93600500D01*
X71930253Y-93600500D01*
X72769747Y-93600500D01*
X72769748Y-93600500D01*
X72828231Y-93588867D01*
X72894552Y-93544552D01*
X72938867Y-93478231D01*
X72948423Y-93430185D01*
X72978321Y-93376802D01*
X73033886Y-93351186D01*
X73045522Y-93350500D01*
X73513810Y-93350500D01*
X73572001Y-93369407D01*
X73583814Y-93379496D01*
X73770504Y-93566186D01*
X73798281Y-93620703D01*
X73799500Y-93636190D01*
X73799500Y-96203381D01*
X73797393Y-96223696D01*
X73796019Y-96230252D01*
X73794957Y-96235315D01*
X73797496Y-96255681D01*
X73798740Y-96265661D01*
X73799500Y-96277907D01*
X73799500Y-96279041D01*
X73802751Y-96298528D01*
X73803340Y-96302572D01*
X73810101Y-96356804D01*
X73811312Y-96360585D01*
X73837322Y-96408646D01*
X73839195Y-96412285D01*
X73863198Y-96461385D01*
X73865568Y-96464564D01*
X73905764Y-96501567D01*
X73908717Y-96504399D01*
X76369196Y-98964877D01*
X76382071Y-98980733D01*
X76388562Y-98990669D01*
X76412687Y-99009445D01*
X76421886Y-99017567D01*
X76422696Y-99018377D01*
X76438771Y-99029854D01*
X76442023Y-99032278D01*
X76480874Y-99062517D01*
X76480875Y-99062517D01*
X76485189Y-99065875D01*
X76488697Y-99067680D01*
X76493932Y-99069238D01*
X76493934Y-99069240D01*
X76541067Y-99083272D01*
X76544963Y-99084520D01*
X76565775Y-99091664D01*
X76591512Y-99100500D01*
X76591514Y-99100500D01*
X76596673Y-99102271D01*
X76600591Y-99102842D01*
X76606044Y-99102616D01*
X76606046Y-99102617D01*
X76655176Y-99100584D01*
X76659267Y-99100500D01*
X82530484Y-99100500D01*
X82588675Y-99119407D01*
X82624639Y-99168907D01*
X82624639Y-99230093D01*
X82623929Y-99232197D01*
X82622207Y-99237117D01*
X82622207Y-99237118D01*
X82613151Y-99263000D01*
X82577353Y-99365304D01*
X82574716Y-99393422D01*
X82574715Y-99393439D01*
X82574500Y-99395734D01*
X82574500Y-100004266D01*
X82574715Y-100006561D01*
X82574716Y-100006577D01*
X82577353Y-100034695D01*
X82577353Y-100034697D01*
X82577354Y-100034699D01*
X82622207Y-100162882D01*
X82702850Y-100272150D01*
X82812118Y-100352793D01*
X82940301Y-100397646D01*
X82970734Y-100400500D01*
X82973045Y-100400500D01*
X84026955Y-100400500D01*
X84029266Y-100400500D01*
X84059699Y-100397646D01*
X84187882Y-100352793D01*
X84297150Y-100272150D01*
X84377793Y-100162882D01*
X84396234Y-100110178D01*
X84407039Y-100079302D01*
X84444104Y-100030622D01*
X84500483Y-100013000D01*
X84533265Y-100013000D01*
X84591456Y-100031907D01*
X84626708Y-100079301D01*
X84647207Y-100137882D01*
X84727850Y-100247150D01*
X84837118Y-100327793D01*
X84965301Y-100372646D01*
X84995734Y-100375500D01*
X84998045Y-100375500D01*
X86001955Y-100375500D01*
X86004266Y-100375500D01*
X86034699Y-100372646D01*
X86162882Y-100327793D01*
X86272150Y-100247150D01*
X86352793Y-100137882D01*
X86373291Y-100079301D01*
X86410356Y-100030622D01*
X86466735Y-100013000D01*
X86533265Y-100013000D01*
X86591456Y-100031907D01*
X86626708Y-100079301D01*
X86647207Y-100137882D01*
X86727850Y-100247150D01*
X86837118Y-100327793D01*
X86965301Y-100372646D01*
X86995734Y-100375500D01*
X87083334Y-100375500D01*
X87141525Y-100394407D01*
X87170402Y-100427381D01*
X87187322Y-100458646D01*
X87189194Y-100462284D01*
X87210692Y-100506260D01*
X87213198Y-100511385D01*
X87215568Y-100514564D01*
X87255764Y-100551567D01*
X87258717Y-100554399D01*
X87519198Y-100814880D01*
X87532070Y-100830732D01*
X87538563Y-100840669D01*
X87557800Y-100855641D01*
X87562689Y-100859447D01*
X87571880Y-100867563D01*
X87572688Y-100868371D01*
X87572691Y-100868373D01*
X87572693Y-100868375D01*
X87588768Y-100879852D01*
X87592038Y-100882290D01*
X87635186Y-100915873D01*
X87638697Y-100917680D01*
X87643932Y-100919238D01*
X87643934Y-100919240D01*
X87691067Y-100933272D01*
X87694963Y-100934520D01*
X87715775Y-100941664D01*
X87741512Y-100950500D01*
X87741514Y-100950500D01*
X87746673Y-100952271D01*
X87750591Y-100952842D01*
X87756044Y-100952616D01*
X87756046Y-100952617D01*
X87805176Y-100950584D01*
X87809267Y-100950500D01*
X88013810Y-100950500D01*
X88072001Y-100969407D01*
X88083814Y-100979496D01*
X88220504Y-101116186D01*
X88248281Y-101170703D01*
X88249500Y-101186190D01*
X88249500Y-101994746D01*
X88261133Y-102053231D01*
X88305447Y-102119552D01*
X88377482Y-102167685D01*
X88415361Y-102215735D01*
X88417763Y-102276874D01*
X88383769Y-102327747D01*
X88377482Y-102332315D01*
X88305447Y-102380447D01*
X88261133Y-102446768D01*
X88261132Y-102446769D01*
X88261133Y-102446769D01*
X88251277Y-102496321D01*
X88249500Y-102505253D01*
X88249500Y-102550500D01*
X88230593Y-102608691D01*
X88181093Y-102644655D01*
X88150500Y-102649500D01*
X87796619Y-102649500D01*
X87776303Y-102647393D01*
X87764685Y-102644957D01*
X87734337Y-102648740D01*
X87722092Y-102649500D01*
X87720960Y-102649500D01*
X87714534Y-102650571D01*
X87701471Y-102652751D01*
X87697431Y-102653339D01*
X87643203Y-102660100D01*
X87639409Y-102661316D01*
X87591345Y-102687325D01*
X87587712Y-102689195D01*
X87538622Y-102713195D01*
X87535429Y-102715576D01*
X87498422Y-102755774D01*
X87495592Y-102758724D01*
X87401314Y-102853003D01*
X87346798Y-102880781D01*
X87331310Y-102882000D01*
X87187361Y-102882000D01*
X87129170Y-102863093D01*
X87093917Y-102815698D01*
X87077793Y-102769618D01*
X86997150Y-102660350D01*
X86887882Y-102579707D01*
X86759699Y-102534854D01*
X86759697Y-102534853D01*
X86759695Y-102534853D01*
X86731577Y-102532216D01*
X86731561Y-102532215D01*
X86729266Y-102532000D01*
X85670734Y-102532000D01*
X85668439Y-102532215D01*
X85668422Y-102532216D01*
X85640304Y-102534853D01*
X85640301Y-102534853D01*
X85640301Y-102534854D01*
X85512118Y-102579707D01*
X85512117Y-102579707D01*
X85512116Y-102579708D01*
X85390844Y-102669211D01*
X85389328Y-102667157D01*
X85357555Y-102689881D01*
X85327669Y-102694500D01*
X84872331Y-102694500D01*
X84814140Y-102675593D01*
X84803519Y-102665050D01*
X84714701Y-102599500D01*
X84687882Y-102579707D01*
X84559699Y-102534854D01*
X84559697Y-102534853D01*
X84559695Y-102534853D01*
X84531577Y-102532216D01*
X84531561Y-102532215D01*
X84529266Y-102532000D01*
X83470734Y-102532000D01*
X83468439Y-102532215D01*
X83468422Y-102532216D01*
X83440304Y-102534853D01*
X83440301Y-102534853D01*
X83440301Y-102534854D01*
X83312118Y-102579707D01*
X83312117Y-102579707D01*
X83312116Y-102579708D01*
X83190844Y-102669211D01*
X83189134Y-102666894D01*
X83158178Y-102689030D01*
X83117216Y-102693025D01*
X83087963Y-102689729D01*
X83031336Y-102700443D01*
X83027690Y-102701063D01*
X82967294Y-102710167D01*
X82957578Y-102713364D01*
X82903563Y-102741911D01*
X82900262Y-102743578D01*
X82845251Y-102770071D01*
X82836896Y-102775999D01*
X82793719Y-102819175D01*
X82791056Y-102821741D01*
X82746271Y-102863297D01*
X82735297Y-102877597D01*
X81703265Y-103909630D01*
X81694989Y-103917025D01*
X81666030Y-103940120D01*
X81633556Y-103987749D01*
X81631416Y-103990765D01*
X81595156Y-104039896D01*
X81590543Y-104049034D01*
X81572536Y-104107410D01*
X81571380Y-104110923D01*
X81551214Y-104168557D01*
X81549500Y-104178648D01*
X81549500Y-104239715D01*
X81549431Y-104243417D01*
X81547146Y-104304469D01*
X81549500Y-104322344D01*
X81549500Y-106673388D01*
X81530593Y-106731579D01*
X81481093Y-106767543D01*
X81419907Y-106767543D01*
X81380497Y-106743392D01*
X80940367Y-106303263D01*
X80932968Y-106294983D01*
X80909878Y-106266028D01*
X80862259Y-106233562D01*
X80859241Y-106231421D01*
X80836695Y-106214781D01*
X80812882Y-106197207D01*
X80812880Y-106197206D01*
X80810094Y-106195150D01*
X80800976Y-106190547D01*
X80796210Y-106189077D01*
X80774004Y-106182227D01*
X80742596Y-106172539D01*
X80739081Y-106171382D01*
X80681439Y-106151213D01*
X80671353Y-106149500D01*
X80667902Y-106149500D01*
X80610284Y-106149500D01*
X80606582Y-106149431D01*
X80545532Y-106147146D01*
X80527655Y-106149500D01*
X79269266Y-106149500D01*
X79211075Y-106130593D01*
X79175111Y-106081093D01*
X79172168Y-106069814D01*
X79160731Y-106012318D01*
X79160100Y-106009145D01*
X79064113Y-105726377D01*
X78932039Y-105458556D01*
X78766137Y-105210266D01*
X78569246Y-104985754D01*
X78453788Y-104884500D01*
X78347172Y-104791001D01*
X78347171Y-104791000D01*
X78344734Y-104788863D01*
X78336649Y-104783461D01*
X78099138Y-104624761D01*
X78099137Y-104624760D01*
X78096444Y-104622961D01*
X78093536Y-104621527D01*
X78093531Y-104621524D01*
X77831537Y-104492324D01*
X77831536Y-104492323D01*
X77828623Y-104490887D01*
X77825553Y-104489845D01*
X77825551Y-104489844D01*
X77548920Y-104395940D01*
X77548913Y-104395938D01*
X77545855Y-104394900D01*
X77542690Y-104394270D01*
X77542681Y-104394268D01*
X77256147Y-104337272D01*
X77256138Y-104337270D01*
X77252977Y-104336642D01*
X77249753Y-104336430D01*
X77249748Y-104336430D01*
X76958235Y-104317324D01*
X76955000Y-104317112D01*
X76951765Y-104317324D01*
X76660251Y-104336430D01*
X76660244Y-104336430D01*
X76657023Y-104336642D01*
X76653863Y-104337270D01*
X76653852Y-104337272D01*
X76367318Y-104394268D01*
X76367305Y-104394271D01*
X76364145Y-104394900D01*
X76361089Y-104395937D01*
X76361079Y-104395940D01*
X76084448Y-104489844D01*
X76084440Y-104489846D01*
X76081377Y-104490887D01*
X76078468Y-104492321D01*
X76078462Y-104492324D01*
X75816468Y-104621524D01*
X75816456Y-104621530D01*
X75813556Y-104622961D01*
X75810869Y-104624756D01*
X75810861Y-104624761D01*
X75567960Y-104787062D01*
X75567950Y-104787069D01*
X75565266Y-104788863D01*
X75562835Y-104790994D01*
X75562827Y-104791001D01*
X75343200Y-104983608D01*
X75343192Y-104983615D01*
X75340754Y-104985754D01*
X75338615Y-104988192D01*
X75338608Y-104988200D01*
X75146001Y-105207827D01*
X75145994Y-105207835D01*
X75143863Y-105210266D01*
X75142069Y-105212950D01*
X75142062Y-105212960D01*
X74979761Y-105455861D01*
X74979756Y-105455869D01*
X74977961Y-105458556D01*
X74976530Y-105461456D01*
X74976524Y-105461468D01*
X74847324Y-105723462D01*
X74847321Y-105723468D01*
X74845887Y-105726377D01*
X74844846Y-105729440D01*
X74844844Y-105729448D01*
X74750940Y-106006079D01*
X74750937Y-106006089D01*
X74749900Y-106009145D01*
X74749271Y-106012305D01*
X74749268Y-106012318D01*
X74692272Y-106298852D01*
X74692270Y-106298863D01*
X74691642Y-106302023D01*
X74691430Y-106305244D01*
X74691430Y-106305251D01*
X74676553Y-106532235D01*
X74672112Y-106600000D01*
X74672324Y-106603234D01*
X74689800Y-106869884D01*
X74691642Y-106897977D01*
X74692270Y-106901138D01*
X74692272Y-106901147D01*
X74749268Y-107187681D01*
X74749270Y-107187690D01*
X74749900Y-107190855D01*
X74750938Y-107193913D01*
X74750940Y-107193920D01*
X74844844Y-107470551D01*
X74845887Y-107473623D01*
X74847323Y-107476536D01*
X74847324Y-107476537D01*
X74956121Y-107697158D01*
X74977961Y-107741444D01*
X74979760Y-107744137D01*
X74979761Y-107744138D01*
X75122494Y-107957754D01*
X75143863Y-107989734D01*
X75146000Y-107992171D01*
X75146001Y-107992172D01*
X75175053Y-108025300D01*
X75340754Y-108214246D01*
X75565266Y-108411137D01*
X75813556Y-108577039D01*
X76081377Y-108709113D01*
X76364145Y-108805100D01*
X76657023Y-108863358D01*
X76955000Y-108882888D01*
X77252977Y-108863358D01*
X77545855Y-108805100D01*
X77828623Y-108709113D01*
X78096444Y-108577039D01*
X78344734Y-108411137D01*
X78569246Y-108214246D01*
X78766137Y-107989734D01*
X78932039Y-107741444D01*
X79064113Y-107473623D01*
X79160100Y-107190855D01*
X79172168Y-107130185D01*
X79202065Y-107076802D01*
X79257630Y-107051186D01*
X79269266Y-107050500D01*
X80372388Y-107050500D01*
X80430579Y-107069407D01*
X80442392Y-107079496D01*
X81520504Y-108157607D01*
X81548281Y-108212124D01*
X81549500Y-108227611D01*
X81549500Y-111251962D01*
X81530593Y-111310153D01*
X81481093Y-111346117D01*
X81459749Y-111350529D01*
X81440305Y-111352353D01*
X81440302Y-111352353D01*
X81440301Y-111352354D01*
X81312118Y-111397207D01*
X81312117Y-111397207D01*
X81312116Y-111397208D01*
X81202850Y-111477850D01*
X81113346Y-111599124D01*
X81112133Y-111598229D01*
X81086510Y-111631880D01*
X81030134Y-111649500D01*
X80369748Y-111649500D01*
X79630252Y-111649500D01*
X79601010Y-111655316D01*
X79571768Y-111661133D01*
X79505447Y-111705447D01*
X79461133Y-111771768D01*
X79461132Y-111771769D01*
X79461133Y-111771769D01*
X79451691Y-111819240D01*
X79449500Y-111830253D01*
X79449500Y-112169748D01*
X79461621Y-112230687D01*
X79461621Y-112269313D01*
X79449500Y-112330251D01*
X79449500Y-112669746D01*
X79461133Y-112728231D01*
X79505447Y-112794552D01*
X79549761Y-112824162D01*
X79571769Y-112838867D01*
X79630252Y-112850500D01*
X79941512Y-112850500D01*
X80313810Y-112850500D01*
X80372001Y-112869407D01*
X80383814Y-112879496D01*
X80806698Y-113302380D01*
X80819570Y-113318232D01*
X80826063Y-113328169D01*
X80845300Y-113343141D01*
X80850189Y-113346947D01*
X80859380Y-113355063D01*
X80860188Y-113355871D01*
X80860191Y-113355873D01*
X80860193Y-113355875D01*
X80876275Y-113367357D01*
X80879545Y-113369795D01*
X80918374Y-113400017D01*
X80918376Y-113400017D01*
X80922691Y-113403376D01*
X80926191Y-113405178D01*
X80931432Y-113406738D01*
X80931433Y-113406739D01*
X80978580Y-113420775D01*
X80982456Y-113422017D01*
X80991951Y-113425276D01*
X81029012Y-113438000D01*
X81029014Y-113438000D01*
X81034173Y-113439771D01*
X81038091Y-113440342D01*
X81043544Y-113440116D01*
X81043546Y-113440117D01*
X81092676Y-113438084D01*
X81096767Y-113438000D01*
X83283265Y-113438000D01*
X83341456Y-113456907D01*
X83376708Y-113504301D01*
X83397207Y-113562882D01*
X83477850Y-113672150D01*
X83587118Y-113752793D01*
X83715301Y-113797646D01*
X83745734Y-113800500D01*
X83748045Y-113800500D01*
X84751955Y-113800500D01*
X84754266Y-113800500D01*
X84784699Y-113797646D01*
X84912882Y-113752793D01*
X85022150Y-113672150D01*
X85102793Y-113562882D01*
X85147646Y-113434699D01*
X85150500Y-113404266D01*
X85150500Y-112770734D01*
X85147646Y-112740301D01*
X85102793Y-112612118D01*
X85022150Y-112502850D01*
X84912882Y-112422207D01*
X84784699Y-112377354D01*
X84784697Y-112377353D01*
X84784695Y-112377353D01*
X84756577Y-112374716D01*
X84756561Y-112374715D01*
X84754266Y-112374500D01*
X83745734Y-112374500D01*
X83743439Y-112374715D01*
X83743422Y-112374716D01*
X83715304Y-112377353D01*
X83715301Y-112377353D01*
X83715301Y-112377354D01*
X83587118Y-112422207D01*
X83587117Y-112422207D01*
X83587116Y-112422208D01*
X83477850Y-112502850D01*
X83400684Y-112607407D01*
X83397207Y-112612118D01*
X83376708Y-112670698D01*
X83339644Y-112719378D01*
X83283265Y-112737000D01*
X82908494Y-112737000D01*
X82850303Y-112718093D01*
X82814339Y-112668593D01*
X82814339Y-112607407D01*
X82828837Y-112579214D01*
X82877793Y-112512882D01*
X82922646Y-112384699D01*
X82925500Y-112354266D01*
X82925500Y-111745734D01*
X82922646Y-111715301D01*
X82877793Y-111587118D01*
X82797150Y-111477850D01*
X82687882Y-111397207D01*
X82559699Y-111352354D01*
X82559696Y-111352353D01*
X82559694Y-111352353D01*
X82540251Y-111350529D01*
X82484081Y-111326268D01*
X82452899Y-111273625D01*
X82450500Y-111251962D01*
X82450500Y-108030863D01*
X82451122Y-108019780D01*
X82451273Y-108018432D01*
X82455270Y-107982965D01*
X82452226Y-107966875D01*
X82450500Y-107948471D01*
X82450500Y-106667765D01*
X83745787Y-106667765D01*
X83775413Y-106937015D01*
X83843928Y-107199089D01*
X83935662Y-107414956D01*
X83949870Y-107448390D01*
X84090982Y-107679610D01*
X84264255Y-107887820D01*
X84331946Y-107948471D01*
X84465996Y-108068581D01*
X84691913Y-108218046D01*
X84937175Y-108333020D01*
X85133112Y-108391968D01*
X85196569Y-108411060D01*
X85408668Y-108442274D01*
X85464560Y-108450500D01*
X85464561Y-108450500D01*
X85665824Y-108450500D01*
X85667631Y-108450500D01*
X85870156Y-108435677D01*
X86134553Y-108376780D01*
X86387558Y-108280014D01*
X86623777Y-108147441D01*
X86838177Y-107981888D01*
X87026186Y-107786881D01*
X87183799Y-107566579D01*
X87307656Y-107325675D01*
X87395118Y-107069305D01*
X87444319Y-106802933D01*
X87454212Y-106532235D01*
X87449525Y-106489642D01*
X87436068Y-106367332D01*
X87424586Y-106262982D01*
X87356072Y-106000912D01*
X87250130Y-105751610D01*
X87109018Y-105520390D01*
X86935745Y-105312180D01*
X86819280Y-105207827D01*
X86734003Y-105131418D01*
X86508086Y-104981953D01*
X86262824Y-104866979D01*
X86003433Y-104788940D01*
X85735440Y-104749500D01*
X85735439Y-104749500D01*
X85532369Y-104749500D01*
X85530590Y-104749630D01*
X85530568Y-104749631D01*
X85329847Y-104764322D01*
X85065446Y-104823220D01*
X84812438Y-104919987D01*
X84576222Y-105052559D01*
X84361825Y-105218109D01*
X84173814Y-105413118D01*
X84016200Y-105633421D01*
X83892341Y-105874329D01*
X83804882Y-106130692D01*
X83755681Y-106397064D01*
X83745787Y-106667765D01*
X82450500Y-106667765D01*
X82450500Y-104477611D01*
X82469407Y-104419420D01*
X82479496Y-104407607D01*
X82776180Y-104110923D01*
X83073337Y-103813765D01*
X83127852Y-103785990D01*
X83188284Y-103795561D01*
X83202127Y-103804116D01*
X83202849Y-103804649D01*
X83202850Y-103804650D01*
X83312118Y-103885293D01*
X83440301Y-103930146D01*
X83470734Y-103933000D01*
X83473045Y-103933000D01*
X84526955Y-103933000D01*
X84529266Y-103933000D01*
X84559699Y-103930146D01*
X84687882Y-103885293D01*
X84797150Y-103804650D01*
X84877793Y-103695382D01*
X84889543Y-103661801D01*
X84926607Y-103613122D01*
X84982987Y-103595500D01*
X85217013Y-103595500D01*
X85275204Y-103614407D01*
X85310456Y-103661801D01*
X85322207Y-103695382D01*
X85402850Y-103804650D01*
X85512118Y-103885293D01*
X85640301Y-103930146D01*
X85670734Y-103933000D01*
X85673045Y-103933000D01*
X86726955Y-103933000D01*
X86729266Y-103933000D01*
X86759699Y-103930146D01*
X86887882Y-103885293D01*
X86997150Y-103804650D01*
X87077793Y-103695382D01*
X87093917Y-103649301D01*
X87130982Y-103600622D01*
X87187361Y-103583000D01*
X87470881Y-103583000D01*
X87491197Y-103585107D01*
X87502815Y-103587543D01*
X87530893Y-103584042D01*
X87533163Y-103583760D01*
X87545408Y-103583000D01*
X87546542Y-103583000D01*
X87566021Y-103579749D01*
X87570045Y-103579161D01*
X87618893Y-103573073D01*
X87618893Y-103573072D01*
X87624322Y-103572396D01*
X87628072Y-103571194D01*
X87632879Y-103568592D01*
X87632881Y-103568592D01*
X87676155Y-103545171D01*
X87679759Y-103543316D01*
X87723984Y-103521698D01*
X87723985Y-103521696D01*
X87728898Y-103519295D01*
X87732053Y-103516942D01*
X87735756Y-103512918D01*
X87735758Y-103512918D01*
X87769092Y-103476706D01*
X87771876Y-103473804D01*
X87866185Y-103379496D01*
X87920703Y-103351719D01*
X87936189Y-103350500D01*
X88150500Y-103350500D01*
X88208691Y-103369407D01*
X88244655Y-103418907D01*
X88249500Y-103449499D01*
X88249500Y-103494748D01*
X88253628Y-103515500D01*
X88261133Y-103553231D01*
X88305447Y-103619552D01*
X88349761Y-103649162D01*
X88371769Y-103663867D01*
X88430252Y-103675500D01*
X88650500Y-103675500D01*
X88708691Y-103694407D01*
X88744655Y-103743907D01*
X88749500Y-103774500D01*
X88749500Y-106053381D01*
X88747393Y-106073696D01*
X88744957Y-106085313D01*
X88748740Y-106115661D01*
X88749500Y-106127907D01*
X88749500Y-106129041D01*
X88752751Y-106148528D01*
X88753340Y-106152572D01*
X88760101Y-106206804D01*
X88761312Y-106210585D01*
X88787322Y-106258646D01*
X88789195Y-106262285D01*
X88813198Y-106311385D01*
X88815568Y-106314564D01*
X88855764Y-106351567D01*
X88858717Y-106354399D01*
X89139198Y-106634880D01*
X89152070Y-106650732D01*
X89158563Y-106660669D01*
X89174905Y-106673388D01*
X89182689Y-106679447D01*
X89191880Y-106687563D01*
X89192690Y-106688373D01*
X89208768Y-106699852D01*
X89212050Y-106702299D01*
X89255182Y-106735870D01*
X89258695Y-106737678D01*
X89263930Y-106739236D01*
X89263934Y-106739239D01*
X89303750Y-106751092D01*
X89354125Y-106785816D01*
X89374470Y-106843520D01*
X89374500Y-106845976D01*
X89374500Y-108289748D01*
X89381209Y-108323476D01*
X89386133Y-108348231D01*
X89430447Y-108414552D01*
X89450996Y-108428282D01*
X89496769Y-108458867D01*
X89555252Y-108470500D01*
X89555253Y-108470500D01*
X90574747Y-108470500D01*
X90574748Y-108470500D01*
X90633231Y-108458867D01*
X90699552Y-108414552D01*
X90743867Y-108348231D01*
X90755500Y-108289748D01*
X90755500Y-104550252D01*
X90743867Y-104491769D01*
X90707006Y-104436603D01*
X90699552Y-104425447D01*
X90633231Y-104381133D01*
X90629496Y-104380390D01*
X90574748Y-104369500D01*
X89555252Y-104369500D01*
X89549500Y-104369500D01*
X89491309Y-104350593D01*
X89455345Y-104301093D01*
X89450500Y-104270500D01*
X89450500Y-102505253D01*
X89448724Y-102496323D01*
X89438867Y-102446769D01*
X89404247Y-102394957D01*
X89394552Y-102380447D01*
X89322517Y-102332315D01*
X89284638Y-102284265D01*
X89282236Y-102223127D01*
X89316229Y-102172253D01*
X89322517Y-102167685D01*
X89394552Y-102119552D01*
X89407317Y-102100448D01*
X89438867Y-102053231D01*
X89450500Y-101994748D01*
X89450500Y-101005252D01*
X89450500Y-100986187D01*
X89469407Y-100927997D01*
X89479490Y-100916191D01*
X89714881Y-100680799D01*
X89730732Y-100667928D01*
X89740669Y-100661437D01*
X89759450Y-100637305D01*
X89767570Y-100628111D01*
X89768375Y-100627307D01*
X89779874Y-100611200D01*
X89782291Y-100607960D01*
X89815880Y-100564805D01*
X89817675Y-100561318D01*
X89819237Y-100556068D01*
X89819239Y-100556067D01*
X89833286Y-100508882D01*
X89834512Y-100505055D01*
X89850500Y-100458488D01*
X89850500Y-100458487D01*
X89855865Y-100442861D01*
X89860286Y-100444379D01*
X89869407Y-100416309D01*
X89918907Y-100380345D01*
X89949500Y-100375500D01*
X90001955Y-100375500D01*
X90004266Y-100375500D01*
X90034699Y-100372646D01*
X90162882Y-100327793D01*
X90272150Y-100247150D01*
X90352793Y-100137882D01*
X90397646Y-100009699D01*
X90400500Y-99979266D01*
X90400500Y-99345734D01*
X90397646Y-99315301D01*
X90352793Y-99187118D01*
X90272150Y-99077850D01*
X90162882Y-98997207D01*
X90034699Y-98952354D01*
X90034697Y-98952353D01*
X90034695Y-98952353D01*
X90006577Y-98949716D01*
X90006561Y-98949715D01*
X90004266Y-98949500D01*
X90001955Y-98949500D01*
X89930195Y-98949500D01*
X89872004Y-98930593D01*
X89843127Y-98897619D01*
X89812686Y-98841370D01*
X89810813Y-98837731D01*
X89790974Y-98797149D01*
X89789198Y-98793516D01*
X89789196Y-98793514D01*
X89786801Y-98788614D01*
X89784436Y-98785441D01*
X89780418Y-98781742D01*
X89744221Y-98748420D01*
X89741294Y-98745612D01*
X89530801Y-98535119D01*
X89517925Y-98519262D01*
X89511436Y-98509330D01*
X89487309Y-98490551D01*
X89478118Y-98482435D01*
X89477310Y-98481627D01*
X89461228Y-98470145D01*
X89457949Y-98467700D01*
X89446541Y-98458821D01*
X89419126Y-98437483D01*
X89419124Y-98437482D01*
X89414822Y-98434134D01*
X89411292Y-98432316D01*
X89358909Y-98416720D01*
X89355016Y-98415472D01*
X89303328Y-98397728D01*
X89299408Y-98397157D01*
X89249065Y-98399239D01*
X89244823Y-98399415D01*
X89240733Y-98399500D01*
X86462011Y-98399500D01*
X86403820Y-98380593D01*
X86367856Y-98331093D01*
X86367856Y-98269907D01*
X86368545Y-98267864D01*
X86397646Y-98184699D01*
X86400500Y-98154266D01*
X86400500Y-97520734D01*
X86397646Y-97490301D01*
X86352793Y-97362118D01*
X86272150Y-97252850D01*
X86162882Y-97172207D01*
X86034699Y-97127354D01*
X86034697Y-97127353D01*
X86034695Y-97127353D01*
X86006577Y-97124716D01*
X86006561Y-97124715D01*
X86004266Y-97124500D01*
X84995734Y-97124500D01*
X84993439Y-97124715D01*
X84993422Y-97124716D01*
X84965304Y-97127353D01*
X84965301Y-97127353D01*
X84965301Y-97127354D01*
X84837118Y-97172207D01*
X84837117Y-97172207D01*
X84837116Y-97172208D01*
X84780180Y-97214227D01*
X84722132Y-97233567D01*
X84683510Y-97226035D01*
X84656762Y-97214956D01*
X84656760Y-97214955D01*
X84500000Y-97194318D01*
X84330317Y-97216657D01*
X84329749Y-97212343D01*
X84293145Y-97215202D01*
X84257526Y-97198606D01*
X84218847Y-97170060D01*
X84187882Y-97147207D01*
X84059699Y-97102354D01*
X84059697Y-97102353D01*
X84059695Y-97102353D01*
X84031577Y-97099716D01*
X84031561Y-97099715D01*
X84029266Y-97099500D01*
X82970734Y-97099500D01*
X82968439Y-97099715D01*
X82968422Y-97099716D01*
X82940304Y-97102353D01*
X82940301Y-97102353D01*
X82940301Y-97102354D01*
X82812118Y-97147207D01*
X82812117Y-97147207D01*
X82812116Y-97147208D01*
X82702850Y-97227850D01*
X82628766Y-97328231D01*
X82622207Y-97337118D01*
X82602110Y-97394552D01*
X82577353Y-97465304D01*
X82574716Y-97493422D01*
X82574715Y-97493439D01*
X82574500Y-97495734D01*
X82574500Y-98104266D01*
X82574715Y-98106561D01*
X82574716Y-98106577D01*
X82577353Y-98134695D01*
X82577353Y-98134697D01*
X82577354Y-98134699D01*
X82619060Y-98253887D01*
X82623929Y-98267803D01*
X82625301Y-98328973D01*
X82590457Y-98379267D01*
X82532705Y-98399475D01*
X82530484Y-98399500D01*
X76836190Y-98399500D01*
X76777999Y-98380593D01*
X76766186Y-98370504D01*
X74529496Y-96133813D01*
X74501719Y-96079296D01*
X74500500Y-96063809D01*
X74500500Y-93496614D01*
X74502607Y-93476298D01*
X74502785Y-93475447D01*
X74505042Y-93464685D01*
X74501260Y-93434343D01*
X74500500Y-93422098D01*
X74500500Y-93420961D01*
X74499044Y-93412236D01*
X74497244Y-93401454D01*
X74496658Y-93397430D01*
X74494087Y-93376802D01*
X74490573Y-93348607D01*
X74490571Y-93348604D01*
X74489896Y-93343182D01*
X74488693Y-93339426D01*
X74473967Y-93312216D01*
X74462681Y-93291360D01*
X74460813Y-93287731D01*
X74445772Y-93256964D01*
X74439198Y-93243516D01*
X74439196Y-93243514D01*
X74436801Y-93238614D01*
X74434436Y-93235441D01*
X74423095Y-93225001D01*
X74394221Y-93198420D01*
X74391294Y-93195612D01*
X73980801Y-92785119D01*
X73967925Y-92769262D01*
X73961436Y-92759330D01*
X73937309Y-92740551D01*
X73928118Y-92732435D01*
X73927310Y-92731627D01*
X73911228Y-92720145D01*
X73907949Y-92717700D01*
X73875434Y-92692393D01*
X73869126Y-92687483D01*
X73869124Y-92687482D01*
X73864822Y-92684134D01*
X73861292Y-92682316D01*
X73808909Y-92666720D01*
X73805016Y-92665472D01*
X73753328Y-92647728D01*
X73749408Y-92647157D01*
X73699065Y-92649239D01*
X73694823Y-92649415D01*
X73690733Y-92649500D01*
X73045522Y-92649500D01*
X72987331Y-92630593D01*
X72951367Y-92581093D01*
X72948424Y-92569815D01*
X72945659Y-92555917D01*
X72938867Y-92521769D01*
X72916513Y-92488314D01*
X72894552Y-92455447D01*
X72828231Y-92411133D01*
X72769748Y-92399500D01*
X71930252Y-92399500D01*
X71901010Y-92405316D01*
X71871768Y-92411133D01*
X71805447Y-92455447D01*
X71761133Y-92521768D01*
X71758883Y-92533082D01*
X71749500Y-92580252D01*
X71749500Y-93419748D01*
X69000500Y-93419748D01*
X69000500Y-91043937D01*
X69515669Y-91043937D01*
X69546134Y-91216712D01*
X69598827Y-91338866D01*
X69615623Y-91377804D01*
X69720390Y-91518530D01*
X69803528Y-91588291D01*
X69854783Y-91631300D01*
X69854784Y-91631300D01*
X69854786Y-91631302D01*
X70011567Y-91710040D01*
X70011569Y-91710041D01*
X70182277Y-91750500D01*
X70182279Y-91750500D01*
X70310825Y-91750500D01*
X70313709Y-91750500D01*
X70444255Y-91735241D01*
X70609117Y-91675237D01*
X70755696Y-91578830D01*
X70876092Y-91451218D01*
X70963812Y-91299281D01*
X71002593Y-91169746D01*
X71749500Y-91169746D01*
X71761133Y-91228231D01*
X71805447Y-91294552D01*
X71830737Y-91311450D01*
X71871769Y-91338867D01*
X71930252Y-91350500D01*
X71930253Y-91350500D01*
X72769747Y-91350500D01*
X72769748Y-91350500D01*
X72828231Y-91338867D01*
X72894552Y-91294552D01*
X72938867Y-91228231D01*
X72948423Y-91180185D01*
X72978321Y-91126802D01*
X73033886Y-91101186D01*
X73045522Y-91100500D01*
X73825502Y-91100500D01*
X73883693Y-91119407D01*
X73916966Y-91161614D01*
X73975464Y-91302842D01*
X74071717Y-91428282D01*
X74167971Y-91502139D01*
X74197159Y-91524536D01*
X74343238Y-91585044D01*
X74500000Y-91605682D01*
X74656762Y-91585044D01*
X74802841Y-91524536D01*
X74928282Y-91428282D01*
X75024536Y-91302841D01*
X75085044Y-91156762D01*
X75105682Y-91000000D01*
X75085044Y-90843238D01*
X75024536Y-90697159D01*
X74956859Y-90608960D01*
X74928282Y-90571717D01*
X74802841Y-90475464D01*
X74656761Y-90414955D01*
X74520637Y-90397034D01*
X74500000Y-90394318D01*
X74499999Y-90394318D01*
X74373724Y-90410941D01*
X74328659Y-90406424D01*
X74303328Y-90397728D01*
X74299408Y-90397157D01*
X74249065Y-90399239D01*
X74244823Y-90399415D01*
X74240733Y-90399500D01*
X73045522Y-90399500D01*
X72987331Y-90380593D01*
X72951367Y-90331093D01*
X72948424Y-90319815D01*
X72942485Y-90289958D01*
X72938867Y-90271769D01*
X72923987Y-90249500D01*
X72894552Y-90205447D01*
X72828231Y-90161133D01*
X72769748Y-90149500D01*
X71930252Y-90149500D01*
X71901010Y-90155316D01*
X71871768Y-90161133D01*
X71805447Y-90205447D01*
X71761133Y-90271768D01*
X71749500Y-90330253D01*
X71749500Y-91169746D01*
X71002593Y-91169746D01*
X71014130Y-91131210D01*
X71024331Y-90956065D01*
X71000526Y-90821063D01*
X70993865Y-90783287D01*
X70924377Y-90622197D01*
X70924377Y-90622196D01*
X70819610Y-90481470D01*
X70752411Y-90425084D01*
X70685216Y-90368699D01*
X70528430Y-90289958D01*
X70357723Y-90249500D01*
X70357721Y-90249500D01*
X70226291Y-90249500D01*
X70223435Y-90249833D01*
X70223432Y-90249834D01*
X70095743Y-90264759D01*
X69930882Y-90324763D01*
X69784304Y-90421169D01*
X69663909Y-90548780D01*
X69576188Y-90700719D01*
X69525870Y-90868789D01*
X69515669Y-91043937D01*
X69000500Y-91043937D01*
X69000500Y-89769746D01*
X69749500Y-89769746D01*
X69761133Y-89828231D01*
X69805447Y-89894552D01*
X69835984Y-89914956D01*
X69871769Y-89938867D01*
X69930252Y-89950500D01*
X69930253Y-89950500D01*
X70969747Y-89950500D01*
X70969748Y-89950500D01*
X71028231Y-89938867D01*
X71094552Y-89894552D01*
X71138867Y-89828231D01*
X71150500Y-89769748D01*
X71150500Y-88730252D01*
X71138867Y-88671769D01*
X71124162Y-88649761D01*
X71094552Y-88605447D01*
X71028231Y-88561133D01*
X70969748Y-88549500D01*
X69930252Y-88549500D01*
X69901010Y-88555316D01*
X69871768Y-88561133D01*
X69805447Y-88605447D01*
X69761133Y-88671768D01*
X69749500Y-88730253D01*
X69749500Y-89769746D01*
X69000500Y-89769746D01*
X69000500Y-87986500D01*
X69019407Y-87928309D01*
X69068907Y-87892345D01*
X69099500Y-87887500D01*
X70573889Y-87887500D01*
X70632080Y-87906407D01*
G37*
%TD.AperFunction*%
%TD*%
M02*
