%TF.GenerationSoftware,KiCad,Pcbnew,(6.0.0)*%
%TF.CreationDate,2022-12-29T02:02:28+02:00*%
%TF.ProjectId,greenhouse-doc,67726565-6e68-46f7-9573-652d646f632e,rev?*%
%TF.SameCoordinates,Original*%
%TF.FileFunction,Legend,Top*%
%TF.FilePolarity,Positive*%
%FSLAX46Y46*%
G04 Gerber Fmt 4.6, Leading zero omitted, Abs format (unit mm)*
G04 Created by KiCad (PCBNEW (6.0.0)) date 2022-12-29 02:02:28*
%MOMM*%
%LPD*%
G01*
G04 APERTURE LIST*
%ADD10C,0.150000*%
%ADD11C,0.120000*%
%ADD12C,0.200000*%
%ADD13C,0.100000*%
%ADD14C,0.250000*%
G04 APERTURE END LIST*
D10*
%TO.C,R6*%
X136161904Y-57700000D02*
X135780952Y-57900000D01*
X136161904Y-58042857D02*
X135361904Y-58042857D01*
X135361904Y-57814285D01*
X135400000Y-57757142D01*
X135438095Y-57728571D01*
X135514285Y-57700000D01*
X135628571Y-57700000D01*
X135704761Y-57728571D01*
X135742857Y-57757142D01*
X135780952Y-57814285D01*
X135780952Y-58042857D01*
X135361904Y-57185714D02*
X135361904Y-57300000D01*
X135400000Y-57357142D01*
X135438095Y-57385714D01*
X135552380Y-57442857D01*
X135704761Y-57471428D01*
X136009523Y-57471428D01*
X136085714Y-57442857D01*
X136123809Y-57414285D01*
X136161904Y-57357142D01*
X136161904Y-57242857D01*
X136123809Y-57185714D01*
X136085714Y-57157142D01*
X136009523Y-57128571D01*
X135819047Y-57128571D01*
X135742857Y-57157142D01*
X135704761Y-57185714D01*
X135666666Y-57242857D01*
X135666666Y-57357142D01*
X135704761Y-57414285D01*
X135742857Y-57442857D01*
X135819047Y-57471428D01*
%TO.C,C3*%
X124985714Y-65800000D02*
X125023809Y-65828571D01*
X125061904Y-65914285D01*
X125061904Y-65971428D01*
X125023809Y-66057142D01*
X124947619Y-66114285D01*
X124871428Y-66142857D01*
X124719047Y-66171428D01*
X124604761Y-66171428D01*
X124452380Y-66142857D01*
X124376190Y-66114285D01*
X124300000Y-66057142D01*
X124261904Y-65971428D01*
X124261904Y-65914285D01*
X124300000Y-65828571D01*
X124338095Y-65800000D01*
X124261904Y-65600000D02*
X124261904Y-65228571D01*
X124566666Y-65428571D01*
X124566666Y-65342857D01*
X124604761Y-65285714D01*
X124642857Y-65257142D01*
X124719047Y-65228571D01*
X124909523Y-65228571D01*
X124985714Y-65257142D01*
X125023809Y-65285714D01*
X125061904Y-65342857D01*
X125061904Y-65514285D01*
X125023809Y-65571428D01*
X124985714Y-65600000D01*
%TO.C,R9*%
X128150000Y-76561904D02*
X127950000Y-76180952D01*
X127807142Y-76561904D02*
X127807142Y-75761904D01*
X128035714Y-75761904D01*
X128092857Y-75800000D01*
X128121428Y-75838095D01*
X128150000Y-75914285D01*
X128150000Y-76028571D01*
X128121428Y-76104761D01*
X128092857Y-76142857D01*
X128035714Y-76180952D01*
X127807142Y-76180952D01*
X128435714Y-76561904D02*
X128550000Y-76561904D01*
X128607142Y-76523809D01*
X128635714Y-76485714D01*
X128692857Y-76371428D01*
X128721428Y-76219047D01*
X128721428Y-75914285D01*
X128692857Y-75838095D01*
X128664285Y-75800000D01*
X128607142Y-75761904D01*
X128492857Y-75761904D01*
X128435714Y-75800000D01*
X128407142Y-75838095D01*
X128378571Y-75914285D01*
X128378571Y-76104761D01*
X128407142Y-76180952D01*
X128435714Y-76219047D01*
X128492857Y-76257142D01*
X128607142Y-76257142D01*
X128664285Y-76219047D01*
X128692857Y-76180952D01*
X128721428Y-76104761D01*
%TO.C,L1*%
X121650000Y-65911904D02*
X121364285Y-65911904D01*
X121364285Y-65111904D01*
X122164285Y-65911904D02*
X121821428Y-65911904D01*
X121992857Y-65911904D02*
X121992857Y-65111904D01*
X121935714Y-65226190D01*
X121878571Y-65302380D01*
X121821428Y-65340476D01*
%TO.C,R7*%
X99500000Y-77561904D02*
X99300000Y-77180952D01*
X99157142Y-77561904D02*
X99157142Y-76761904D01*
X99385714Y-76761904D01*
X99442857Y-76800000D01*
X99471428Y-76838095D01*
X99500000Y-76914285D01*
X99500000Y-77028571D01*
X99471428Y-77104761D01*
X99442857Y-77142857D01*
X99385714Y-77180952D01*
X99157142Y-77180952D01*
X99700000Y-76761904D02*
X100100000Y-76761904D01*
X99842857Y-77561904D01*
%TO.C,R2*%
X115611904Y-73850000D02*
X115230952Y-74050000D01*
X115611904Y-74192857D02*
X114811904Y-74192857D01*
X114811904Y-73964285D01*
X114850000Y-73907142D01*
X114888095Y-73878571D01*
X114964285Y-73850000D01*
X115078571Y-73850000D01*
X115154761Y-73878571D01*
X115192857Y-73907142D01*
X115230952Y-73964285D01*
X115230952Y-74192857D01*
X114888095Y-73621428D02*
X114850000Y-73592857D01*
X114811904Y-73535714D01*
X114811904Y-73392857D01*
X114850000Y-73335714D01*
X114888095Y-73307142D01*
X114964285Y-73278571D01*
X115040476Y-73278571D01*
X115154761Y-73307142D01*
X115611904Y-73650000D01*
X115611904Y-73278571D01*
%TO.C,C4*%
X108850000Y-77785714D02*
X108821428Y-77823809D01*
X108735714Y-77861904D01*
X108678571Y-77861904D01*
X108592857Y-77823809D01*
X108535714Y-77747619D01*
X108507142Y-77671428D01*
X108478571Y-77519047D01*
X108478571Y-77404761D01*
X108507142Y-77252380D01*
X108535714Y-77176190D01*
X108592857Y-77100000D01*
X108678571Y-77061904D01*
X108735714Y-77061904D01*
X108821428Y-77100000D01*
X108850000Y-77138095D01*
X109364285Y-77328571D02*
X109364285Y-77861904D01*
X109221428Y-77023809D02*
X109078571Y-77595238D01*
X109450000Y-77595238D01*
%TO.C,R8*%
X128200000Y-74911904D02*
X128000000Y-74530952D01*
X127857142Y-74911904D02*
X127857142Y-74111904D01*
X128085714Y-74111904D01*
X128142857Y-74150000D01*
X128171428Y-74188095D01*
X128200000Y-74264285D01*
X128200000Y-74378571D01*
X128171428Y-74454761D01*
X128142857Y-74492857D01*
X128085714Y-74530952D01*
X127857142Y-74530952D01*
X128542857Y-74454761D02*
X128485714Y-74416666D01*
X128457142Y-74378571D01*
X128428571Y-74302380D01*
X128428571Y-74264285D01*
X128457142Y-74188095D01*
X128485714Y-74150000D01*
X128542857Y-74111904D01*
X128657142Y-74111904D01*
X128714285Y-74150000D01*
X128742857Y-74188095D01*
X128771428Y-74264285D01*
X128771428Y-74302380D01*
X128742857Y-74378571D01*
X128714285Y-74416666D01*
X128657142Y-74454761D01*
X128542857Y-74454761D01*
X128485714Y-74492857D01*
X128457142Y-74530952D01*
X128428571Y-74607142D01*
X128428571Y-74759523D01*
X128457142Y-74835714D01*
X128485714Y-74873809D01*
X128542857Y-74911904D01*
X128657142Y-74911904D01*
X128714285Y-74873809D01*
X128742857Y-74835714D01*
X128771428Y-74759523D01*
X128771428Y-74607142D01*
X128742857Y-74530952D01*
X128714285Y-74492857D01*
X128657142Y-74454761D01*
%TO.C,J3*%
X145300000Y-66821904D02*
X145300000Y-67393333D01*
X145271428Y-67507619D01*
X145214285Y-67583809D01*
X145128571Y-67621904D01*
X145071428Y-67621904D01*
X145528571Y-66821904D02*
X145900000Y-66821904D01*
X145700000Y-67126666D01*
X145785714Y-67126666D01*
X145842857Y-67164761D01*
X145871428Y-67202857D01*
X145900000Y-67279047D01*
X145900000Y-67469523D01*
X145871428Y-67545714D01*
X145842857Y-67583809D01*
X145785714Y-67621904D01*
X145614285Y-67621904D01*
X145557142Y-67583809D01*
X145528571Y-67545714D01*
%TO.C,C5*%
X127085714Y-68650000D02*
X127123809Y-68678571D01*
X127161904Y-68764285D01*
X127161904Y-68821428D01*
X127123809Y-68907142D01*
X127047619Y-68964285D01*
X126971428Y-68992857D01*
X126819047Y-69021428D01*
X126704761Y-69021428D01*
X126552380Y-68992857D01*
X126476190Y-68964285D01*
X126400000Y-68907142D01*
X126361904Y-68821428D01*
X126361904Y-68764285D01*
X126400000Y-68678571D01*
X126438095Y-68650000D01*
X126361904Y-68107142D02*
X126361904Y-68392857D01*
X126742857Y-68421428D01*
X126704761Y-68392857D01*
X126666666Y-68335714D01*
X126666666Y-68192857D01*
X126704761Y-68135714D01*
X126742857Y-68107142D01*
X126819047Y-68078571D01*
X127009523Y-68078571D01*
X127085714Y-68107142D01*
X127123809Y-68135714D01*
X127161904Y-68192857D01*
X127161904Y-68335714D01*
X127123809Y-68392857D01*
X127085714Y-68421428D01*
%TO.C,IC2*%
X122114285Y-74761904D02*
X122114285Y-73961904D01*
X122742857Y-74685714D02*
X122714285Y-74723809D01*
X122628571Y-74761904D01*
X122571428Y-74761904D01*
X122485714Y-74723809D01*
X122428571Y-74647619D01*
X122400000Y-74571428D01*
X122371428Y-74419047D01*
X122371428Y-74304761D01*
X122400000Y-74152380D01*
X122428571Y-74076190D01*
X122485714Y-74000000D01*
X122571428Y-73961904D01*
X122628571Y-73961904D01*
X122714285Y-74000000D01*
X122742857Y-74038095D01*
X122971428Y-74038095D02*
X123000000Y-74000000D01*
X123057142Y-73961904D01*
X123200000Y-73961904D01*
X123257142Y-74000000D01*
X123285714Y-74038095D01*
X123314285Y-74114285D01*
X123314285Y-74190476D01*
X123285714Y-74304761D01*
X122942857Y-74761904D01*
X123314285Y-74761904D01*
%TO.C,Q1*%
X132142857Y-62438095D02*
X132085714Y-62400000D01*
X132028571Y-62323809D01*
X131942857Y-62209523D01*
X131885714Y-62171428D01*
X131828571Y-62171428D01*
X131857142Y-62361904D02*
X131800000Y-62323809D01*
X131742857Y-62247619D01*
X131714285Y-62095238D01*
X131714285Y-61828571D01*
X131742857Y-61676190D01*
X131800000Y-61600000D01*
X131857142Y-61561904D01*
X131971428Y-61561904D01*
X132028571Y-61600000D01*
X132085714Y-61676190D01*
X132114285Y-61828571D01*
X132114285Y-62095238D01*
X132085714Y-62247619D01*
X132028571Y-62323809D01*
X131971428Y-62361904D01*
X131857142Y-62361904D01*
X132685714Y-62361904D02*
X132342857Y-62361904D01*
X132514285Y-62361904D02*
X132514285Y-61561904D01*
X132457142Y-61676190D01*
X132400000Y-61752380D01*
X132342857Y-61790476D01*
%TO.C,J1*%
X126000000Y-61361904D02*
X126000000Y-61933333D01*
X125971428Y-62047619D01*
X125914285Y-62123809D01*
X125828571Y-62161904D01*
X125771428Y-62161904D01*
X126600000Y-62161904D02*
X126257142Y-62161904D01*
X126428571Y-62161904D02*
X126428571Y-61361904D01*
X126371428Y-61476190D01*
X126314285Y-61552380D01*
X126257142Y-61590476D01*
%TO.C,Q2*%
X127942857Y-62438095D02*
X127885714Y-62400000D01*
X127828571Y-62323809D01*
X127742857Y-62209523D01*
X127685714Y-62171428D01*
X127628571Y-62171428D01*
X127657142Y-62361904D02*
X127600000Y-62323809D01*
X127542857Y-62247619D01*
X127514285Y-62095238D01*
X127514285Y-61828571D01*
X127542857Y-61676190D01*
X127600000Y-61600000D01*
X127657142Y-61561904D01*
X127771428Y-61561904D01*
X127828571Y-61600000D01*
X127885714Y-61676190D01*
X127914285Y-61828571D01*
X127914285Y-62095238D01*
X127885714Y-62247619D01*
X127828571Y-62323809D01*
X127771428Y-62361904D01*
X127657142Y-62361904D01*
X128142857Y-61638095D02*
X128171428Y-61600000D01*
X128228571Y-61561904D01*
X128371428Y-61561904D01*
X128428571Y-61600000D01*
X128457142Y-61638095D01*
X128485714Y-61714285D01*
X128485714Y-61790476D01*
X128457142Y-61904761D01*
X128114285Y-62361904D01*
X128485714Y-62361904D01*
%TO.C,R4*%
X114361904Y-57300000D02*
X113980952Y-57500000D01*
X114361904Y-57642857D02*
X113561904Y-57642857D01*
X113561904Y-57414285D01*
X113600000Y-57357142D01*
X113638095Y-57328571D01*
X113714285Y-57300000D01*
X113828571Y-57300000D01*
X113904761Y-57328571D01*
X113942857Y-57357142D01*
X113980952Y-57414285D01*
X113980952Y-57642857D01*
X113828571Y-56785714D02*
X114361904Y-56785714D01*
X113523809Y-56928571D02*
X114095238Y-57071428D01*
X114095238Y-56700000D01*
%TO.C,C6*%
X128150000Y-71785714D02*
X128121428Y-71823809D01*
X128035714Y-71861904D01*
X127978571Y-71861904D01*
X127892857Y-71823809D01*
X127835714Y-71747619D01*
X127807142Y-71671428D01*
X127778571Y-71519047D01*
X127778571Y-71404761D01*
X127807142Y-71252380D01*
X127835714Y-71176190D01*
X127892857Y-71100000D01*
X127978571Y-71061904D01*
X128035714Y-71061904D01*
X128121428Y-71100000D01*
X128150000Y-71138095D01*
X128664285Y-71061904D02*
X128550000Y-71061904D01*
X128492857Y-71100000D01*
X128464285Y-71138095D01*
X128407142Y-71252380D01*
X128378571Y-71404761D01*
X128378571Y-71709523D01*
X128407142Y-71785714D01*
X128435714Y-71823809D01*
X128492857Y-71861904D01*
X128607142Y-71861904D01*
X128664285Y-71823809D01*
X128692857Y-71785714D01*
X128721428Y-71709523D01*
X128721428Y-71519047D01*
X128692857Y-71442857D01*
X128664285Y-71404761D01*
X128607142Y-71366666D01*
X128492857Y-71366666D01*
X128435714Y-71404761D01*
X128407142Y-71442857D01*
X128378571Y-71519047D01*
%TO.C,U1*%
X110222857Y-76771904D02*
X110222857Y-77419523D01*
X110251428Y-77495714D01*
X110280000Y-77533809D01*
X110337142Y-77571904D01*
X110451428Y-77571904D01*
X110508571Y-77533809D01*
X110537142Y-77495714D01*
X110565714Y-77419523D01*
X110565714Y-76771904D01*
X111165714Y-77571904D02*
X110822857Y-77571904D01*
X110994285Y-77571904D02*
X110994285Y-76771904D01*
X110937142Y-76886190D01*
X110880000Y-76962380D01*
X110822857Y-77000476D01*
%TO.C,K1*%
X141307142Y-73161904D02*
X141307142Y-72361904D01*
X141650000Y-73161904D02*
X141392857Y-72704761D01*
X141650000Y-72361904D02*
X141307142Y-72819047D01*
X142221428Y-73161904D02*
X141878571Y-73161904D01*
X142050000Y-73161904D02*
X142050000Y-72361904D01*
X141992857Y-72476190D01*
X141935714Y-72552380D01*
X141878571Y-72590476D01*
%TO.C,C2*%
X94085714Y-77300000D02*
X94123809Y-77328571D01*
X94161904Y-77414285D01*
X94161904Y-77471428D01*
X94123809Y-77557142D01*
X94047619Y-77614285D01*
X93971428Y-77642857D01*
X93819047Y-77671428D01*
X93704761Y-77671428D01*
X93552380Y-77642857D01*
X93476190Y-77614285D01*
X93400000Y-77557142D01*
X93361904Y-77471428D01*
X93361904Y-77414285D01*
X93400000Y-77328571D01*
X93438095Y-77300000D01*
X93438095Y-77071428D02*
X93400000Y-77042857D01*
X93361904Y-76985714D01*
X93361904Y-76842857D01*
X93400000Y-76785714D01*
X93438095Y-76757142D01*
X93514285Y-76728571D01*
X93590476Y-76728571D01*
X93704761Y-76757142D01*
X94161904Y-77100000D01*
X94161904Y-76728571D01*
%TO.C,R10*%
X127361904Y-57985714D02*
X126980952Y-58185714D01*
X127361904Y-58328571D02*
X126561904Y-58328571D01*
X126561904Y-58100000D01*
X126600000Y-58042857D01*
X126638095Y-58014285D01*
X126714285Y-57985714D01*
X126828571Y-57985714D01*
X126904761Y-58014285D01*
X126942857Y-58042857D01*
X126980952Y-58100000D01*
X126980952Y-58328571D01*
X127361904Y-57414285D02*
X127361904Y-57757142D01*
X127361904Y-57585714D02*
X126561904Y-57585714D01*
X126676190Y-57642857D01*
X126752380Y-57700000D01*
X126790476Y-57757142D01*
X126561904Y-57042857D02*
X126561904Y-56985714D01*
X126600000Y-56928571D01*
X126638095Y-56900000D01*
X126714285Y-56871428D01*
X126866666Y-56842857D01*
X127057142Y-56842857D01*
X127209523Y-56871428D01*
X127285714Y-56900000D01*
X127323809Y-56928571D01*
X127361904Y-56985714D01*
X127361904Y-57042857D01*
X127323809Y-57100000D01*
X127285714Y-57128571D01*
X127209523Y-57157142D01*
X127057142Y-57185714D01*
X126866666Y-57185714D01*
X126714285Y-57157142D01*
X126638095Y-57128571D01*
X126600000Y-57100000D01*
X126561904Y-57042857D01*
%TO.C,C10*%
X128164285Y-73385714D02*
X128135714Y-73423809D01*
X128050000Y-73461904D01*
X127992857Y-73461904D01*
X127907142Y-73423809D01*
X127850000Y-73347619D01*
X127821428Y-73271428D01*
X127792857Y-73119047D01*
X127792857Y-73004761D01*
X127821428Y-72852380D01*
X127850000Y-72776190D01*
X127907142Y-72700000D01*
X127992857Y-72661904D01*
X128050000Y-72661904D01*
X128135714Y-72700000D01*
X128164285Y-72738095D01*
X128735714Y-73461904D02*
X128392857Y-73461904D01*
X128564285Y-73461904D02*
X128564285Y-72661904D01*
X128507142Y-72776190D01*
X128450000Y-72852380D01*
X128392857Y-72890476D01*
X129107142Y-72661904D02*
X129164285Y-72661904D01*
X129221428Y-72700000D01*
X129250000Y-72738095D01*
X129278571Y-72814285D01*
X129307142Y-72966666D01*
X129307142Y-73157142D01*
X129278571Y-73309523D01*
X129250000Y-73385714D01*
X129221428Y-73423809D01*
X129164285Y-73461904D01*
X129107142Y-73461904D01*
X129050000Y-73423809D01*
X129021428Y-73385714D01*
X128992857Y-73309523D01*
X128964285Y-73157142D01*
X128964285Y-72966666D01*
X128992857Y-72814285D01*
X129021428Y-72738095D01*
X129050000Y-72700000D01*
X129107142Y-72661904D01*
%TO.C,IC1*%
X119414285Y-61961904D02*
X119414285Y-61161904D01*
X120042857Y-61885714D02*
X120014285Y-61923809D01*
X119928571Y-61961904D01*
X119871428Y-61961904D01*
X119785714Y-61923809D01*
X119728571Y-61847619D01*
X119700000Y-61771428D01*
X119671428Y-61619047D01*
X119671428Y-61504761D01*
X119700000Y-61352380D01*
X119728571Y-61276190D01*
X119785714Y-61200000D01*
X119871428Y-61161904D01*
X119928571Y-61161904D01*
X120014285Y-61200000D01*
X120042857Y-61238095D01*
X120614285Y-61961904D02*
X120271428Y-61961904D01*
X120442857Y-61961904D02*
X120442857Y-61161904D01*
X120385714Y-61276190D01*
X120328571Y-61352380D01*
X120271428Y-61390476D01*
%TO.C,C1*%
X123235714Y-65650000D02*
X123273809Y-65678571D01*
X123311904Y-65764285D01*
X123311904Y-65821428D01*
X123273809Y-65907142D01*
X123197619Y-65964285D01*
X123121428Y-65992857D01*
X122969047Y-66021428D01*
X122854761Y-66021428D01*
X122702380Y-65992857D01*
X122626190Y-65964285D01*
X122550000Y-65907142D01*
X122511904Y-65821428D01*
X122511904Y-65764285D01*
X122550000Y-65678571D01*
X122588095Y-65650000D01*
X123311904Y-65078571D02*
X123311904Y-65421428D01*
X123311904Y-65250000D02*
X122511904Y-65250000D01*
X122626190Y-65307142D01*
X122702380Y-65364285D01*
X122740476Y-65421428D01*
%TO.C,R1*%
X116361904Y-63500000D02*
X115980952Y-63700000D01*
X116361904Y-63842857D02*
X115561904Y-63842857D01*
X115561904Y-63614285D01*
X115600000Y-63557142D01*
X115638095Y-63528571D01*
X115714285Y-63500000D01*
X115828571Y-63500000D01*
X115904761Y-63528571D01*
X115942857Y-63557142D01*
X115980952Y-63614285D01*
X115980952Y-63842857D01*
X116361904Y-62928571D02*
X116361904Y-63271428D01*
X116361904Y-63100000D02*
X115561904Y-63100000D01*
X115676190Y-63157142D01*
X115752380Y-63214285D01*
X115790476Y-63271428D01*
%TO.C,C8*%
X120685714Y-74850000D02*
X120723809Y-74878571D01*
X120761904Y-74964285D01*
X120761904Y-75021428D01*
X120723809Y-75107142D01*
X120647619Y-75164285D01*
X120571428Y-75192857D01*
X120419047Y-75221428D01*
X120304761Y-75221428D01*
X120152380Y-75192857D01*
X120076190Y-75164285D01*
X120000000Y-75107142D01*
X119961904Y-75021428D01*
X119961904Y-74964285D01*
X120000000Y-74878571D01*
X120038095Y-74850000D01*
X120304761Y-74507142D02*
X120266666Y-74564285D01*
X120228571Y-74592857D01*
X120152380Y-74621428D01*
X120114285Y-74621428D01*
X120038095Y-74592857D01*
X120000000Y-74564285D01*
X119961904Y-74507142D01*
X119961904Y-74392857D01*
X120000000Y-74335714D01*
X120038095Y-74307142D01*
X120114285Y-74278571D01*
X120152380Y-74278571D01*
X120228571Y-74307142D01*
X120266666Y-74335714D01*
X120304761Y-74392857D01*
X120304761Y-74507142D01*
X120342857Y-74564285D01*
X120380952Y-74592857D01*
X120457142Y-74621428D01*
X120609523Y-74621428D01*
X120685714Y-74592857D01*
X120723809Y-74564285D01*
X120761904Y-74507142D01*
X120761904Y-74392857D01*
X120723809Y-74335714D01*
X120685714Y-74307142D01*
X120609523Y-74278571D01*
X120457142Y-74278571D01*
X120380952Y-74307142D01*
X120342857Y-74335714D01*
X120304761Y-74392857D01*
%TO.C,U2*%
X122942857Y-76961904D02*
X122942857Y-77609523D01*
X122971428Y-77685714D01*
X123000000Y-77723809D01*
X123057142Y-77761904D01*
X123171428Y-77761904D01*
X123228571Y-77723809D01*
X123257142Y-77685714D01*
X123285714Y-77609523D01*
X123285714Y-76961904D01*
X123542857Y-77038095D02*
X123571428Y-77000000D01*
X123628571Y-76961904D01*
X123771428Y-76961904D01*
X123828571Y-77000000D01*
X123857142Y-77038095D01*
X123885714Y-77114285D01*
X123885714Y-77190476D01*
X123857142Y-77304761D01*
X123514285Y-77761904D01*
X123885714Y-77761904D01*
%TO.C,D1*%
X116561904Y-57442857D02*
X115761904Y-57442857D01*
X115761904Y-57300000D01*
X115800000Y-57214285D01*
X115876190Y-57157142D01*
X115952380Y-57128571D01*
X116104761Y-57100000D01*
X116219047Y-57100000D01*
X116371428Y-57128571D01*
X116447619Y-57157142D01*
X116523809Y-57214285D01*
X116561904Y-57300000D01*
X116561904Y-57442857D01*
X116561904Y-56528571D02*
X116561904Y-56871428D01*
X116561904Y-56700000D02*
X115761904Y-56700000D01*
X115876190Y-56757142D01*
X115952380Y-56814285D01*
X115990476Y-56871428D01*
%TO.C,C9*%
X119085714Y-74850000D02*
X119123809Y-74878571D01*
X119161904Y-74964285D01*
X119161904Y-75021428D01*
X119123809Y-75107142D01*
X119047619Y-75164285D01*
X118971428Y-75192857D01*
X118819047Y-75221428D01*
X118704761Y-75221428D01*
X118552380Y-75192857D01*
X118476190Y-75164285D01*
X118400000Y-75107142D01*
X118361904Y-75021428D01*
X118361904Y-74964285D01*
X118400000Y-74878571D01*
X118438095Y-74850000D01*
X119161904Y-74564285D02*
X119161904Y-74450000D01*
X119123809Y-74392857D01*
X119085714Y-74364285D01*
X118971428Y-74307142D01*
X118819047Y-74278571D01*
X118514285Y-74278571D01*
X118438095Y-74307142D01*
X118400000Y-74335714D01*
X118361904Y-74392857D01*
X118361904Y-74507142D01*
X118400000Y-74564285D01*
X118438095Y-74592857D01*
X118514285Y-74621428D01*
X118704761Y-74621428D01*
X118780952Y-74592857D01*
X118819047Y-74564285D01*
X118857142Y-74507142D01*
X118857142Y-74392857D01*
X118819047Y-74335714D01*
X118780952Y-74307142D01*
X118704761Y-74278571D01*
%TO.C,R5*%
X113961904Y-66100000D02*
X113580952Y-66300000D01*
X113961904Y-66442857D02*
X113161904Y-66442857D01*
X113161904Y-66214285D01*
X113200000Y-66157142D01*
X113238095Y-66128571D01*
X113314285Y-66100000D01*
X113428571Y-66100000D01*
X113504761Y-66128571D01*
X113542857Y-66157142D01*
X113580952Y-66214285D01*
X113580952Y-66442857D01*
X113161904Y-65557142D02*
X113161904Y-65842857D01*
X113542857Y-65871428D01*
X113504761Y-65842857D01*
X113466666Y-65785714D01*
X113466666Y-65642857D01*
X113504761Y-65585714D01*
X113542857Y-65557142D01*
X113619047Y-65528571D01*
X113809523Y-65528571D01*
X113885714Y-65557142D01*
X113923809Y-65585714D01*
X113961904Y-65642857D01*
X113961904Y-65785714D01*
X113923809Y-65842857D01*
X113885714Y-65871428D01*
%TO.C,C7*%
X115485714Y-71550000D02*
X115523809Y-71578571D01*
X115561904Y-71664285D01*
X115561904Y-71721428D01*
X115523809Y-71807142D01*
X115447619Y-71864285D01*
X115371428Y-71892857D01*
X115219047Y-71921428D01*
X115104761Y-71921428D01*
X114952380Y-71892857D01*
X114876190Y-71864285D01*
X114800000Y-71807142D01*
X114761904Y-71721428D01*
X114761904Y-71664285D01*
X114800000Y-71578571D01*
X114838095Y-71550000D01*
X114761904Y-71350000D02*
X114761904Y-70950000D01*
X115561904Y-71207142D01*
%TO.C,R3*%
X114061904Y-73850000D02*
X113680952Y-74050000D01*
X114061904Y-74192857D02*
X113261904Y-74192857D01*
X113261904Y-73964285D01*
X113300000Y-73907142D01*
X113338095Y-73878571D01*
X113414285Y-73850000D01*
X113528571Y-73850000D01*
X113604761Y-73878571D01*
X113642857Y-73907142D01*
X113680952Y-73964285D01*
X113680952Y-74192857D01*
X113261904Y-73650000D02*
X113261904Y-73278571D01*
X113566666Y-73478571D01*
X113566666Y-73392857D01*
X113604761Y-73335714D01*
X113642857Y-73307142D01*
X113719047Y-73278571D01*
X113909523Y-73278571D01*
X113985714Y-73307142D01*
X114023809Y-73335714D01*
X114061904Y-73392857D01*
X114061904Y-73564285D01*
X114023809Y-73621428D01*
X113985714Y-73650000D01*
D11*
%TO.C,R6*%
X133172936Y-56865000D02*
X133627064Y-56865000D01*
X133172936Y-58335000D02*
X133627064Y-58335000D01*
%TO.C,C3*%
X123915000Y-63461252D02*
X123915000Y-62938748D01*
X125385000Y-63461252D02*
X125385000Y-62938748D01*
%TO.C,R9*%
X125917224Y-75657500D02*
X125407776Y-75657500D01*
X125917224Y-76702500D02*
X125407776Y-76702500D01*
%TO.C,L1*%
X121255000Y-70500000D02*
X122245000Y-70500000D01*
X121255000Y-66300000D02*
X122245000Y-66300000D01*
%TO.C,R7*%
X102377064Y-76815000D02*
X101922936Y-76815000D01*
X102377064Y-78285000D02*
X101922936Y-78285000D01*
%TO.C,R2*%
X116585000Y-75985436D02*
X116585000Y-76439564D01*
X115115000Y-75985436D02*
X115115000Y-76439564D01*
%TO.C,C4*%
X105888748Y-78235000D02*
X106411252Y-78235000D01*
X105888748Y-76765000D02*
X106411252Y-76765000D01*
%TO.C,R8*%
X125395276Y-74077500D02*
X125904724Y-74077500D01*
X125395276Y-75122500D02*
X125904724Y-75122500D01*
%TO.C,J3*%
X153560000Y-66261000D02*
X153560000Y-56340000D01*
X144930000Y-62275000D02*
X144965000Y-62239000D01*
X147034000Y-59761000D02*
X147069000Y-59726000D01*
X153560000Y-56900000D02*
X143440000Y-56900000D01*
X153560000Y-63301000D02*
X143440000Y-63301000D01*
X144725000Y-62069000D02*
X144772000Y-62023000D01*
X153800000Y-56840000D02*
X153800000Y-56100000D01*
X143440000Y-66261000D02*
X143440000Y-56340000D01*
X153800000Y-56100000D02*
X153300000Y-56100000D01*
X153560000Y-58400000D02*
X143440000Y-58400000D01*
X153560000Y-56340000D02*
X143440000Y-56340000D01*
X153560000Y-66261000D02*
X143440000Y-66261000D01*
X147227000Y-59977000D02*
X147274000Y-59931000D01*
X150316000Y-62535000D02*
G75*
G03*
X151683042Y-62535427I684001J1534993D01*
G01*
X152535000Y-61684000D02*
G75*
G03*
X152535427Y-60316958I-1534993J684001D01*
G01*
X151684000Y-59465000D02*
G75*
G03*
X150971195Y-59319747I-683999J-1535001D01*
G01*
X151000000Y-59320000D02*
G75*
G03*
X150316682Y-59465244I-1J-1679992D01*
G01*
X149465000Y-60316000D02*
G75*
G03*
X149464573Y-61683042I1534993J-684001D01*
G01*
X147680000Y-61000000D02*
G75*
G03*
X147680000Y-61000000I-1680000J0D01*
G01*
%TO.C,C5*%
X125685000Y-69111252D02*
X125685000Y-68588748D01*
X124215000Y-69111252D02*
X124215000Y-68588748D01*
D12*
%TO.C,IC2*%
X123650000Y-70925000D02*
X123650000Y-71875000D01*
D11*
%TO.C,Q1*%
X134960000Y-60600000D02*
X134960000Y-58925000D01*
X134960000Y-60600000D02*
X134960000Y-61250000D01*
X131840000Y-60600000D02*
X131840000Y-61250000D01*
X131840000Y-60600000D02*
X131840000Y-59950000D01*
%TO.C,J1*%
X126050000Y-60362500D02*
X125600000Y-60362500D01*
X123850000Y-60912500D02*
X123850000Y-60462500D01*
X126050000Y-58512500D02*
X126050000Y-60362500D01*
X118250000Y-58512500D02*
X118250000Y-60362500D01*
X118250000Y-60362500D02*
X118700000Y-60362500D01*
X118250000Y-55962500D02*
X118250000Y-56212500D01*
X126050000Y-55962500D02*
X126050000Y-56212500D01*
X123850000Y-60912500D02*
X123400000Y-60912500D01*
%TO.C,Q2*%
X130760000Y-60600000D02*
X130760000Y-61250000D01*
X130760000Y-60600000D02*
X130760000Y-58925000D01*
X127640000Y-60600000D02*
X127640000Y-59950000D01*
X127640000Y-60600000D02*
X127640000Y-61250000D01*
%TO.C,R4*%
X113265000Y-59572936D02*
X113265000Y-60027064D01*
X114735000Y-59572936D02*
X114735000Y-60027064D01*
%TO.C,C6*%
X125503733Y-70890000D02*
X125796267Y-70890000D01*
X125503733Y-71910000D02*
X125796267Y-71910000D01*
%TO.C,U1*%
X112130000Y-57480000D02*
X112130000Y-58480000D01*
X111350000Y-75720000D02*
X112130000Y-75720000D01*
X86385000Y-75720000D02*
X92805000Y-75720000D01*
X86385000Y-57480000D02*
X92805000Y-57480000D01*
X86385000Y-75720000D02*
X86385000Y-57480000D01*
X111350000Y-57480000D02*
X112130000Y-57480000D01*
X92805000Y-75720000D02*
X92805000Y-76100000D01*
X112130000Y-75720000D02*
X112130000Y-74720000D01*
D13*
%TO.C,K1*%
X154500000Y-67800000D02*
X129500000Y-67800000D01*
X129100000Y-76900000D02*
X129100000Y-76900000D01*
X154500000Y-77800000D02*
X154500000Y-67800000D01*
X129500000Y-77800000D02*
X154500000Y-77800000D01*
X129500000Y-67800000D02*
X129500000Y-77800000D01*
X129000000Y-76900000D02*
X129000000Y-76900000D01*
X129100000Y-76900000D02*
G75*
G03*
X129000000Y-76900000I-50000J0D01*
G01*
X129000000Y-76900000D02*
G75*
G03*
X129100000Y-76900000I50000J0D01*
G01*
D11*
%TO.C,C2*%
X96461252Y-78335000D02*
X95938748Y-78335000D01*
X96461252Y-76865000D02*
X95938748Y-76865000D01*
%TO.C,R10*%
X128972936Y-58335000D02*
X129427064Y-58335000D01*
X128972936Y-56865000D02*
X129427064Y-56865000D01*
%TO.C,C10*%
X125796267Y-73540000D02*
X125503733Y-73540000D01*
X125796267Y-72520000D02*
X125503733Y-72520000D01*
D14*
%TO.C,IC1*%
X121325000Y-62150000D02*
G75*
G03*
X121325000Y-62150000I-125000J0D01*
G01*
D11*
%TO.C,C1*%
X121765000Y-62938748D02*
X121765000Y-63461252D01*
X123235000Y-62938748D02*
X123235000Y-63461252D01*
%TO.C,R1*%
X116915000Y-63172936D02*
X116915000Y-63627064D01*
X118385000Y-63172936D02*
X118385000Y-63627064D01*
%TO.C,C8*%
X121185000Y-72138748D02*
X121185000Y-72661252D01*
X119715000Y-72138748D02*
X119715000Y-72661252D01*
%TO.C,U2*%
X121600000Y-75550000D02*
X118000000Y-75550000D01*
X119800000Y-80000001D02*
G75*
G03*
X121638478Y-75561522I0J2600001D01*
G01*
X117961522Y-75561522D02*
G75*
G03*
X119800000Y-80000000I1838478J-1838478D01*
G01*
%TO.C,D1*%
X115390000Y-58115000D02*
X115390000Y-60800000D01*
X117310000Y-60800000D02*
X117310000Y-58115000D01*
X117310000Y-58115000D02*
X115390000Y-58115000D01*
%TO.C,C9*%
X117615000Y-72138748D02*
X117615000Y-72661252D01*
X119085000Y-72138748D02*
X119085000Y-72661252D01*
%TO.C,R5*%
X114735000Y-63185436D02*
X114735000Y-63639564D01*
X113265000Y-63185436D02*
X113265000Y-63639564D01*
%TO.C,C7*%
X116040000Y-72203733D02*
X116040000Y-72496267D01*
X117060000Y-72203733D02*
X117060000Y-72496267D01*
%TO.C,R3*%
X113115000Y-76439564D02*
X113115000Y-75985436D01*
X114585000Y-76439564D02*
X114585000Y-75985436D01*
%TD*%
M02*
