M48
; DRILL file {KiCad (6.0.0)} date Wed Dec 28 23:45:49 2022
; FORMAT={-:-/ absolute / inch / decimal}
; #@! TF.CreationDate,2022-12-28T23:45:49+02:00
; #@! TF.GenerationSoftware,Kicad,Pcbnew,(6.0.0)
; #@! TF.FileFunction,Plated,1,2,PTH
FMAT,2
INCH
; #@! TA.AperFunction,Plated,PTH,ViaDrill
T1C0.0157
; #@! TA.AperFunction,Plated,PTH,ComponentDrill
T2C0.0236
; #@! TA.AperFunction,Plated,PTH,ComponentDrill
T3C0.0295
; #@! TA.AperFunction,Plated,PTH,ComponentDrill
T4C0.0335
; #@! TA.AperFunction,Plated,PTH,ComponentDrill
T5C0.0394
; #@! TA.AperFunction,Plated,PTH,ComponentDrill
T6C0.0512
%
G90
G05
T1
X3.7008Y-2.874
X3.7244Y-2.3701
X3.8346Y-2.8268
X3.8583Y-2.3937
X3.874Y-3.063
X3.937Y-2.378
X3.9764Y-2.4567
X3.9764Y-2.8268
X4.0551Y-2.378
X4.0965Y-3.0217
X4.1102Y-2.4567
X4.1496Y-2.2362
X4.1732Y-2.6614
X4.1811Y-2.378
X4.2047Y-2.8189
X4.2283Y-2.7323
X4.252Y-2.5039
X4.2992Y-2.2362
X4.3937Y-3.0531
X4.4331Y-2.2441
X4.5039Y-2.8661
X4.5276Y-2.2441
X4.5335Y-2.815
X4.563Y-2.4488
X4.622Y-2.2441
X4.6398Y-2.9508
X4.6535Y-2.4016
X4.8465Y-3.0059
X4.9134Y-2.4094
X4.9843Y-2.378
X5.014Y-2.8428
X5.0551Y-2.7795
X5.124Y-2.3051
X5.1673Y-2.3858
X5.2894Y-2.3071
X5.2953Y-2.4843
X5.2992Y-2.5591
X5.2992Y-2.7795
X5.2992Y-3.0
T3
X4.6665Y-3.0472
X4.7165Y-3.0472
X4.7665Y-3.0472
T4
X4.7106Y-2.3647
X4.9075Y-2.3647
T5
X3.7244Y-2.4614
X3.7244Y-2.5614
X3.7244Y-2.6614
X3.8244Y-2.4614
X3.8244Y-2.5614
X3.8244Y-2.6614
X4.5344Y-2.6969
X4.6344Y-2.6969
X5.0236Y-2.5433
X5.1236Y-2.5433
T6
X5.1772Y-2.7185
X5.1772Y-2.8661
X5.1772Y-3.0138
X5.748Y-2.4016
X5.8661Y-2.7185
X5.9449Y-2.4016
X6.0039Y-3.0138
T2
G00X4.6713Y-2.2721
M15
G01X4.6713Y-2.2446
M16
G05
G00X4.9469Y-2.2446
M15
G01X4.9469Y-2.2721
M16
G05
T0
M30
