%TF.GenerationSoftware,KiCad,Pcbnew,7.0.2*%
%TF.CreationDate,2023-05-29T21:50:57+03:00*%
%TF.ProjectId,greenhouse-doc,67726565-6e68-46f7-9573-652d646f632e,rev?*%
%TF.SameCoordinates,Original*%
%TF.FileFunction,Profile,NP*%
%FSLAX46Y46*%
G04 Gerber Fmt 4.6, Leading zero omitted, Abs format (unit mm)*
G04 Created by KiCad (PCBNEW 7.0.2) date 2023-05-29 21:50:57*
%MOMM*%
%LPD*%
G01*
G04 APERTURE LIST*
%TA.AperFunction,Profile*%
%ADD10C,0.100000*%
%TD*%
G04 APERTURE END LIST*
D10*
X71000000Y-119000000D02*
X166999998Y-119000000D01*
X69000000Y-117000000D02*
X69000000Y-81000000D01*
X166500000Y-99250000D02*
X151750000Y-99250000D01*
X80996446Y-81000000D02*
X81003553Y-87000000D01*
X151750000Y-99250000D02*
G75*
G03*
X151750000Y-101750000I0J-1250000D01*
G01*
X71500000Y-85750000D02*
G75*
G03*
X71500000Y-88250000I0J-1250000D01*
G01*
X144000000Y-79000000D02*
G75*
G03*
X142000000Y-81000000I0J-2000000D01*
G01*
X71500000Y-88250000D02*
X78500000Y-88250000D01*
X166999998Y-118999998D02*
G75*
G03*
X168999998Y-117000000I2J1999998D01*
G01*
X78500000Y-88250000D02*
G75*
G03*
X78500000Y-85750000I0J1250000D01*
G01*
X144000000Y-79000000D02*
X167000000Y-79000000D01*
X81003600Y-87000000D02*
G75*
G03*
X83003553Y-89000000I2000000J0D01*
G01*
X78500000Y-85750000D02*
X71500000Y-85750000D01*
X169000000Y-81000000D02*
X168999998Y-117000000D01*
X142000000Y-81000000D02*
X142000000Y-87000000D01*
X151750000Y-101750000D02*
X166500000Y-101750000D01*
X140000000Y-89000000D02*
G75*
G03*
X142000000Y-87000000I0J2000000D01*
G01*
X71000000Y-79000000D02*
G75*
G03*
X69000000Y-81000000I0J-2000000D01*
G01*
X71000000Y-79000000D02*
X78996446Y-79000000D01*
X80996400Y-81000000D02*
G75*
G03*
X78996446Y-79000000I-2000000J0D01*
G01*
X69000000Y-117000000D02*
G75*
G03*
X71000000Y-119000000I2000000J0D01*
G01*
X169000000Y-81000000D02*
G75*
G03*
X167000000Y-79000000I-2000000J0D01*
G01*
X83003553Y-89000000D02*
X140000000Y-89000000D01*
X166500000Y-101750000D02*
G75*
G03*
X166500000Y-99250000I0J1250000D01*
G01*
M02*
