%TF.GenerationSoftware,KiCad,Pcbnew,(6.0.0)*%
%TF.CreationDate,2022-12-29T02:02:28+02:00*%
%TF.ProjectId,greenhouse-doc,67726565-6e68-46f7-9573-652d646f632e,rev?*%
%TF.SameCoordinates,Original*%
%TF.FileFunction,Soldermask,Top*%
%TF.FilePolarity,Negative*%
%FSLAX46Y46*%
G04 Gerber Fmt 4.6, Leading zero omitted, Abs format (unit mm)*
G04 Created by KiCad (PCBNEW (6.0.0)) date 2022-12-29 02:02:28*
%MOMM*%
%LPD*%
G01*
G04 APERTURE LIST*
G04 Aperture macros list*
%AMRoundRect*
0 Rectangle with rounded corners*
0 $1 Rounding radius*
0 $2 $3 $4 $5 $6 $7 $8 $9 X,Y pos of 4 corners*
0 Add a 4 corners polygon primitive as box body*
4,1,4,$2,$3,$4,$5,$6,$7,$8,$9,$2,$3,0*
0 Add four circle primitives for the rounded corners*
1,1,$1+$1,$2,$3*
1,1,$1+$1,$4,$5*
1,1,$1+$1,$6,$7*
1,1,$1+$1,$8,$9*
0 Add four rect primitives between the rounded corners*
20,1,$1+$1,$2,$3,$4,$5,0*
20,1,$1+$1,$4,$5,$6,$7,0*
20,1,$1+$1,$6,$7,$8,$9,0*
20,1,$1+$1,$8,$9,$2,$3,0*%
G04 Aperture macros list end*
%ADD10RoundRect,0.250000X-0.262500X-0.450000X0.262500X-0.450000X0.262500X0.450000X-0.262500X0.450000X0*%
%ADD11RoundRect,0.250000X0.475000X-0.337500X0.475000X0.337500X-0.475000X0.337500X-0.475000X-0.337500X0*%
%ADD12RoundRect,0.237500X0.250000X0.237500X-0.250000X0.237500X-0.250000X-0.237500X0.250000X-0.237500X0*%
%ADD13R,0.980000X3.700000*%
%ADD14RoundRect,0.250000X0.262500X0.450000X-0.262500X0.450000X-0.262500X-0.450000X0.262500X-0.450000X0*%
%ADD15RoundRect,0.250000X-0.450000X0.262500X-0.450000X-0.262500X0.450000X-0.262500X0.450000X0.262500X0*%
%ADD16RoundRect,0.250000X-0.337500X-0.475000X0.337500X-0.475000X0.337500X0.475000X-0.337500X0.475000X0*%
%ADD17RoundRect,0.237500X-0.250000X-0.237500X0.250000X-0.237500X0.250000X0.237500X-0.250000X0.237500X0*%
%ADD18R,2.600000X2.600000*%
%ADD19C,2.600000*%
%ADD20RoundRect,0.250000X0.475000X-0.250000X0.475000X0.250000X-0.475000X0.250000X-0.475000X-0.250000X0*%
%ADD21R,0.300000X0.950000*%
%ADD22RoundRect,0.150000X-0.150000X0.587500X-0.150000X-0.587500X0.150000X-0.587500X0.150000X0.587500X0*%
%ADD23R,0.400000X1.350000*%
%ADD24R,1.500000X1.900000*%
%ADD25C,1.450000*%
%ADD26O,1.200000X1.900000*%
%ADD27R,1.200000X1.900000*%
%ADD28RoundRect,0.237500X-0.300000X-0.237500X0.300000X-0.237500X0.300000X0.237500X-0.300000X0.237500X0*%
%ADD29R,5.000000X5.000000*%
%ADD30R,0.900000X2.000000*%
%ADD31R,2.000000X0.900000*%
%ADD32C,1.950000*%
%ADD33RoundRect,0.250000X0.337500X0.475000X-0.337500X0.475000X-0.337500X-0.475000X0.337500X-0.475000X0*%
%ADD34RoundRect,0.237500X0.300000X0.237500X-0.300000X0.237500X-0.300000X-0.237500X0.300000X-0.237500X0*%
%ADD35R,0.300000X0.700000*%
%ADD36R,1.800000X0.900000*%
%ADD37RoundRect,0.250000X-0.475000X0.337500X-0.475000X-0.337500X0.475000X-0.337500X0.475000X0.337500X0*%
%ADD38RoundRect,0.250000X-0.475000X0.250000X-0.475000X-0.250000X0.475000X-0.250000X0.475000X0.250000X0*%
%ADD39R,1.050000X1.500000*%
%ADD40O,1.050000X1.500000*%
%ADD41RoundRect,0.243750X-0.456250X0.243750X-0.456250X-0.243750X0.456250X-0.243750X0.456250X0.243750X0*%
%ADD42RoundRect,0.237500X-0.237500X0.300000X-0.237500X-0.300000X0.237500X-0.300000X0.237500X0.300000X0*%
%ADD43RoundRect,0.250000X0.450000X-0.262500X0.450000X0.262500X-0.450000X0.262500X-0.450000X-0.262500X0*%
%ADD44O,1.700000X1.700000*%
%ADD45R,1.700000X1.700000*%
G04 APERTURE END LIST*
D10*
%TO.C,R6*%
X132487500Y-57600000D03*
X134312500Y-57600000D03*
%TD*%
D11*
%TO.C,C3*%
X124650000Y-64237500D03*
X124650000Y-62162500D03*
%TD*%
D12*
%TO.C,R9*%
X124750000Y-76180000D03*
X126575000Y-76180000D03*
%TD*%
D13*
%TO.C,L1*%
X120565000Y-68400000D03*
X122935000Y-68400000D03*
%TD*%
D14*
%TO.C,R7*%
X103062500Y-77550000D03*
X101237500Y-77550000D03*
%TD*%
D15*
%TO.C,R2*%
X115850000Y-75300000D03*
X115850000Y-77125000D03*
%TD*%
D16*
%TO.C,C4*%
X105112500Y-77500000D03*
X107187500Y-77500000D03*
%TD*%
D17*
%TO.C,R8*%
X124737500Y-74600000D03*
X126562500Y-74600000D03*
%TD*%
D18*
%TO.C,J3*%
X151000000Y-61000000D03*
D19*
X146000000Y-61000000D03*
%TD*%
D20*
%TO.C,C5*%
X124950000Y-69800000D03*
X124950000Y-67900000D03*
%TD*%
D21*
%TO.C,IC2*%
X123150000Y-71400000D03*
X122650000Y-71400000D03*
X122150000Y-71400000D03*
X122150000Y-72900000D03*
X122650000Y-72900000D03*
X123150000Y-72900000D03*
%TD*%
D22*
%TO.C,Q1*%
X134350000Y-59662500D03*
X132450000Y-59662500D03*
X133400000Y-61537500D03*
%TD*%
D23*
%TO.C,J1*%
X123450000Y-60062500D03*
X122800000Y-60062500D03*
X122150000Y-60062500D03*
X121500000Y-60062500D03*
X120850000Y-60062500D03*
D24*
X123150000Y-57362500D03*
D25*
X124650000Y-60062500D03*
D26*
X125650000Y-57362500D03*
D25*
X119650000Y-60062500D03*
D26*
X118650000Y-57362500D03*
D27*
X119250000Y-57362500D03*
X125050000Y-57362500D03*
D24*
X121150000Y-57362500D03*
%TD*%
D22*
%TO.C,Q2*%
X130150000Y-59662500D03*
X128250000Y-59662500D03*
X129200000Y-61537500D03*
%TD*%
D15*
%TO.C,R4*%
X114000000Y-58887500D03*
X114000000Y-60712500D03*
%TD*%
D28*
%TO.C,C6*%
X124787500Y-71400000D03*
X126512500Y-71400000D03*
%TD*%
D29*
%TO.C,U1*%
X101495000Y-67600000D03*
D30*
X93995000Y-58100000D03*
X95265000Y-58100000D03*
X96535000Y-58100000D03*
X97805000Y-58100000D03*
X99075000Y-58100000D03*
X100345000Y-58100000D03*
X101615000Y-58100000D03*
X102885000Y-58100000D03*
X104155000Y-58100000D03*
X105425000Y-58100000D03*
X106695000Y-58100000D03*
X107965000Y-58100000D03*
X109235000Y-58100000D03*
X110505000Y-58100000D03*
D31*
X111505000Y-60885000D03*
X111505000Y-62155000D03*
X111505000Y-63425000D03*
X111505000Y-64695000D03*
X111505000Y-65965000D03*
X111505000Y-67235000D03*
X111505000Y-68505000D03*
X111505000Y-69775000D03*
X111505000Y-71045000D03*
X111505000Y-72315000D03*
D30*
X110505000Y-75100000D03*
X109235000Y-75100000D03*
X107965000Y-75100000D03*
X106695000Y-75100000D03*
X105425000Y-75100000D03*
X104155000Y-75100000D03*
X102885000Y-75100000D03*
X101615000Y-75100000D03*
X100345000Y-75100000D03*
X99075000Y-75100000D03*
X97805000Y-75100000D03*
X96535000Y-75100000D03*
X95265000Y-75100000D03*
X93995000Y-75100000D03*
%TD*%
D32*
%TO.C,K1*%
X131500000Y-76550000D03*
X152500000Y-76550000D03*
X149000000Y-69050000D03*
X131500000Y-69050000D03*
X131500000Y-72800000D03*
%TD*%
D33*
%TO.C,C2*%
X97237500Y-77600000D03*
X95162500Y-77600000D03*
%TD*%
D10*
%TO.C,R10*%
X128287500Y-57600000D03*
X130112500Y-57600000D03*
%TD*%
D34*
%TO.C,C10*%
X126512500Y-73030000D03*
X124787500Y-73030000D03*
%TD*%
D35*
%TO.C,IC1*%
X120550000Y-62500000D03*
X120050000Y-62500000D03*
X119550000Y-62500000D03*
X119550000Y-64500000D03*
X120050000Y-64500000D03*
X120550000Y-64500000D03*
D36*
X120050000Y-63500000D03*
%TD*%
D37*
%TO.C,C1*%
X122500000Y-62162500D03*
X122500000Y-64237500D03*
%TD*%
D15*
%TO.C,R1*%
X117650000Y-62487500D03*
X117650000Y-64312500D03*
%TD*%
D38*
%TO.C,C8*%
X120450000Y-71450000D03*
X120450000Y-73350000D03*
%TD*%
D39*
%TO.C,U2*%
X121070000Y-77400000D03*
D40*
X119800000Y-77400000D03*
X118530000Y-77400000D03*
%TD*%
D41*
%TO.C,D1*%
X116350000Y-58862500D03*
X116350000Y-60737500D03*
%TD*%
D38*
%TO.C,C9*%
X118350000Y-71450000D03*
X118350000Y-73350000D03*
%TD*%
D15*
%TO.C,R5*%
X114000000Y-62500000D03*
X114000000Y-64325000D03*
%TD*%
D42*
%TO.C,C7*%
X116550000Y-71487500D03*
X116550000Y-73212500D03*
%TD*%
D43*
%TO.C,R3*%
X113850000Y-77125000D03*
X113850000Y-75300000D03*
%TD*%
D44*
%TO.C,J5*%
X117715000Y-68500000D03*
D45*
X115175000Y-68500000D03*
%TD*%
%TO.C,J4*%
X127600000Y-64600000D03*
D44*
X130140000Y-64600000D03*
%TD*%
D45*
%TO.C,J2*%
X94600000Y-67600000D03*
D44*
X97140000Y-67600000D03*
X94600000Y-65060000D03*
X97140000Y-65060000D03*
X94600000Y-62520000D03*
X97140000Y-62520000D03*
%TD*%
M02*
