%TF.GenerationSoftware,KiCad,Pcbnew,7.0.2*%
%TF.CreationDate,2023-05-29T21:50:56+03:00*%
%TF.ProjectId,greenhouse-doc,67726565-6e68-46f7-9573-652d646f632e,rev?*%
%TF.SameCoordinates,Original*%
%TF.FileFunction,Paste,Top*%
%TF.FilePolarity,Positive*%
%FSLAX46Y46*%
G04 Gerber Fmt 4.6, Leading zero omitted, Abs format (unit mm)*
G04 Created by KiCad (PCBNEW 7.0.2) date 2023-05-29 21:50:56*
%MOMM*%
%LPD*%
G01*
G04 APERTURE LIST*
G04 Aperture macros list*
%AMRoundRect*
0 Rectangle with rounded corners*
0 $1 Rounding radius*
0 $2 $3 $4 $5 $6 $7 $8 $9 X,Y pos of 4 corners*
0 Add a 4 corners polygon primitive as box body*
4,1,4,$2,$3,$4,$5,$6,$7,$8,$9,$2,$3,0*
0 Add four circle primitives for the rounded corners*
1,1,$1+$1,$2,$3*
1,1,$1+$1,$4,$5*
1,1,$1+$1,$6,$7*
1,1,$1+$1,$8,$9*
0 Add four rect primitives between the rounded corners*
20,1,$1+$1,$2,$3,$4,$5,0*
20,1,$1+$1,$4,$5,$6,$7,0*
20,1,$1+$1,$6,$7,$8,$9,0*
20,1,$1+$1,$8,$9,$2,$3,0*%
G04 Aperture macros list end*
%ADD10RoundRect,0.250000X-0.262500X-0.450000X0.262500X-0.450000X0.262500X0.450000X-0.262500X0.450000X0*%
%ADD11RoundRect,0.250000X-0.475000X0.250000X-0.475000X-0.250000X0.475000X-0.250000X0.475000X0.250000X0*%
%ADD12R,0.800000X0.800000*%
%ADD13R,1.000000X1.000000*%
%ADD14RoundRect,0.150000X0.825000X0.150000X-0.825000X0.150000X-0.825000X-0.150000X0.825000X-0.150000X0*%
%ADD15RoundRect,0.250000X-0.450000X0.262500X-0.450000X-0.262500X0.450000X-0.262500X0.450000X0.262500X0*%
%ADD16R,0.980000X3.700000*%
%ADD17RoundRect,0.250000X0.262500X0.450000X-0.262500X0.450000X-0.262500X-0.450000X0.262500X-0.450000X0*%
%ADD18RoundRect,0.250000X0.250000X0.475000X-0.250000X0.475000X-0.250000X-0.475000X0.250000X-0.475000X0*%
%ADD19RoundRect,0.250000X0.450000X-0.262500X0.450000X0.262500X-0.450000X0.262500X-0.450000X-0.262500X0*%
%ADD20RoundRect,0.250000X0.475000X-0.250000X0.475000X0.250000X-0.475000X0.250000X-0.475000X-0.250000X0*%
%ADD21R,0.300000X0.950000*%
%ADD22RoundRect,0.150000X-0.150000X0.587500X-0.150000X-0.587500X0.150000X-0.587500X0.150000X0.587500X0*%
%ADD23R,1.350000X0.400000*%
%ADD24R,1.900000X1.500000*%
%ADD25R,2.000000X0.900000*%
%ADD26R,0.900000X2.000000*%
%ADD27R,5.000000X5.000000*%
%ADD28R,0.700000X0.300000*%
%ADD29R,0.900000X1.800000*%
%ADD30RoundRect,0.243750X0.456250X-0.243750X0.456250X0.243750X-0.456250X0.243750X-0.456250X-0.243750X0*%
G04 APERTURE END LIST*
D10*
%TO.C,R6*%
X163087500Y-107400000D03*
X164912500Y-107400000D03*
%TD*%
D11*
%TO.C,C3*%
X82000000Y-112050000D03*
X82000000Y-113950000D03*
%TD*%
D12*
%TO.C,S1*%
X72350000Y-90750000D03*
X72350000Y-93000000D03*
X72350000Y-95250000D03*
D13*
X70450000Y-89250000D03*
X70450000Y-96750000D03*
%TD*%
D14*
%TO.C,U3*%
X77475000Y-84155000D03*
X77475000Y-82885000D03*
X77475000Y-81615000D03*
X77475000Y-80345000D03*
X72525000Y-80345000D03*
X72525000Y-81615000D03*
X72525000Y-82885000D03*
X72525000Y-84155000D03*
%TD*%
D15*
%TO.C,R9*%
X87500000Y-97837500D03*
X87500000Y-99662500D03*
%TD*%
D16*
%TO.C,L1*%
X92435000Y-106420000D03*
X90065000Y-106420000D03*
%TD*%
D17*
%TO.C,R7*%
X99162500Y-94212500D03*
X97337500Y-94212500D03*
%TD*%
%TO.C,R2*%
X99162500Y-100750000D03*
X97337500Y-100750000D03*
%TD*%
D18*
%TO.C,C4*%
X99200000Y-96412500D03*
X97300000Y-96412500D03*
%TD*%
D19*
%TO.C,R8*%
X85500000Y-99662500D03*
X85500000Y-97837500D03*
%TD*%
D20*
%TO.C,C5*%
X86200000Y-103232500D03*
X86200000Y-101332500D03*
%TD*%
D21*
%TO.C,IC2*%
X88600000Y-103000000D03*
X89100000Y-103000000D03*
X89600000Y-103000000D03*
X89600000Y-101500000D03*
X89100000Y-101500000D03*
X88600000Y-101500000D03*
%TD*%
D22*
%TO.C,Q1*%
X164950000Y-109462500D03*
X163050000Y-109462500D03*
X164000000Y-111337500D03*
%TD*%
D23*
%TO.C,J1*%
X73100000Y-110900000D03*
X73100000Y-111550000D03*
X73100000Y-112200000D03*
X73100000Y-112850000D03*
X73100000Y-113500000D03*
D24*
X70400000Y-111200000D03*
X70400000Y-113200000D03*
%TD*%
D22*
%TO.C,Q2*%
X157350000Y-109462500D03*
X155450000Y-109462500D03*
X156400000Y-111337500D03*
%TD*%
D20*
%TO.C,C6*%
X84000000Y-103232500D03*
X84000000Y-101332500D03*
%TD*%
D25*
%TO.C,U1*%
X102500000Y-89995000D03*
X102500000Y-91265000D03*
X102500000Y-92535000D03*
X102500000Y-93805000D03*
X102500000Y-95075000D03*
X102500000Y-96345000D03*
X102500000Y-97615000D03*
X102500000Y-98885000D03*
X102500000Y-100155000D03*
X102500000Y-101425000D03*
X102500000Y-102695000D03*
X102500000Y-103965000D03*
X102500000Y-105235000D03*
X102500000Y-106505000D03*
D26*
X105285000Y-107505000D03*
X106555000Y-107505000D03*
X107825000Y-107505000D03*
X109095000Y-107505000D03*
X110365000Y-107505000D03*
X111635000Y-107505000D03*
X112905000Y-107505000D03*
X114175000Y-107505000D03*
X115445000Y-107505000D03*
X116715000Y-107505000D03*
D25*
X119500000Y-106505000D03*
X119500000Y-105235000D03*
X119500000Y-103965000D03*
X119500000Y-102695000D03*
X119500000Y-101425000D03*
X119500000Y-100155000D03*
X119500000Y-98885000D03*
X119500000Y-97615000D03*
X119500000Y-96345000D03*
X119500000Y-95075000D03*
X119500000Y-93805000D03*
X119500000Y-92535000D03*
X119500000Y-91265000D03*
X119500000Y-89995000D03*
D27*
X110000000Y-97495000D03*
%TD*%
D20*
%TO.C,C2*%
X99000000Y-92162500D03*
X99000000Y-90262500D03*
%TD*%
D10*
%TO.C,R10*%
X155487500Y-107400000D03*
X157312500Y-107400000D03*
%TD*%
D11*
%TO.C,C10*%
X83500000Y-97800000D03*
X83500000Y-99700000D03*
%TD*%
D28*
%TO.C,IC1*%
X78000000Y-111500000D03*
X78000000Y-112000000D03*
X78000000Y-112500000D03*
X80000000Y-112500000D03*
X80000000Y-112000000D03*
X80000000Y-111500000D03*
D29*
X79000000Y-112000000D03*
%TD*%
D11*
%TO.C,C1*%
X76000000Y-111050000D03*
X76000000Y-112950000D03*
%TD*%
D18*
%TO.C,C11*%
X80350000Y-90150000D03*
X78450000Y-90150000D03*
%TD*%
D30*
%TO.C,D2*%
X70250000Y-104825000D03*
X70250000Y-102950000D03*
%TD*%
D19*
%TO.C,R1*%
X84250000Y-114912500D03*
X84250000Y-113087500D03*
%TD*%
D18*
%TO.C,C8*%
X93450000Y-102500000D03*
X91550000Y-102500000D03*
%TD*%
D30*
%TO.C,D1*%
X70250000Y-100787500D03*
X70250000Y-98912500D03*
%TD*%
D18*
%TO.C,C9*%
X93450000Y-100250000D03*
X91550000Y-100250000D03*
%TD*%
D15*
%TO.C,R5*%
X72400000Y-98975000D03*
X72400000Y-100800000D03*
%TD*%
D19*
%TO.C,R11*%
X89500000Y-99662500D03*
X89500000Y-97837500D03*
%TD*%
D15*
%TO.C,R4*%
X72400000Y-102975000D03*
X72400000Y-104800000D03*
%TD*%
D18*
%TO.C,C7*%
X93450000Y-98000000D03*
X91550000Y-98000000D03*
%TD*%
D10*
%TO.C,R3*%
X97337500Y-98612500D03*
X99162500Y-98612500D03*
%TD*%
M02*
