%TF.GenerationSoftware,KiCad,Pcbnew,(6.0.0)*%
%TF.CreationDate,2022-12-29T02:02:28+02:00*%
%TF.ProjectId,greenhouse-doc,67726565-6e68-46f7-9573-652d646f632e,rev?*%
%TF.SameCoordinates,Original*%
%TF.FileFunction,Copper,L2,Bot*%
%TF.FilePolarity,Positive*%
%FSLAX46Y46*%
G04 Gerber Fmt 4.6, Leading zero omitted, Abs format (unit mm)*
G04 Created by KiCad (PCBNEW (6.0.0)) date 2022-12-29 02:02:28*
%MOMM*%
%LPD*%
G01*
G04 APERTURE LIST*
%TA.AperFunction,ComponentPad*%
%ADD10R,2.600000X2.600000*%
%TD*%
%TA.AperFunction,ComponentPad*%
%ADD11C,2.600000*%
%TD*%
%TA.AperFunction,ComponentPad*%
%ADD12C,1.450000*%
%TD*%
%TA.AperFunction,ComponentPad*%
%ADD13O,1.200000X1.900000*%
%TD*%
%TA.AperFunction,ComponentPad*%
%ADD14C,1.950000*%
%TD*%
%TA.AperFunction,ComponentPad*%
%ADD15R,1.050000X1.500000*%
%TD*%
%TA.AperFunction,ComponentPad*%
%ADD16O,1.050000X1.500000*%
%TD*%
%TA.AperFunction,ComponentPad*%
%ADD17O,1.700000X1.700000*%
%TD*%
%TA.AperFunction,ComponentPad*%
%ADD18R,1.700000X1.700000*%
%TD*%
%TA.AperFunction,ViaPad*%
%ADD19C,0.800000*%
%TD*%
%TA.AperFunction,Conductor*%
%ADD20C,0.500000*%
%TD*%
%TA.AperFunction,Conductor*%
%ADD21C,0.200000*%
%TD*%
%TA.AperFunction,Conductor*%
%ADD22C,2.000000*%
%TD*%
G04 APERTURE END LIST*
D10*
%TO.P,J3,1,Pin_1*%
%TO.N,Net-(J3-Pad1)*%
X151000000Y-61000000D03*
D11*
%TO.P,J3,2,Pin_2*%
%TO.N,Net-(J3-Pad2)*%
X146000000Y-61000000D03*
%TD*%
D12*
%TO.P,J1,6,Shield*%
%TO.N,GND*%
X124650000Y-60062500D03*
D13*
X125650000Y-57362500D03*
D12*
X119650000Y-60062500D03*
D13*
X118650000Y-57362500D03*
%TD*%
D14*
%TO.P,K1,1,COIL-_1*%
%TO.N,Net-(K1-Pad1)*%
X131500000Y-76550000D03*
%TO.P,K1,3,NO*%
%TO.N,Net-(J3-Pad1)*%
X152500000Y-76550000D03*
%TO.P,K1,5,COM*%
%TO.N,Net-(J3-Pad2)*%
X149000000Y-69050000D03*
%TO.P,K1,6,COIL-_2*%
%TO.N,Net-(K1-Pad6)*%
X131500000Y-69050000D03*
%TO.P,K1,7,COIL+*%
%TO.N,+3V3*%
X131500000Y-72800000D03*
%TD*%
D15*
%TO.P,U2,1,GND*%
%TO.N,GND*%
X121070000Y-77400000D03*
D16*
%TO.P,U2,2,DQ*%
%TO.N,/tempsens*%
X119800000Y-77400000D03*
%TO.P,U2,3,VDD*%
%TO.N,+3V3*%
X118530000Y-77400000D03*
%TD*%
D17*
%TO.P,J5,2,Pin_2*%
%TO.N,+BATT*%
X117715000Y-68500000D03*
D18*
%TO.P,J5,1,Pin_1*%
%TO.N,GND*%
X115175000Y-68500000D03*
%TD*%
%TO.P,J4,1,Pin_1*%
%TO.N,+BATT*%
X127600000Y-64600000D03*
D17*
%TO.P,J4,2,Pin_2*%
%TO.N,/vbt*%
X130140000Y-64600000D03*
%TD*%
D18*
%TO.P,J2,1,Pin_1*%
%TO.N,+3V3*%
X94600000Y-67600000D03*
D17*
%TO.P,J2,2,Pin_2*%
%TO.N,/rx*%
X97140000Y-67600000D03*
%TO.P,J2,3,Pin_3*%
%TO.N,/tx*%
X94600000Y-65060000D03*
%TO.P,J2,4,Pin_4*%
%TO.N,/boot*%
X97140000Y-65060000D03*
%TO.P,J2,5,Pin_5*%
%TO.N,GND*%
X94600000Y-62520000D03*
%TO.P,J2,6,Pin_6*%
%TO.N,/esp_en*%
X97140000Y-62520000D03*
%TD*%
D19*
%TO.N,GND*%
X111600000Y-77550000D03*
%TO.N,+3V3*%
X127356205Y-72206494D03*
X115150000Y-71500000D03*
%TO.N,GND*%
X134500000Y-63100000D03*
X97400000Y-71800000D03*
X115000000Y-57000000D03*
X131250000Y-60600000D03*
X94600000Y-60200000D03*
X108000000Y-63600000D03*
X104400000Y-62400000D03*
X94000000Y-73000000D03*
X134600000Y-70600000D03*
X126600000Y-60400000D03*
X106000000Y-67600000D03*
X98000000Y-60800000D03*
X117850000Y-74950000D03*
X100000000Y-60400000D03*
X103000000Y-60400000D03*
X101000000Y-62400000D03*
X101000000Y-71800000D03*
X106800000Y-71600000D03*
X128400000Y-70600000D03*
X114400000Y-72800000D03*
X115900000Y-62200000D03*
X134600000Y-65000000D03*
X118200000Y-61000000D03*
X117400000Y-57000000D03*
X112600000Y-57000000D03*
X124800000Y-61200000D03*
X123100000Y-76350000D03*
X134600000Y-76200000D03*
X106200000Y-60400000D03*
X107400000Y-69400000D03*
%TO.N,+3V3*%
X98400000Y-77800000D03*
%TO.N,/esp_en*%
X104050000Y-76750000D03*
%TO.N,/relay_2*%
X105400000Y-56800000D03*
X134350000Y-58600000D03*
%TO.N,/relay_1*%
X130150000Y-58550000D03*
X109200000Y-56800000D03*
%TD*%
D20*
%TO.N,+3V3*%
X117800000Y-78600000D02*
X99200000Y-78600000D01*
X127300000Y-78600000D02*
X117800000Y-78600000D01*
X117350000Y-78600000D02*
X117800000Y-78600000D01*
X116150000Y-77400000D02*
X117350000Y-78600000D01*
X99200000Y-78600000D02*
X98400000Y-77800000D01*
D21*
%TO.N,/esp_en*%
X104050000Y-76750000D02*
X103350000Y-77450000D01*
X99050000Y-77450000D02*
X95749511Y-74149511D01*
X103350000Y-77450000D02*
X99050000Y-77450000D01*
X95749511Y-74149511D02*
X95749511Y-63910489D01*
X95749511Y-63910489D02*
X97140000Y-62520000D01*
%TO.N,+3V3*%
X126649711Y-71500000D02*
X127356205Y-72206494D01*
X115150000Y-71500000D02*
X126649711Y-71500000D01*
D20*
X116150000Y-77400000D02*
X118530000Y-77400000D01*
X115199511Y-76449511D02*
X116150000Y-77400000D01*
X115199511Y-71549511D02*
X115199511Y-76449511D01*
X115150000Y-71500000D02*
X115199511Y-71549511D01*
X130275000Y-72800000D02*
X129000000Y-74075000D01*
X129000000Y-76900000D02*
X127300000Y-78600000D01*
X131500000Y-72800000D02*
X130275000Y-72800000D01*
X129000000Y-74075000D02*
X129000000Y-76900000D01*
D21*
%TO.N,/relay_2*%
X129600000Y-59200000D02*
X129311540Y-58911540D01*
X133750000Y-59200000D02*
X129600000Y-59200000D01*
X107800000Y-56800000D02*
X105400000Y-56800000D01*
X129311540Y-58911540D02*
X109911540Y-58911540D01*
X134350000Y-58600000D02*
X133750000Y-59200000D01*
X109911540Y-58911540D02*
X107800000Y-56800000D01*
%TO.N,/relay_1*%
X130137980Y-58562020D02*
X110962020Y-58562020D01*
X130150000Y-58550000D02*
X130137980Y-58562020D01*
X110962020Y-58562020D02*
X109200000Y-56800000D01*
D22*
%TO.N,Net-(J3-Pad1)*%
X155000000Y-72450000D02*
X155000000Y-65605000D01*
X152500000Y-74950000D02*
X155000000Y-72450000D01*
X155000000Y-65605000D02*
X150900000Y-61505000D01*
X152500000Y-76550000D02*
X152500000Y-74950000D01*
%TO.N,Net-(J3-Pad2)*%
X145900000Y-61505000D02*
X145900000Y-66700000D01*
X148250000Y-69050000D02*
X149000000Y-69050000D01*
X145900000Y-66700000D02*
X148250000Y-69050000D01*
%TD*%
%TA.AperFunction,Conductor*%
%TO.N,GND*%
G36*
X104963818Y-56218907D02*
G01*
X104999782Y-56268407D01*
X104999782Y-56329593D01*
X104975965Y-56368459D01*
X104971718Y-56371718D01*
X104875464Y-56497159D01*
X104814956Y-56643238D01*
X104794318Y-56800000D01*
X104814956Y-56956762D01*
X104875464Y-57102841D01*
X104971718Y-57228282D01*
X105097159Y-57324536D01*
X105243238Y-57385044D01*
X105400000Y-57405682D01*
X105556762Y-57385044D01*
X105702841Y-57324536D01*
X105828282Y-57228282D01*
X105896613Y-57139232D01*
X105947037Y-57104577D01*
X105975154Y-57100500D01*
X107634521Y-57100500D01*
X107692712Y-57119407D01*
X107704525Y-57129496D01*
X109661220Y-59086191D01*
X109663920Y-59089320D01*
X109666115Y-59093809D01*
X109672818Y-59100027D01*
X109702362Y-59127433D01*
X109705038Y-59130009D01*
X109718817Y-59143788D01*
X109722527Y-59146333D01*
X109726440Y-59149769D01*
X109748186Y-59169941D01*
X109756672Y-59173327D01*
X109756674Y-59173328D01*
X109758877Y-59174207D01*
X109778188Y-59184518D01*
X109780147Y-59185862D01*
X109780150Y-59185863D01*
X109787686Y-59191033D01*
X109796578Y-59193143D01*
X109796580Y-59193144D01*
X109813606Y-59197184D01*
X109827425Y-59201554D01*
X109852162Y-59211423D01*
X109858455Y-59212040D01*
X109864625Y-59212040D01*
X109887481Y-59214715D01*
X109896606Y-59216880D01*
X109925528Y-59212944D01*
X109938877Y-59212040D01*
X119118330Y-59212040D01*
X119176521Y-59230947D01*
X119198859Y-59257805D01*
X119638911Y-59697858D01*
X119650798Y-59703915D01*
X119655828Y-59703119D01*
X120105973Y-59252973D01*
X120106472Y-59253472D01*
X120137116Y-59222829D01*
X120182059Y-59212040D01*
X124118330Y-59212040D01*
X124176521Y-59230947D01*
X124198859Y-59257805D01*
X124638911Y-59697858D01*
X124650798Y-59703915D01*
X124655828Y-59703119D01*
X125105973Y-59252973D01*
X125106472Y-59253472D01*
X125137116Y-59222829D01*
X125182059Y-59212040D01*
X129146061Y-59212040D01*
X129204252Y-59230947D01*
X129216065Y-59241036D01*
X129349680Y-59374651D01*
X129352380Y-59377780D01*
X129354575Y-59382269D01*
X129361278Y-59388487D01*
X129390822Y-59415893D01*
X129393498Y-59418469D01*
X129407277Y-59432248D01*
X129410987Y-59434793D01*
X129414900Y-59438229D01*
X129436646Y-59458401D01*
X129445134Y-59461788D01*
X129445135Y-59461788D01*
X129447336Y-59462666D01*
X129466652Y-59472980D01*
X129468607Y-59474321D01*
X129468610Y-59474322D01*
X129476146Y-59479492D01*
X129502058Y-59485641D01*
X129515884Y-59490014D01*
X129534132Y-59497294D01*
X129534134Y-59497294D01*
X129540622Y-59499883D01*
X129546915Y-59500500D01*
X129553084Y-59500500D01*
X129575943Y-59503175D01*
X129576173Y-59503230D01*
X129576175Y-59503230D01*
X129585066Y-59505340D01*
X129613988Y-59501404D01*
X129627337Y-59500500D01*
X133696492Y-59500500D01*
X133700617Y-59500803D01*
X133705342Y-59502425D01*
X133754761Y-59500570D01*
X133758474Y-59500500D01*
X133777948Y-59500500D01*
X133782378Y-59499675D01*
X133787571Y-59499339D01*
X133803602Y-59498737D01*
X133808075Y-59498569D01*
X133817208Y-59498226D01*
X133825602Y-59494620D01*
X133825605Y-59494619D01*
X133827783Y-59493683D01*
X133848734Y-59487317D01*
X133860053Y-59485209D01*
X133882729Y-59471232D01*
X133895596Y-59464548D01*
X133913642Y-59456795D01*
X133913643Y-59456794D01*
X133920063Y-59454036D01*
X133924949Y-59450022D01*
X133929313Y-59445658D01*
X133947368Y-59431387D01*
X133955348Y-59426468D01*
X133973018Y-59403231D01*
X133981810Y-59393161D01*
X134155791Y-59219180D01*
X134210308Y-59191403D01*
X134238714Y-59191031D01*
X134350000Y-59205682D01*
X134506762Y-59185044D01*
X134652841Y-59124536D01*
X134778282Y-59028282D01*
X134874536Y-58902841D01*
X134935044Y-58756762D01*
X134955682Y-58600000D01*
X134935044Y-58443238D01*
X134874536Y-58297159D01*
X134778282Y-58171718D01*
X134652841Y-58075464D01*
X134506762Y-58014956D01*
X134350000Y-57994318D01*
X134193238Y-58014956D01*
X134047159Y-58075464D01*
X133921718Y-58171718D01*
X133825464Y-58297159D01*
X133764956Y-58443238D01*
X133744318Y-58600000D01*
X133758374Y-58706762D01*
X133758969Y-58711283D01*
X133747819Y-58771443D01*
X133730820Y-58794209D01*
X133654525Y-58870504D01*
X133600008Y-58898281D01*
X133584521Y-58899500D01*
X130803373Y-58899500D01*
X130745182Y-58880593D01*
X130709218Y-58831093D01*
X130709218Y-58769907D01*
X130711909Y-58762614D01*
X130713364Y-58759103D01*
X130735044Y-58706762D01*
X130755682Y-58550000D01*
X130735044Y-58393238D01*
X130674536Y-58247159D01*
X130578282Y-58121718D01*
X130452841Y-58025464D01*
X130306762Y-57964956D01*
X130150000Y-57944318D01*
X129993238Y-57964956D01*
X129847159Y-58025464D01*
X129721718Y-58121718D01*
X129717764Y-58126871D01*
X129644165Y-58222787D01*
X129593741Y-58257443D01*
X129565623Y-58261520D01*
X126429552Y-58261520D01*
X126371361Y-58242613D01*
X126335397Y-58193113D01*
X126335397Y-58131927D01*
X126346336Y-58108890D01*
X126368110Y-58075104D01*
X126372995Y-58065263D01*
X126430596Y-57907004D01*
X126433183Y-57896310D01*
X126449610Y-57766275D01*
X126450000Y-57760087D01*
X126450000Y-57628180D01*
X126445878Y-57615495D01*
X126441757Y-57612500D01*
X124865680Y-57612500D01*
X124852995Y-57616622D01*
X124850000Y-57620743D01*
X124850000Y-57754856D01*
X124850309Y-57760385D01*
X124864327Y-57885355D01*
X124866766Y-57896092D01*
X124922149Y-58055129D01*
X124926901Y-58065048D01*
X124955026Y-58110058D01*
X124969828Y-58169426D01*
X124946907Y-58226156D01*
X124895019Y-58258579D01*
X124871069Y-58261520D01*
X119429552Y-58261520D01*
X119371361Y-58242613D01*
X119335397Y-58193113D01*
X119335397Y-58131927D01*
X119346336Y-58108890D01*
X119368110Y-58075104D01*
X119372995Y-58065263D01*
X119430596Y-57907004D01*
X119433183Y-57896310D01*
X119449610Y-57766275D01*
X119450000Y-57760087D01*
X119450000Y-57628180D01*
X119445878Y-57615495D01*
X119441757Y-57612500D01*
X117865680Y-57612500D01*
X117852995Y-57616622D01*
X117850000Y-57620743D01*
X117850000Y-57754856D01*
X117850309Y-57760385D01*
X117864327Y-57885355D01*
X117866766Y-57896092D01*
X117922149Y-58055129D01*
X117926901Y-58065048D01*
X117955026Y-58110058D01*
X117969828Y-58169426D01*
X117946907Y-58226156D01*
X117895019Y-58258579D01*
X117871069Y-58261520D01*
X111127500Y-58261520D01*
X111069309Y-58242613D01*
X111057496Y-58232524D01*
X110440467Y-57615495D01*
X109819180Y-56994209D01*
X109791403Y-56939692D01*
X109791031Y-56911283D01*
X109800463Y-56839645D01*
X109805682Y-56800000D01*
X109785044Y-56643238D01*
X109724536Y-56497159D01*
X109628282Y-56371718D01*
X109624128Y-56368530D01*
X109596592Y-56314487D01*
X109606163Y-56254055D01*
X109649428Y-56210790D01*
X109694373Y-56200000D01*
X118095800Y-56200000D01*
X118153991Y-56218907D01*
X118189955Y-56268407D01*
X118189955Y-56329593D01*
X118156746Y-56377016D01*
X118150403Y-56381971D01*
X118030075Y-56499806D01*
X118023124Y-56508329D01*
X117931892Y-56649891D01*
X117927005Y-56659737D01*
X117869404Y-56817996D01*
X117866817Y-56828690D01*
X117850390Y-56958725D01*
X117850000Y-56964913D01*
X117850000Y-57096820D01*
X117854122Y-57109505D01*
X117858243Y-57112500D01*
X119434320Y-57112500D01*
X119447005Y-57108378D01*
X119450000Y-57104257D01*
X119450000Y-56970144D01*
X119449691Y-56964615D01*
X119435673Y-56839645D01*
X119433234Y-56828908D01*
X119377851Y-56669871D01*
X119373099Y-56659952D01*
X119283854Y-56517130D01*
X119277024Y-56508513D01*
X119158355Y-56389012D01*
X119145471Y-56378654D01*
X119146356Y-56377553D01*
X119111521Y-56335448D01*
X119107676Y-56274384D01*
X119140459Y-56222722D01*
X119197347Y-56200196D01*
X119203567Y-56200000D01*
X125095800Y-56200000D01*
X125153991Y-56218907D01*
X125189955Y-56268407D01*
X125189955Y-56329593D01*
X125156746Y-56377016D01*
X125150403Y-56381971D01*
X125030075Y-56499806D01*
X125023124Y-56508329D01*
X124931892Y-56649891D01*
X124927005Y-56659737D01*
X124869404Y-56817996D01*
X124866817Y-56828690D01*
X124850390Y-56958725D01*
X124850000Y-56964913D01*
X124850000Y-57096820D01*
X124854122Y-57109505D01*
X124858243Y-57112500D01*
X126434320Y-57112500D01*
X126447005Y-57108378D01*
X126450000Y-57104257D01*
X126450000Y-56970144D01*
X126449691Y-56964615D01*
X126435673Y-56839645D01*
X126433234Y-56828908D01*
X126377851Y-56669871D01*
X126373099Y-56659952D01*
X126283854Y-56517130D01*
X126277024Y-56508513D01*
X126158355Y-56389012D01*
X126145471Y-56378654D01*
X126146356Y-56377553D01*
X126111521Y-56335448D01*
X126107676Y-56274384D01*
X126140459Y-56222722D01*
X126197347Y-56200196D01*
X126203567Y-56200000D01*
X135901000Y-56200000D01*
X135959191Y-56218907D01*
X135995155Y-56268407D01*
X136000000Y-56299000D01*
X136000000Y-78701000D01*
X135981093Y-78759191D01*
X135931593Y-78795155D01*
X135901000Y-78800000D01*
X127976111Y-78800000D01*
X127917920Y-78781093D01*
X127881956Y-78731593D01*
X127881956Y-78670407D01*
X127906107Y-78630996D01*
X129295484Y-77241619D01*
X129304197Y-77233877D01*
X129326299Y-77216453D01*
X129332110Y-77211872D01*
X129365714Y-77163251D01*
X129367517Y-77160728D01*
X129398236Y-77119139D01*
X129398237Y-77119137D01*
X129402634Y-77113184D01*
X129405027Y-77106368D01*
X129409131Y-77100431D01*
X129426956Y-77044071D01*
X129427918Y-77041186D01*
X129447519Y-76985369D01*
X129447756Y-76979327D01*
X129448277Y-76976653D01*
X129449980Y-76971270D01*
X129450500Y-76964663D01*
X129450500Y-76911459D01*
X129450576Y-76907572D01*
X129452548Y-76857397D01*
X129452548Y-76857394D01*
X129452838Y-76850006D01*
X129451041Y-76843228D01*
X129450500Y-76833403D01*
X129450500Y-76519097D01*
X130319869Y-76519097D01*
X130324872Y-76595437D01*
X130332330Y-76709220D01*
X130333998Y-76734677D01*
X130335114Y-76739070D01*
X130335114Y-76739072D01*
X130361049Y-76841188D01*
X130387178Y-76944071D01*
X130477626Y-77140268D01*
X130602313Y-77316697D01*
X130757065Y-77467449D01*
X130936697Y-77587475D01*
X131135194Y-77672756D01*
X131200212Y-77687468D01*
X131341483Y-77719435D01*
X131341488Y-77719436D01*
X131345909Y-77720436D01*
X131561784Y-77728918D01*
X131579847Y-77726299D01*
X131771103Y-77698569D01*
X131771106Y-77698568D01*
X131775591Y-77697918D01*
X131907204Y-77653241D01*
X131975870Y-77629932D01*
X131975873Y-77629931D01*
X131980167Y-77628473D01*
X132128103Y-77545626D01*
X132164701Y-77525130D01*
X132164702Y-77525129D01*
X132168663Y-77522911D01*
X132334765Y-77384765D01*
X132472911Y-77218663D01*
X132578473Y-77030167D01*
X132588714Y-77000000D01*
X132620364Y-76906762D01*
X132647918Y-76825591D01*
X132650230Y-76809650D01*
X132674712Y-76640791D01*
X132678918Y-76611784D01*
X132680536Y-76550000D01*
X132678239Y-76524994D01*
X132661183Y-76339382D01*
X132660768Y-76334864D01*
X132602125Y-76126934D01*
X132506572Y-75933172D01*
X132377309Y-75760067D01*
X132218665Y-75613418D01*
X132035952Y-75498135D01*
X131835290Y-75418079D01*
X131623400Y-75375931D01*
X131515388Y-75374517D01*
X131411915Y-75373162D01*
X131411910Y-75373162D01*
X131407376Y-75373103D01*
X131402901Y-75373872D01*
X131402900Y-75373872D01*
X131300915Y-75391397D01*
X131194455Y-75409690D01*
X130991766Y-75484466D01*
X130987867Y-75486786D01*
X130987862Y-75486788D01*
X130810004Y-75592602D01*
X130806098Y-75594926D01*
X130802683Y-75597920D01*
X130802680Y-75597923D01*
X130787771Y-75610998D01*
X130643669Y-75737373D01*
X130509919Y-75907034D01*
X130409327Y-76098228D01*
X130407982Y-76102559D01*
X130407981Y-76102562D01*
X130349190Y-76291904D01*
X130345262Y-76304553D01*
X130341140Y-76339382D01*
X130321179Y-76508033D01*
X130319869Y-76519097D01*
X129450500Y-76519097D01*
X129450500Y-74302611D01*
X129469407Y-74244420D01*
X129479496Y-74232607D01*
X130330057Y-73382046D01*
X130384574Y-73354269D01*
X130445006Y-73363840D01*
X130480908Y-73394912D01*
X130602313Y-73566697D01*
X130757065Y-73717449D01*
X130760840Y-73719971D01*
X130760842Y-73719973D01*
X130834538Y-73769215D01*
X130936697Y-73837475D01*
X131135194Y-73922756D01*
X131211252Y-73939966D01*
X131341483Y-73969435D01*
X131341488Y-73969436D01*
X131345909Y-73970436D01*
X131561784Y-73978918D01*
X131619057Y-73970614D01*
X131771103Y-73948569D01*
X131771106Y-73948568D01*
X131775591Y-73947918D01*
X131877879Y-73913195D01*
X131975870Y-73879932D01*
X131975873Y-73879931D01*
X131980167Y-73878473D01*
X132168663Y-73772911D01*
X132334765Y-73634765D01*
X132472911Y-73468663D01*
X132578473Y-73280167D01*
X132647918Y-73075591D01*
X132678918Y-72861784D01*
X132680217Y-72812176D01*
X132680460Y-72802914D01*
X132680460Y-72802909D01*
X132680536Y-72800000D01*
X132679837Y-72792385D01*
X132661183Y-72589382D01*
X132660768Y-72584864D01*
X132602125Y-72376934D01*
X132506572Y-72183172D01*
X132377309Y-72010067D01*
X132218665Y-71863418D01*
X132183625Y-71841309D01*
X132039789Y-71750556D01*
X132035952Y-71748135D01*
X131835290Y-71668079D01*
X131623400Y-71625931D01*
X131515388Y-71624517D01*
X131411915Y-71623162D01*
X131411910Y-71623162D01*
X131407376Y-71623103D01*
X131402901Y-71623872D01*
X131402900Y-71623872D01*
X131300915Y-71641397D01*
X131194455Y-71659690D01*
X130991766Y-71734466D01*
X130987867Y-71736786D01*
X130987862Y-71736788D01*
X130810004Y-71842602D01*
X130806098Y-71844926D01*
X130802683Y-71847920D01*
X130802680Y-71847923D01*
X130787771Y-71860998D01*
X130643669Y-71987373D01*
X130509919Y-72157034D01*
X130507806Y-72161049D01*
X130507806Y-72161050D01*
X130436492Y-72296596D01*
X130392665Y-72339290D01*
X130348878Y-72349500D01*
X130307626Y-72349500D01*
X130295990Y-72348814D01*
X130294453Y-72348632D01*
X130260689Y-72344636D01*
X130253413Y-72345965D01*
X130253409Y-72345965D01*
X130202573Y-72355250D01*
X130199505Y-72355761D01*
X130152494Y-72362829D01*
X130141038Y-72364551D01*
X130134525Y-72367679D01*
X130127427Y-72368975D01*
X130093656Y-72386517D01*
X130075002Y-72396207D01*
X130072236Y-72397590D01*
X130018921Y-72423191D01*
X130014481Y-72427295D01*
X130012218Y-72428820D01*
X130007211Y-72431421D01*
X130002172Y-72435725D01*
X129964540Y-72473357D01*
X129961737Y-72476051D01*
X129924876Y-72510124D01*
X129924874Y-72510127D01*
X129919444Y-72515146D01*
X129915922Y-72521210D01*
X129909362Y-72528535D01*
X128704516Y-73733381D01*
X128695804Y-73741122D01*
X128667890Y-73763128D01*
X128663683Y-73769215D01*
X128634292Y-73811741D01*
X128632488Y-73814264D01*
X128597366Y-73861816D01*
X128594973Y-73868632D01*
X128590869Y-73874569D01*
X128588636Y-73881628D01*
X128588636Y-73881629D01*
X128573049Y-73930915D01*
X128572082Y-73933814D01*
X128552481Y-73989631D01*
X128552244Y-73995673D01*
X128551723Y-73998347D01*
X128550020Y-74003730D01*
X128549500Y-74010337D01*
X128549500Y-74063541D01*
X128549424Y-74067428D01*
X128547595Y-74113987D01*
X128547162Y-74124994D01*
X128548959Y-74131772D01*
X128549500Y-74141597D01*
X128549500Y-76672389D01*
X128530593Y-76730580D01*
X128520504Y-76742393D01*
X127142393Y-78120504D01*
X127087876Y-78148281D01*
X127072389Y-78149500D01*
X121894000Y-78149500D01*
X121835809Y-78130593D01*
X121799845Y-78081093D01*
X121795000Y-78050500D01*
X121795000Y-77665680D01*
X121790878Y-77652995D01*
X121786757Y-77650000D01*
X120919000Y-77650000D01*
X120860809Y-77631093D01*
X120824845Y-77581593D01*
X120820000Y-77551000D01*
X120820000Y-77134320D01*
X121320000Y-77134320D01*
X121324122Y-77147005D01*
X121328243Y-77150000D01*
X121779320Y-77150000D01*
X121792005Y-77145878D01*
X121795000Y-77141757D01*
X121795000Y-76635160D01*
X121794052Y-76625538D01*
X121785298Y-76581526D01*
X121777979Y-76563858D01*
X121744611Y-76513918D01*
X121731082Y-76500389D01*
X121681142Y-76467021D01*
X121663474Y-76459702D01*
X121619462Y-76450948D01*
X121609840Y-76450000D01*
X121335680Y-76450000D01*
X121322995Y-76454122D01*
X121320000Y-76458243D01*
X121320000Y-77134320D01*
X120820000Y-77134320D01*
X120820000Y-76465680D01*
X120815878Y-76452995D01*
X120811757Y-76450000D01*
X120530160Y-76450000D01*
X120520538Y-76450948D01*
X120476526Y-76459702D01*
X120458858Y-76467021D01*
X120408918Y-76500389D01*
X120395388Y-76513919D01*
X120366229Y-76557558D01*
X120318179Y-76595437D01*
X120257041Y-76597839D01*
X120234190Y-76588163D01*
X120096236Y-76508033D01*
X120096235Y-76508033D01*
X120091262Y-76505144D01*
X119996797Y-76476533D01*
X119934855Y-76457772D01*
X119934852Y-76457772D01*
X119929350Y-76456105D01*
X119785146Y-76447159D01*
X119766239Y-76445986D01*
X119766238Y-76445986D01*
X119760499Y-76445630D01*
X119593767Y-76474280D01*
X119588472Y-76476533D01*
X119499026Y-76514593D01*
X119438098Y-76540518D01*
X119365333Y-76594067D01*
X119309494Y-76635160D01*
X119301842Y-76640791D01*
X119298119Y-76645173D01*
X119298117Y-76645175D01*
X119243203Y-76709813D01*
X119191118Y-76741919D01*
X119130109Y-76737278D01*
X119092518Y-76709741D01*
X119090367Y-76706460D01*
X118967550Y-76590115D01*
X118821262Y-76505144D01*
X118726797Y-76476533D01*
X118664855Y-76457772D01*
X118664852Y-76457772D01*
X118659350Y-76456105D01*
X118515146Y-76447159D01*
X118496239Y-76445986D01*
X118496238Y-76445986D01*
X118490499Y-76445630D01*
X118323767Y-76474280D01*
X118318472Y-76476533D01*
X118229026Y-76514593D01*
X118168098Y-76540518D01*
X118095333Y-76594067D01*
X118039494Y-76635160D01*
X118031842Y-76640791D01*
X118028119Y-76645173D01*
X118028117Y-76645175D01*
X117939061Y-76750000D01*
X117922308Y-76769720D01*
X117858069Y-76895525D01*
X117814769Y-76938749D01*
X117769901Y-76949500D01*
X116377611Y-76949500D01*
X116319420Y-76930593D01*
X116307607Y-76920504D01*
X115679007Y-76291904D01*
X115651230Y-76237387D01*
X115650011Y-76221900D01*
X115650011Y-71899500D01*
X115668918Y-71841309D01*
X115718418Y-71805345D01*
X115749011Y-71800500D01*
X126484232Y-71800500D01*
X126542423Y-71819407D01*
X126554236Y-71829496D01*
X126737025Y-72012285D01*
X126764802Y-72066802D01*
X126765174Y-72095208D01*
X126750523Y-72206494D01*
X126771161Y-72363256D01*
X126773645Y-72369253D01*
X126776827Y-72376934D01*
X126831669Y-72509335D01*
X126927923Y-72634776D01*
X127053364Y-72731030D01*
X127199443Y-72791538D01*
X127356205Y-72812176D01*
X127512967Y-72791538D01*
X127659046Y-72731030D01*
X127784487Y-72634776D01*
X127880741Y-72509335D01*
X127935583Y-72376934D01*
X127938765Y-72369253D01*
X127941249Y-72363256D01*
X127961887Y-72206494D01*
X127941249Y-72049732D01*
X127880741Y-71903653D01*
X127784487Y-71778212D01*
X127659046Y-71681958D01*
X127512967Y-71621450D01*
X127356205Y-71600812D01*
X127244921Y-71615463D01*
X127184762Y-71604313D01*
X127161996Y-71587314D01*
X126900031Y-71325349D01*
X126897331Y-71322220D01*
X126895136Y-71317731D01*
X126858889Y-71284107D01*
X126856213Y-71281531D01*
X126842434Y-71267752D01*
X126838724Y-71265207D01*
X126834811Y-71261771D01*
X126819766Y-71247815D01*
X126813065Y-71241599D01*
X126802375Y-71237334D01*
X126783059Y-71227020D01*
X126781104Y-71225679D01*
X126781101Y-71225678D01*
X126773565Y-71220508D01*
X126747652Y-71214359D01*
X126733827Y-71209986D01*
X126715579Y-71202706D01*
X126715577Y-71202706D01*
X126709089Y-71200117D01*
X126702796Y-71199500D01*
X126696627Y-71199500D01*
X126673768Y-71196825D01*
X126673538Y-71196770D01*
X126673536Y-71196770D01*
X126664645Y-71194660D01*
X126635724Y-71198596D01*
X126622374Y-71199500D01*
X115725154Y-71199500D01*
X115666963Y-71180593D01*
X115646612Y-71160768D01*
X115578282Y-71071718D01*
X115452841Y-70975464D01*
X115306762Y-70914956D01*
X115150000Y-70894318D01*
X114993238Y-70914956D01*
X114847159Y-70975464D01*
X114721718Y-71071718D01*
X114625464Y-71197159D01*
X114564956Y-71343238D01*
X114544318Y-71500000D01*
X114564956Y-71656762D01*
X114625464Y-71802841D01*
X114721049Y-71927410D01*
X114721050Y-71927412D01*
X114721718Y-71928282D01*
X114721557Y-71928406D01*
X114747792Y-71979897D01*
X114749011Y-71995384D01*
X114749011Y-76416884D01*
X114748325Y-76428520D01*
X114744147Y-76463821D01*
X114745476Y-76471097D01*
X114745476Y-76471100D01*
X114750826Y-76500389D01*
X114753297Y-76513918D01*
X114754759Y-76521925D01*
X114755269Y-76524987D01*
X114764062Y-76583473D01*
X114767190Y-76589986D01*
X114768486Y-76597084D01*
X114783267Y-76625538D01*
X114795709Y-76649491D01*
X114797099Y-76652273D01*
X114819498Y-76698919D01*
X114819500Y-76698922D01*
X114822702Y-76705590D01*
X114826808Y-76710032D01*
X114828331Y-76712292D01*
X114830932Y-76717299D01*
X114835236Y-76722339D01*
X114872868Y-76759971D01*
X114875562Y-76762774D01*
X114909635Y-76799635D01*
X114909638Y-76799637D01*
X114914657Y-76805067D01*
X114920721Y-76808589D01*
X114928046Y-76815149D01*
X115808381Y-77695484D01*
X115816122Y-77704196D01*
X115838128Y-77732110D01*
X115844215Y-77736317D01*
X115853021Y-77742403D01*
X115866738Y-77753841D01*
X116093393Y-77980496D01*
X116121170Y-78035013D01*
X116111599Y-78095445D01*
X116068334Y-78138710D01*
X116023389Y-78149500D01*
X99427611Y-78149500D01*
X99369420Y-78130593D01*
X99357607Y-78120504D01*
X99156607Y-77919504D01*
X99128830Y-77864987D01*
X99138401Y-77804555D01*
X99181666Y-77761290D01*
X99226611Y-77750500D01*
X103296492Y-77750500D01*
X103300617Y-77750803D01*
X103305342Y-77752425D01*
X103354761Y-77750570D01*
X103358474Y-77750500D01*
X103377948Y-77750500D01*
X103382378Y-77749675D01*
X103387571Y-77749339D01*
X103403602Y-77748737D01*
X103408075Y-77748569D01*
X103417208Y-77748226D01*
X103425602Y-77744620D01*
X103425605Y-77744619D01*
X103427783Y-77743683D01*
X103448734Y-77737317D01*
X103460053Y-77735209D01*
X103482729Y-77721232D01*
X103495596Y-77714548D01*
X103513642Y-77706795D01*
X103513643Y-77706794D01*
X103520063Y-77704036D01*
X103524949Y-77700022D01*
X103529313Y-77695658D01*
X103547368Y-77681387D01*
X103555348Y-77676468D01*
X103573018Y-77653231D01*
X103581810Y-77643161D01*
X103855791Y-77369180D01*
X103910308Y-77341403D01*
X103938714Y-77341031D01*
X104050000Y-77355682D01*
X104206762Y-77335044D01*
X104352841Y-77274536D01*
X104478282Y-77178282D01*
X104574536Y-77052841D01*
X104635044Y-76906762D01*
X104655682Y-76750000D01*
X104635044Y-76593238D01*
X104574536Y-76447159D01*
X104478282Y-76321718D01*
X104352841Y-76225464D01*
X104206762Y-76164956D01*
X104050000Y-76144318D01*
X103893238Y-76164956D01*
X103747159Y-76225464D01*
X103621718Y-76321718D01*
X103525464Y-76447159D01*
X103464956Y-76593238D01*
X103444318Y-76750000D01*
X103456729Y-76844266D01*
X103458969Y-76861283D01*
X103447819Y-76921443D01*
X103430820Y-76944209D01*
X103254525Y-77120504D01*
X103200008Y-77148281D01*
X103184521Y-77149500D01*
X99215479Y-77149500D01*
X99157288Y-77130593D01*
X99145475Y-77120504D01*
X96079007Y-74054036D01*
X96051230Y-73999519D01*
X96050011Y-73984032D01*
X96050011Y-69364840D01*
X114125000Y-69364840D01*
X114125948Y-69374462D01*
X114134702Y-69418474D01*
X114142021Y-69436142D01*
X114175389Y-69486082D01*
X114188918Y-69499611D01*
X114238858Y-69532979D01*
X114256526Y-69540298D01*
X114300538Y-69549052D01*
X114310160Y-69550000D01*
X114909320Y-69550000D01*
X114922005Y-69545878D01*
X114925000Y-69541757D01*
X114925000Y-69534320D01*
X115425000Y-69534320D01*
X115429122Y-69547005D01*
X115433243Y-69550000D01*
X116039840Y-69550000D01*
X116049462Y-69549052D01*
X116093474Y-69540298D01*
X116111142Y-69532979D01*
X116161082Y-69499611D01*
X116174611Y-69486082D01*
X116207979Y-69436142D01*
X116215298Y-69418474D01*
X116224052Y-69374462D01*
X116225000Y-69364840D01*
X116225000Y-68765680D01*
X116220878Y-68752995D01*
X116216757Y-68750000D01*
X115440680Y-68750000D01*
X115427995Y-68754122D01*
X115425000Y-68758243D01*
X115425000Y-69534320D01*
X114925000Y-69534320D01*
X114925000Y-68765680D01*
X114920878Y-68752995D01*
X114916757Y-68750000D01*
X114140680Y-68750000D01*
X114127995Y-68754122D01*
X114125000Y-68758243D01*
X114125000Y-69364840D01*
X96050011Y-69364840D01*
X96050011Y-68186621D01*
X96068918Y-68128430D01*
X96118418Y-68092466D01*
X96179604Y-68092466D01*
X96229104Y-68128430D01*
X96237063Y-68141369D01*
X96252712Y-68171818D01*
X96380677Y-68333270D01*
X96384357Y-68336402D01*
X96384359Y-68336404D01*
X96472068Y-68411050D01*
X96537564Y-68466791D01*
X96541787Y-68469151D01*
X96541791Y-68469154D01*
X96658702Y-68534493D01*
X96717398Y-68567297D01*
X96721996Y-68568791D01*
X96908724Y-68629463D01*
X96908726Y-68629464D01*
X96913329Y-68630959D01*
X97117894Y-68655351D01*
X97122716Y-68654980D01*
X97122719Y-68654980D01*
X97193259Y-68649552D01*
X97323300Y-68639546D01*
X97521725Y-68584145D01*
X97526038Y-68581966D01*
X97526044Y-68581964D01*
X97701289Y-68493441D01*
X97701291Y-68493440D01*
X97705610Y-68491258D01*
X97713285Y-68485262D01*
X116659520Y-68485262D01*
X116659925Y-68490082D01*
X116673396Y-68650500D01*
X116676759Y-68690553D01*
X116733544Y-68888586D01*
X116827712Y-69071818D01*
X116955677Y-69233270D01*
X116959357Y-69236402D01*
X116959359Y-69236404D01*
X117058881Y-69321103D01*
X117112564Y-69366791D01*
X117116787Y-69369151D01*
X117116791Y-69369154D01*
X117233702Y-69434493D01*
X117292398Y-69467297D01*
X117296996Y-69468791D01*
X117483724Y-69529463D01*
X117483726Y-69529464D01*
X117488329Y-69530959D01*
X117692894Y-69555351D01*
X117697716Y-69554980D01*
X117697719Y-69554980D01*
X117774757Y-69549052D01*
X117898300Y-69539546D01*
X118096725Y-69484145D01*
X118101038Y-69481966D01*
X118101044Y-69481964D01*
X118276289Y-69393441D01*
X118276291Y-69393440D01*
X118280610Y-69391258D01*
X118315943Y-69363653D01*
X118439135Y-69267406D01*
X118439139Y-69267402D01*
X118442951Y-69264424D01*
X118577564Y-69108472D01*
X118596231Y-69075613D01*
X118628337Y-69019097D01*
X130319869Y-69019097D01*
X130322085Y-69052914D01*
X130333658Y-69229483D01*
X130333998Y-69234677D01*
X130335114Y-69239070D01*
X130335114Y-69239072D01*
X130358179Y-69329888D01*
X130387178Y-69444071D01*
X130477626Y-69640268D01*
X130602313Y-69816697D01*
X130757065Y-69967449D01*
X130936697Y-70087475D01*
X131135194Y-70172756D01*
X131211252Y-70189966D01*
X131341483Y-70219435D01*
X131341488Y-70219436D01*
X131345909Y-70220436D01*
X131561784Y-70228918D01*
X131619057Y-70220614D01*
X131771103Y-70198569D01*
X131771106Y-70198568D01*
X131775591Y-70197918D01*
X131877879Y-70163196D01*
X131975870Y-70129932D01*
X131975873Y-70129931D01*
X131980167Y-70128473D01*
X132168663Y-70022911D01*
X132334765Y-69884765D01*
X132472911Y-69718663D01*
X132578473Y-69530167D01*
X132588846Y-69499611D01*
X132633932Y-69366791D01*
X132647918Y-69325591D01*
X132660463Y-69239072D01*
X132678501Y-69114659D01*
X132678918Y-69111784D01*
X132680536Y-69050000D01*
X132677697Y-69019097D01*
X132661183Y-68839382D01*
X132660768Y-68834864D01*
X132602125Y-68626934D01*
X132506572Y-68433172D01*
X132377309Y-68260067D01*
X132218665Y-68113418D01*
X132179615Y-68088779D01*
X132039789Y-68000556D01*
X132035952Y-67998135D01*
X131835290Y-67918079D01*
X131623400Y-67875931D01*
X131515388Y-67874517D01*
X131411915Y-67873162D01*
X131411910Y-67873162D01*
X131407376Y-67873103D01*
X131402901Y-67873872D01*
X131402900Y-67873872D01*
X131300916Y-67891396D01*
X131194455Y-67909690D01*
X130991766Y-67984466D01*
X130987867Y-67986786D01*
X130987862Y-67986788D01*
X130816430Y-68088779D01*
X130806098Y-68094926D01*
X130802683Y-68097920D01*
X130802680Y-68097923D01*
X130797598Y-68102380D01*
X130643669Y-68237373D01*
X130509919Y-68407034D01*
X130409327Y-68598228D01*
X130407982Y-68602559D01*
X130407981Y-68602562D01*
X130367212Y-68733863D01*
X130345262Y-68804553D01*
X130319869Y-69019097D01*
X118628337Y-69019097D01*
X118676934Y-68933550D01*
X118676935Y-68933547D01*
X118679323Y-68929344D01*
X118692882Y-68888586D01*
X118742824Y-68738454D01*
X118742824Y-68738452D01*
X118744351Y-68733863D01*
X118746241Y-68718907D01*
X118769823Y-68532228D01*
X118770171Y-68529474D01*
X118770583Y-68500000D01*
X118769611Y-68490082D01*
X118750952Y-68299780D01*
X118750951Y-68299776D01*
X118750480Y-68294970D01*
X118735999Y-68247005D01*
X118692333Y-68102380D01*
X118690935Y-68097749D01*
X118594218Y-67915849D01*
X118464011Y-67756200D01*
X118305275Y-67624882D01*
X118124055Y-67526897D01*
X118060855Y-67507333D01*
X117931875Y-67467407D01*
X117931871Y-67467406D01*
X117927254Y-67465977D01*
X117922446Y-67465472D01*
X117922443Y-67465471D01*
X117727185Y-67444949D01*
X117727183Y-67444949D01*
X117722369Y-67444443D01*
X117662354Y-67449905D01*
X117522022Y-67462675D01*
X117522017Y-67462676D01*
X117517203Y-67463114D01*
X117319572Y-67521280D01*
X117315288Y-67523519D01*
X117315287Y-67523520D01*
X117304428Y-67529197D01*
X117137002Y-67616726D01*
X117133231Y-67619758D01*
X116980220Y-67742781D01*
X116980217Y-67742783D01*
X116976447Y-67745815D01*
X116973333Y-67749526D01*
X116973332Y-67749527D01*
X116902566Y-67833863D01*
X116844024Y-67903630D01*
X116841689Y-67907878D01*
X116841688Y-67907879D01*
X116836567Y-67917195D01*
X116744776Y-68084162D01*
X116743313Y-68088775D01*
X116743311Y-68088779D01*
X116696175Y-68237373D01*
X116682484Y-68280532D01*
X116681944Y-68285344D01*
X116681944Y-68285345D01*
X116661327Y-68469154D01*
X116659520Y-68485262D01*
X97713285Y-68485262D01*
X97740943Y-68463653D01*
X97864135Y-68367406D01*
X97864139Y-68367402D01*
X97867951Y-68364424D01*
X97980253Y-68234320D01*
X114125000Y-68234320D01*
X114129122Y-68247005D01*
X114133243Y-68250000D01*
X114909320Y-68250000D01*
X114922005Y-68245878D01*
X114925000Y-68241757D01*
X114925000Y-68234320D01*
X115425000Y-68234320D01*
X115429122Y-68247005D01*
X115433243Y-68250000D01*
X116209320Y-68250000D01*
X116222005Y-68245878D01*
X116225000Y-68241757D01*
X116225000Y-67635160D01*
X116224052Y-67625538D01*
X116215298Y-67581526D01*
X116207979Y-67563858D01*
X116174611Y-67513918D01*
X116161082Y-67500389D01*
X116111142Y-67467021D01*
X116093474Y-67459702D01*
X116049462Y-67450948D01*
X116039840Y-67450000D01*
X115440680Y-67450000D01*
X115427995Y-67454122D01*
X115425000Y-67458243D01*
X115425000Y-68234320D01*
X114925000Y-68234320D01*
X114925000Y-67465680D01*
X114920878Y-67452995D01*
X114916757Y-67450000D01*
X114310160Y-67450000D01*
X114300538Y-67450948D01*
X114256526Y-67459702D01*
X114238858Y-67467021D01*
X114188918Y-67500389D01*
X114175389Y-67513918D01*
X114142021Y-67563858D01*
X114134702Y-67581526D01*
X114125948Y-67625538D01*
X114125000Y-67635160D01*
X114125000Y-68234320D01*
X97980253Y-68234320D01*
X98002564Y-68208472D01*
X98021231Y-68175613D01*
X98101934Y-68033550D01*
X98101935Y-68033547D01*
X98104323Y-68029344D01*
X98115265Y-67996453D01*
X98167824Y-67838454D01*
X98167824Y-67838452D01*
X98169351Y-67833863D01*
X98195171Y-67629474D01*
X98195583Y-67600000D01*
X98193772Y-67581526D01*
X98175952Y-67399780D01*
X98175951Y-67399776D01*
X98175480Y-67394970D01*
X98115935Y-67197749D01*
X98019218Y-67015849D01*
X97889011Y-66856200D01*
X97742639Y-66735110D01*
X97734002Y-66727965D01*
X97734000Y-66727964D01*
X97730275Y-66724882D01*
X97549055Y-66626897D01*
X97479764Y-66605448D01*
X97356875Y-66567407D01*
X97356871Y-66567406D01*
X97352254Y-66565977D01*
X97347446Y-66565472D01*
X97347443Y-66565471D01*
X97152185Y-66544949D01*
X97152183Y-66544949D01*
X97147369Y-66544443D01*
X97091800Y-66549500D01*
X96947022Y-66562675D01*
X96947017Y-66562676D01*
X96942203Y-66563114D01*
X96744572Y-66621280D01*
X96740288Y-66623519D01*
X96740287Y-66623520D01*
X96729428Y-66629197D01*
X96562002Y-66716726D01*
X96558231Y-66719758D01*
X96405220Y-66842781D01*
X96405217Y-66842783D01*
X96401447Y-66845815D01*
X96398333Y-66849526D01*
X96398332Y-66849527D01*
X96389585Y-66859952D01*
X96269024Y-67003630D01*
X96266689Y-67007878D01*
X96266688Y-67007879D01*
X96235765Y-67064128D01*
X96191163Y-67106012D01*
X96130460Y-67113680D01*
X96076843Y-67084204D01*
X96050792Y-67028842D01*
X96050011Y-67016434D01*
X96050011Y-65646621D01*
X96068918Y-65588430D01*
X96118418Y-65552466D01*
X96179604Y-65552466D01*
X96229104Y-65588430D01*
X96237063Y-65601369D01*
X96252712Y-65631818D01*
X96380677Y-65793270D01*
X96384357Y-65796402D01*
X96384359Y-65796404D01*
X96428395Y-65833881D01*
X96537564Y-65926791D01*
X96541787Y-65929151D01*
X96541791Y-65929154D01*
X96581342Y-65951258D01*
X96717398Y-66027297D01*
X96721996Y-66028791D01*
X96908724Y-66089463D01*
X96908726Y-66089464D01*
X96913329Y-66090959D01*
X97117894Y-66115351D01*
X97122716Y-66114980D01*
X97122719Y-66114980D01*
X97190541Y-66109761D01*
X97323300Y-66099546D01*
X97521725Y-66044145D01*
X97526038Y-66041966D01*
X97526044Y-66041964D01*
X97701289Y-65953441D01*
X97701291Y-65953440D01*
X97705610Y-65951258D01*
X97709427Y-65948276D01*
X97864135Y-65827406D01*
X97864139Y-65827402D01*
X97867951Y-65824424D01*
X98002564Y-65668472D01*
X98010229Y-65654980D01*
X98101934Y-65493550D01*
X98101935Y-65493547D01*
X98104323Y-65489344D01*
X98110842Y-65469748D01*
X126549500Y-65469748D01*
X126561133Y-65528231D01*
X126605448Y-65594552D01*
X126671769Y-65638867D01*
X126681332Y-65640769D01*
X126681334Y-65640770D01*
X126704005Y-65645279D01*
X126730252Y-65650500D01*
X128469748Y-65650500D01*
X128495995Y-65645279D01*
X128518666Y-65640770D01*
X128518668Y-65640769D01*
X128528231Y-65638867D01*
X128594552Y-65594552D01*
X128638867Y-65528231D01*
X128650500Y-65469748D01*
X128650500Y-64585262D01*
X129084520Y-64585262D01*
X129101759Y-64790553D01*
X129103092Y-64795201D01*
X129103092Y-64795202D01*
X129121610Y-64859780D01*
X129158544Y-64988586D01*
X129252712Y-65171818D01*
X129380677Y-65333270D01*
X129384357Y-65336402D01*
X129384359Y-65336404D01*
X129497017Y-65432283D01*
X129537564Y-65466791D01*
X129541787Y-65469151D01*
X129541791Y-65469154D01*
X129630383Y-65518666D01*
X129717398Y-65567297D01*
X129721996Y-65568791D01*
X129908724Y-65629463D01*
X129908726Y-65629464D01*
X129913329Y-65630959D01*
X130117894Y-65655351D01*
X130122716Y-65654980D01*
X130122719Y-65654980D01*
X130193259Y-65649552D01*
X130323300Y-65639546D01*
X130521725Y-65584145D01*
X130526038Y-65581966D01*
X130526044Y-65581964D01*
X130701289Y-65493441D01*
X130701291Y-65493440D01*
X130705610Y-65491258D01*
X130740943Y-65463653D01*
X130864135Y-65367406D01*
X130864139Y-65367402D01*
X130867951Y-65364424D01*
X131002564Y-65208472D01*
X131021231Y-65175613D01*
X131101934Y-65033550D01*
X131101935Y-65033547D01*
X131104323Y-65029344D01*
X131117882Y-64988586D01*
X131167824Y-64838454D01*
X131167824Y-64838452D01*
X131169351Y-64833863D01*
X131195171Y-64629474D01*
X131195583Y-64600000D01*
X131193667Y-64580454D01*
X131175952Y-64399780D01*
X131175951Y-64399776D01*
X131175480Y-64394970D01*
X131115935Y-64197749D01*
X131019218Y-64015849D01*
X130889011Y-63856200D01*
X130885282Y-63853115D01*
X130734002Y-63727965D01*
X130734000Y-63727964D01*
X130730275Y-63724882D01*
X130549055Y-63626897D01*
X130479764Y-63605448D01*
X130356875Y-63567407D01*
X130356871Y-63567406D01*
X130352254Y-63565977D01*
X130347446Y-63565472D01*
X130347443Y-63565471D01*
X130152185Y-63544949D01*
X130152183Y-63544949D01*
X130147369Y-63544443D01*
X130092207Y-63549463D01*
X129947022Y-63562675D01*
X129947017Y-63562676D01*
X129942203Y-63563114D01*
X129744572Y-63621280D01*
X129740288Y-63623519D01*
X129740287Y-63623520D01*
X129729428Y-63629197D01*
X129562002Y-63716726D01*
X129558231Y-63719758D01*
X129405220Y-63842781D01*
X129405217Y-63842783D01*
X129401447Y-63845815D01*
X129398333Y-63849526D01*
X129398332Y-63849527D01*
X129376824Y-63875160D01*
X129269024Y-64003630D01*
X129266689Y-64007878D01*
X129266688Y-64007879D01*
X129251800Y-64034960D01*
X129169776Y-64184162D01*
X129168313Y-64188775D01*
X129168311Y-64188779D01*
X129130008Y-64309527D01*
X129107484Y-64380532D01*
X129106944Y-64385344D01*
X129106944Y-64385345D01*
X129096793Y-64475849D01*
X129084520Y-64585262D01*
X128650500Y-64585262D01*
X128650500Y-63730252D01*
X128638867Y-63671769D01*
X128594552Y-63605448D01*
X128528231Y-63561133D01*
X128518668Y-63559231D01*
X128518666Y-63559230D01*
X128495995Y-63554721D01*
X128469748Y-63549500D01*
X126730252Y-63549500D01*
X126704005Y-63554721D01*
X126681334Y-63559230D01*
X126681332Y-63559231D01*
X126671769Y-63561133D01*
X126605448Y-63605448D01*
X126561133Y-63671769D01*
X126549500Y-63730252D01*
X126549500Y-65469748D01*
X98110842Y-65469748D01*
X98111040Y-65469154D01*
X98167824Y-65298454D01*
X98167824Y-65298452D01*
X98169351Y-65293863D01*
X98195171Y-65089474D01*
X98195583Y-65060000D01*
X98192577Y-65029344D01*
X98175952Y-64859780D01*
X98175951Y-64859776D01*
X98175480Y-64854970D01*
X98170494Y-64838454D01*
X98117333Y-64662380D01*
X98115935Y-64657749D01*
X98019218Y-64475849D01*
X97889011Y-64316200D01*
X97805039Y-64246732D01*
X97734002Y-64187965D01*
X97734000Y-64187964D01*
X97730275Y-64184882D01*
X97549055Y-64086897D01*
X97485855Y-64067333D01*
X97356875Y-64027407D01*
X97356871Y-64027406D01*
X97352254Y-64025977D01*
X97347446Y-64025472D01*
X97347443Y-64025471D01*
X97152185Y-64004949D01*
X97152183Y-64004949D01*
X97147369Y-64004443D01*
X97109613Y-64007879D01*
X96947022Y-64022675D01*
X96947017Y-64022676D01*
X96942203Y-64023114D01*
X96744572Y-64081280D01*
X96740288Y-64083519D01*
X96740287Y-64083520D01*
X96729428Y-64089197D01*
X96562002Y-64176726D01*
X96558231Y-64179758D01*
X96405220Y-64302781D01*
X96405217Y-64302783D01*
X96401447Y-64305815D01*
X96398333Y-64309526D01*
X96398332Y-64309527D01*
X96322601Y-64399780D01*
X96269024Y-64463630D01*
X96266689Y-64467878D01*
X96266688Y-64467879D01*
X96235765Y-64524128D01*
X96191163Y-64566012D01*
X96130460Y-64573680D01*
X96076843Y-64544204D01*
X96050792Y-64488842D01*
X96050011Y-64476434D01*
X96050011Y-64075968D01*
X96068918Y-64017777D01*
X96079007Y-64005964D01*
X96587654Y-63497317D01*
X96642171Y-63469540D01*
X96705957Y-63480903D01*
X96717398Y-63487297D01*
X96721996Y-63488791D01*
X96908724Y-63549463D01*
X96908726Y-63549464D01*
X96913329Y-63550959D01*
X97117894Y-63575351D01*
X97122716Y-63574980D01*
X97122719Y-63574980D01*
X97190541Y-63569761D01*
X97323300Y-63559546D01*
X97521725Y-63504145D01*
X97526038Y-63501966D01*
X97526044Y-63501964D01*
X97701289Y-63413441D01*
X97701291Y-63413440D01*
X97705610Y-63411258D01*
X97709967Y-63407854D01*
X97864135Y-63287406D01*
X97864139Y-63287402D01*
X97867951Y-63284424D01*
X97871433Y-63280391D01*
X97927313Y-63215651D01*
X98002564Y-63128472D01*
X98021385Y-63095341D01*
X98101934Y-62953550D01*
X98101935Y-62953547D01*
X98104323Y-62949344D01*
X98105920Y-62944546D01*
X98167824Y-62758454D01*
X98167824Y-62758452D01*
X98169351Y-62753863D01*
X98195171Y-62549474D01*
X98195583Y-62520000D01*
X98175480Y-62314970D01*
X98160999Y-62267005D01*
X98117333Y-62122380D01*
X98115935Y-62117749D01*
X98019218Y-61935849D01*
X97889011Y-61776200D01*
X97730275Y-61644882D01*
X97549055Y-61546897D01*
X97485855Y-61527333D01*
X97356875Y-61487407D01*
X97356871Y-61487406D01*
X97352254Y-61485977D01*
X97347446Y-61485472D01*
X97347443Y-61485471D01*
X97152185Y-61464949D01*
X97152183Y-61464949D01*
X97147369Y-61464443D01*
X97087354Y-61469905D01*
X96947022Y-61482675D01*
X96947017Y-61482676D01*
X96942203Y-61483114D01*
X96744572Y-61541280D01*
X96740288Y-61543519D01*
X96740287Y-61543520D01*
X96672528Y-61578944D01*
X96562002Y-61636726D01*
X96558231Y-61639758D01*
X96405220Y-61762781D01*
X96405217Y-61762783D01*
X96401447Y-61765815D01*
X96398333Y-61769526D01*
X96398332Y-61769527D01*
X96389287Y-61780307D01*
X96269024Y-61923630D01*
X96266689Y-61927878D01*
X96266688Y-61927879D01*
X96259955Y-61940126D01*
X96169776Y-62104162D01*
X96168313Y-62108775D01*
X96168311Y-62108779D01*
X96165466Y-62117749D01*
X96107484Y-62300532D01*
X96106944Y-62305344D01*
X96106944Y-62305345D01*
X96105865Y-62314970D01*
X96084520Y-62505262D01*
X96101759Y-62710553D01*
X96158544Y-62908586D01*
X96182542Y-62955282D01*
X96192323Y-63015678D01*
X96164493Y-63070536D01*
X95574860Y-63660169D01*
X95571731Y-63662869D01*
X95567242Y-63665064D01*
X95561024Y-63671767D01*
X95533618Y-63701311D01*
X95531042Y-63703987D01*
X95517263Y-63717766D01*
X95514718Y-63721476D01*
X95511282Y-63725389D01*
X95491110Y-63747135D01*
X95487723Y-63755623D01*
X95487723Y-63755624D01*
X95486845Y-63757825D01*
X95476531Y-63777141D01*
X95475190Y-63779096D01*
X95475189Y-63779099D01*
X95470019Y-63786635D01*
X95467909Y-63795527D01*
X95463870Y-63812547D01*
X95459497Y-63826373D01*
X95452951Y-63842781D01*
X95449628Y-63851111D01*
X95449011Y-63857404D01*
X95449011Y-63863573D01*
X95446336Y-63886432D01*
X95444171Y-63895555D01*
X95448107Y-63924476D01*
X95449011Y-63937826D01*
X95449011Y-64188541D01*
X95430104Y-64246732D01*
X95380604Y-64282696D01*
X95319418Y-64282696D01*
X95286906Y-64264822D01*
X95194002Y-64187965D01*
X95194000Y-64187964D01*
X95190275Y-64184882D01*
X95009055Y-64086897D01*
X94945855Y-64067333D01*
X94816875Y-64027407D01*
X94816871Y-64027406D01*
X94812254Y-64025977D01*
X94807446Y-64025472D01*
X94807443Y-64025471D01*
X94612185Y-64004949D01*
X94612183Y-64004949D01*
X94607369Y-64004443D01*
X94569613Y-64007879D01*
X94407022Y-64022675D01*
X94407017Y-64022676D01*
X94402203Y-64023114D01*
X94204572Y-64081280D01*
X94200288Y-64083519D01*
X94200287Y-64083520D01*
X94189428Y-64089197D01*
X94022002Y-64176726D01*
X94018231Y-64179758D01*
X93865220Y-64302781D01*
X93865217Y-64302783D01*
X93861447Y-64305815D01*
X93858333Y-64309526D01*
X93858332Y-64309527D01*
X93782601Y-64399780D01*
X93729024Y-64463630D01*
X93726689Y-64467878D01*
X93726688Y-64467879D01*
X93721985Y-64476434D01*
X93629776Y-64644162D01*
X93567484Y-64840532D01*
X93566944Y-64845344D01*
X93566944Y-64845345D01*
X93545834Y-65033550D01*
X93544520Y-65045262D01*
X93544925Y-65050082D01*
X93557872Y-65204260D01*
X93561759Y-65250553D01*
X93618544Y-65448586D01*
X93712712Y-65631818D01*
X93840677Y-65793270D01*
X93844357Y-65796402D01*
X93844359Y-65796404D01*
X93888395Y-65833881D01*
X93997564Y-65926791D01*
X94001787Y-65929151D01*
X94001791Y-65929154D01*
X94041342Y-65951258D01*
X94177398Y-66027297D01*
X94181996Y-66028791D01*
X94368724Y-66089463D01*
X94368726Y-66089464D01*
X94373329Y-66090959D01*
X94577894Y-66115351D01*
X94582716Y-66114980D01*
X94582719Y-66114980D01*
X94650541Y-66109761D01*
X94783300Y-66099546D01*
X94981725Y-66044145D01*
X94986038Y-66041966D01*
X94986044Y-66041964D01*
X95161289Y-65953441D01*
X95161291Y-65953440D01*
X95165610Y-65951258D01*
X95189209Y-65932821D01*
X95289061Y-65854808D01*
X95346556Y-65833881D01*
X95405371Y-65850746D01*
X95443041Y-65898961D01*
X95449011Y-65932821D01*
X95449011Y-66450500D01*
X95430104Y-66508691D01*
X95380604Y-66544655D01*
X95350011Y-66549500D01*
X93730252Y-66549500D01*
X93704005Y-66554721D01*
X93681334Y-66559230D01*
X93681332Y-66559231D01*
X93671769Y-66561133D01*
X93605448Y-66605448D01*
X93561133Y-66671769D01*
X93549500Y-66730252D01*
X93549500Y-68469748D01*
X93553545Y-68490082D01*
X93555518Y-68500000D01*
X93561133Y-68528231D01*
X93605448Y-68594552D01*
X93671769Y-68638867D01*
X93681332Y-68640769D01*
X93681334Y-68640770D01*
X93704005Y-68645279D01*
X93730252Y-68650500D01*
X95350011Y-68650500D01*
X95408202Y-68669407D01*
X95444166Y-68718907D01*
X95449011Y-68749500D01*
X95449011Y-74096003D01*
X95448708Y-74100128D01*
X95447086Y-74104853D01*
X95448173Y-74133812D01*
X95448941Y-74154272D01*
X95449011Y-74157985D01*
X95449011Y-74177459D01*
X95449836Y-74181889D01*
X95450172Y-74187082D01*
X95451285Y-74216719D01*
X95454891Y-74225113D01*
X95454892Y-74225116D01*
X95455828Y-74227294D01*
X95462194Y-74248245D01*
X95464302Y-74259564D01*
X95469099Y-74267346D01*
X95478279Y-74282239D01*
X95484962Y-74295106D01*
X95495475Y-74319574D01*
X95499489Y-74324460D01*
X95503853Y-74328824D01*
X95518124Y-74346879D01*
X95523043Y-74354859D01*
X95546280Y-74372529D01*
X95556350Y-74381321D01*
X98242235Y-77067207D01*
X98270012Y-77121724D01*
X98260441Y-77182156D01*
X98217176Y-77225421D01*
X98210117Y-77228675D01*
X98179616Y-77241309D01*
X98097159Y-77275464D01*
X97971718Y-77371718D01*
X97875464Y-77497159D01*
X97814956Y-77643238D01*
X97794318Y-77800000D01*
X97814956Y-77956762D01*
X97875464Y-78102841D01*
X97971718Y-78228282D01*
X98097159Y-78324536D01*
X98243238Y-78385044D01*
X98330495Y-78396531D01*
X98387577Y-78424680D01*
X98593893Y-78630996D01*
X98621670Y-78685513D01*
X98612099Y-78745945D01*
X98568834Y-78789210D01*
X98523889Y-78800000D01*
X95033960Y-78800000D01*
X95011773Y-78797482D01*
X95000358Y-78794857D01*
X94989483Y-78797318D01*
X94978336Y-78797298D01*
X94978336Y-78797137D01*
X94968331Y-78797924D01*
X94896241Y-78793199D01*
X94771525Y-78785025D01*
X94758698Y-78783337D01*
X94540484Y-78739932D01*
X94527984Y-78736582D01*
X94317308Y-78665067D01*
X94305346Y-78660111D01*
X94284304Y-78649734D01*
X94105820Y-78561716D01*
X94094614Y-78555247D01*
X93909615Y-78431635D01*
X93899361Y-78423767D01*
X93732085Y-78277069D01*
X93722930Y-78267914D01*
X93691641Y-78232236D01*
X93576233Y-78100639D01*
X93568365Y-78090385D01*
X93444753Y-77905386D01*
X93438284Y-77894180D01*
X93360927Y-77737315D01*
X93339889Y-77694653D01*
X93334933Y-77682691D01*
X93331900Y-77673757D01*
X93263418Y-77472016D01*
X93260067Y-77459511D01*
X93216663Y-77241302D01*
X93214974Y-77228470D01*
X93214775Y-77225421D01*
X93202109Y-77032181D01*
X93202899Y-77022372D01*
X93202625Y-77022372D01*
X93202645Y-77011222D01*
X93205143Y-77000358D01*
X93202683Y-76989486D01*
X93202683Y-76989484D01*
X93202441Y-76988417D01*
X93200000Y-76966568D01*
X93200000Y-62784222D01*
X93583402Y-62784222D01*
X93617674Y-62903743D01*
X93621225Y-62912711D01*
X93710919Y-63087236D01*
X93716142Y-63095341D01*
X93838037Y-63249134D01*
X93844720Y-63256055D01*
X93994164Y-63383241D01*
X94002078Y-63388742D01*
X94173373Y-63484475D01*
X94182201Y-63488332D01*
X94335088Y-63538008D01*
X94346479Y-63538008D01*
X94350000Y-63527173D01*
X94350000Y-63524725D01*
X94850000Y-63524725D01*
X94853747Y-63536258D01*
X94864079Y-63536474D01*
X94976882Y-63504978D01*
X94985862Y-63501496D01*
X95161020Y-63413017D01*
X95169155Y-63407854D01*
X95323787Y-63287042D01*
X95330771Y-63280391D01*
X95458990Y-63131848D01*
X95464546Y-63123973D01*
X95561471Y-62953353D01*
X95565392Y-62944546D01*
X95618507Y-62784879D01*
X95618586Y-62773612D01*
X95607599Y-62770000D01*
X94865680Y-62770000D01*
X94852995Y-62774122D01*
X94850000Y-62778243D01*
X94850000Y-63524725D01*
X94350000Y-63524725D01*
X94350000Y-62785680D01*
X94345878Y-62772995D01*
X94341757Y-62770000D01*
X93595004Y-62770000D01*
X93583586Y-62773710D01*
X93583402Y-62784222D01*
X93200000Y-62784222D01*
X93200000Y-62255053D01*
X93582434Y-62255053D01*
X93582515Y-62266570D01*
X93593197Y-62270000D01*
X94334320Y-62270000D01*
X94347005Y-62265878D01*
X94350000Y-62261757D01*
X94350000Y-62254320D01*
X94850000Y-62254320D01*
X94854122Y-62267005D01*
X94858243Y-62270000D01*
X95605701Y-62270000D01*
X95616889Y-62266365D01*
X95617002Y-62255497D01*
X95576870Y-62122572D01*
X95573199Y-62113668D01*
X95481072Y-61940401D01*
X95475740Y-61932376D01*
X95351716Y-61780307D01*
X95344922Y-61773466D01*
X95193721Y-61648381D01*
X95185738Y-61642997D01*
X95013114Y-61549660D01*
X95004243Y-61545931D01*
X94864977Y-61502821D01*
X94853340Y-61502984D01*
X94850000Y-61513512D01*
X94850000Y-62254320D01*
X94350000Y-62254320D01*
X94350000Y-61514679D01*
X94346327Y-61503375D01*
X94335638Y-61503226D01*
X94209407Y-61540378D01*
X94200466Y-61543991D01*
X94026573Y-61634899D01*
X94018497Y-61640184D01*
X93865571Y-61763140D01*
X93858687Y-61769881D01*
X93732551Y-61920205D01*
X93727104Y-61928159D01*
X93632573Y-62100111D01*
X93628773Y-62108976D01*
X93582434Y-62255053D01*
X93200000Y-62255053D01*
X93200000Y-60870229D01*
X119200381Y-60870229D01*
X119209567Y-60878946D01*
X119357847Y-60944964D01*
X119367656Y-60948151D01*
X119547705Y-60986421D01*
X119557968Y-60987500D01*
X119742032Y-60987500D01*
X119752295Y-60986421D01*
X119932344Y-60948151D01*
X119942153Y-60944964D01*
X120091649Y-60878404D01*
X120099396Y-60871429D01*
X120098824Y-60870229D01*
X124200381Y-60870229D01*
X124209567Y-60878946D01*
X124357847Y-60944964D01*
X124367656Y-60948151D01*
X124547705Y-60986421D01*
X124557968Y-60987500D01*
X124742032Y-60987500D01*
X124752295Y-60986421D01*
X124932344Y-60948151D01*
X124942153Y-60944964D01*
X125091649Y-60878404D01*
X125099396Y-60871429D01*
X125093944Y-60859998D01*
X124661089Y-60427142D01*
X124649202Y-60421085D01*
X124644172Y-60421881D01*
X124205115Y-60860939D01*
X124200381Y-60870229D01*
X120098824Y-60870229D01*
X120093944Y-60859998D01*
X119661089Y-60427142D01*
X119649202Y-60421085D01*
X119644172Y-60421881D01*
X119205115Y-60860939D01*
X119200381Y-60870229D01*
X93200000Y-60870229D01*
X93200000Y-60067657D01*
X118720447Y-60067657D01*
X118739688Y-60250720D01*
X118741832Y-60260810D01*
X118798714Y-60435874D01*
X118802908Y-60445294D01*
X118835603Y-60501923D01*
X118844747Y-60510156D01*
X118853593Y-60505353D01*
X119285358Y-60073589D01*
X119290602Y-60063298D01*
X120008585Y-60063298D01*
X120009381Y-60068328D01*
X120445469Y-60504415D01*
X120456433Y-60510001D01*
X120463733Y-60503073D01*
X120497092Y-60445294D01*
X120501286Y-60435874D01*
X120558168Y-60260810D01*
X120560312Y-60250720D01*
X120579553Y-60067657D01*
X123720447Y-60067657D01*
X123739688Y-60250720D01*
X123741832Y-60260810D01*
X123798714Y-60435874D01*
X123802908Y-60445294D01*
X123835603Y-60501923D01*
X123844747Y-60510156D01*
X123853593Y-60505353D01*
X124285358Y-60073589D01*
X124290602Y-60063298D01*
X125008585Y-60063298D01*
X125009381Y-60068328D01*
X125445469Y-60504415D01*
X125456433Y-60510001D01*
X125463733Y-60503073D01*
X125497092Y-60445294D01*
X125501286Y-60435874D01*
X125558168Y-60260810D01*
X125560312Y-60250720D01*
X125579553Y-60067657D01*
X125579553Y-60057343D01*
X125560312Y-59874280D01*
X125558168Y-59864190D01*
X125501286Y-59689126D01*
X125497092Y-59679706D01*
X125464397Y-59623077D01*
X125455253Y-59614844D01*
X125446407Y-59619647D01*
X125014642Y-60051411D01*
X125008585Y-60063298D01*
X124290602Y-60063298D01*
X124291415Y-60061702D01*
X124290619Y-60056672D01*
X123854531Y-59620585D01*
X123843567Y-59614999D01*
X123836267Y-59621927D01*
X123802908Y-59679706D01*
X123798714Y-59689126D01*
X123741832Y-59864190D01*
X123739688Y-59874280D01*
X123720447Y-60057343D01*
X123720447Y-60067657D01*
X120579553Y-60067657D01*
X120579553Y-60057343D01*
X120560312Y-59874280D01*
X120558168Y-59864190D01*
X120501286Y-59689126D01*
X120497092Y-59679706D01*
X120464397Y-59623077D01*
X120455253Y-59614844D01*
X120446407Y-59619647D01*
X120014642Y-60051411D01*
X120008585Y-60063298D01*
X119290602Y-60063298D01*
X119291415Y-60061702D01*
X119290619Y-60056672D01*
X118854531Y-59620585D01*
X118843567Y-59614999D01*
X118836267Y-59621927D01*
X118802908Y-59679706D01*
X118798714Y-59689126D01*
X118741832Y-59864190D01*
X118739688Y-59874280D01*
X118720447Y-60057343D01*
X118720447Y-60067657D01*
X93200000Y-60067657D01*
X93200000Y-58033960D01*
X93202518Y-58011773D01*
X93205143Y-58000358D01*
X93202682Y-57989483D01*
X93202702Y-57978336D01*
X93202863Y-57978336D01*
X93202076Y-57968331D01*
X93214974Y-57771531D01*
X93216664Y-57758691D01*
X93242625Y-57628180D01*
X93260068Y-57540484D01*
X93263419Y-57527980D01*
X93309908Y-57391031D01*
X93334933Y-57317308D01*
X93339889Y-57305346D01*
X93438284Y-57105820D01*
X93444753Y-57094614D01*
X93568365Y-56909615D01*
X93576233Y-56899361D01*
X93722931Y-56732085D01*
X93732086Y-56722930D01*
X93803898Y-56659952D01*
X93899361Y-56576233D01*
X93909615Y-56568365D01*
X94094614Y-56444753D01*
X94105820Y-56438284D01*
X94246306Y-56369004D01*
X94305347Y-56339889D01*
X94317309Y-56334933D01*
X94333040Y-56329593D01*
X94527984Y-56263418D01*
X94540484Y-56260068D01*
X94758698Y-56216663D01*
X94771523Y-56214975D01*
X94967819Y-56202109D01*
X94977628Y-56202899D01*
X94977628Y-56202625D01*
X94988778Y-56202645D01*
X94999642Y-56205143D01*
X95010514Y-56202683D01*
X95010516Y-56202683D01*
X95011583Y-56202441D01*
X95033432Y-56200000D01*
X104905627Y-56200000D01*
X104963818Y-56218907D01*
G37*
%TD.AperFunction*%
%TD*%
M02*
